<mxfile host="app.diagrams.net" agent="Mozilla/5.0 (Windows NT 10.0; Win64; x64) AppleWebKit/537.36 (KHTML, like Gecko) Chrome/131.0.0.0 Safari/537.36" version="26.0.6">
  <diagram name="‫עמוד-1‬" id="f06GVEvEn2AfNTpkeCHn">
    <mxGraphModel dx="1257" dy="657" grid="1" gridSize="10" guides="1" tooltips="1" connect="1" arrows="1" fold="1" page="1" pageScale="1" pageWidth="827" pageHeight="1169" math="0" shadow="0">
      <root>
        <mxCell id="0" />
        <mxCell id="1" parent="0" />
        <mxCell id="YuXrgqJmxFG0NAlgd0cn-1" value="" style="rounded=1;whiteSpace=wrap;html=1;" vertex="1" parent="1">
          <mxGeometry x="80" y="50" width="660" height="410" as="geometry" />
        </mxCell>
        <mxCell id="YuXrgqJmxFG0NAlgd0cn-16" value="" style="verticalLabelPosition=bottom;verticalAlign=top;html=1;shape=mxgraph.basic.three_corner_round_rect;dx=6;whiteSpace=wrap;dashed=1;" vertex="1" parent="1">
          <mxGeometry x="100" y="90" width="370" height="330" as="geometry" />
        </mxCell>
        <mxCell id="YuXrgqJmxFG0NAlgd0cn-13" value="" style="verticalLabelPosition=bottom;verticalAlign=top;html=1;shape=mxgraph.basic.three_corner_round_rect;dx=6;whiteSpace=wrap;dashed=1;" vertex="1" parent="1">
          <mxGeometry x="270" y="90" width="200" height="330" as="geometry" />
        </mxCell>
        <mxCell id="YuXrgqJmxFG0NAlgd0cn-12" value="" style="verticalLabelPosition=bottom;verticalAlign=top;html=1;shape=mxgraph.basic.three_corner_round_rect;dx=6;whiteSpace=wrap;dashed=1;" vertex="1" parent="1">
          <mxGeometry x="270" y="193" width="200" height="227" as="geometry" />
        </mxCell>
        <mxCell id="YuXrgqJmxFG0NAlgd0cn-11" value="" style="verticalLabelPosition=bottom;verticalAlign=top;html=1;shape=mxgraph.basic.three_corner_round_rect;dx=6;whiteSpace=wrap;dashed=1;" vertex="1" parent="1">
          <mxGeometry x="300" y="320" width="150" height="85" as="geometry" />
        </mxCell>
        <mxCell id="YuXrgqJmxFG0NAlgd0cn-2" value="" style="rounded=1;whiteSpace=wrap;html=1;" vertex="1" parent="1">
          <mxGeometry x="530" y="260" width="170" height="148.5" as="geometry" />
        </mxCell>
        <mxCell id="YuXrgqJmxFG0NAlgd0cn-4" value="USER:&lt;br&gt;NEWBIE" style="html=1;verticalLabelPosition=bottom;align=center;labelBackgroundColor=#ffffff;verticalAlign=top;strokeWidth=2;strokeColor=#0080F0;shadow=0;dashed=0;shape=mxgraph.ios7.icons.user;" vertex="1" parent="1">
          <mxGeometry x="329" y="335" width="30" height="30" as="geometry" />
        </mxCell>
        <mxCell id="YuXrgqJmxFG0NAlgd0cn-5" value="Group: Noobs" style="sketch=0;outlineConnect=0;fontColor=#232F3E;gradientColor=none;fillColor=#232F3D;strokeColor=none;dashed=0;verticalLabelPosition=bottom;verticalAlign=top;align=center;html=1;fontSize=12;fontStyle=0;aspect=fixed;pointerEvents=1;shape=mxgraph.aws4.users;" vertex="1" parent="1">
          <mxGeometry x="336" y="216" width="78" height="78" as="geometry" />
        </mxCell>
        <mxCell id="YuXrgqJmxFG0NAlgd0cn-6" value="Policy: S3:Read" style="sketch=0;outlineConnect=0;fontColor=#232F3E;gradientColor=none;fillColor=#7AA116;strokeColor=none;dashed=0;verticalLabelPosition=bottom;verticalAlign=top;align=center;html=1;fontSize=12;fontStyle=0;aspect=fixed;pointerEvents=1;shape=mxgraph.aws4.policy;" vertex="1" parent="1">
          <mxGeometry x="281" y="100" width="78" height="67" as="geometry" />
        </mxCell>
        <mxCell id="YuXrgqJmxFG0NAlgd0cn-7" value="&lt;i&gt;IAM&lt;/i&gt;" style="sketch=0;outlineConnect=0;fontColor=#232F3E;gradientColor=none;fillColor=#7AA116;strokeColor=none;dashed=0;verticalLabelPosition=bottom;verticalAlign=top;align=center;html=1;fontSize=12;fontStyle=0;aspect=fixed;pointerEvents=1;shape=mxgraph.aws4.aws_backup_vault_lock;" vertex="1" parent="1">
          <mxGeometry x="150" y="172" width="78" height="78" as="geometry" />
        </mxCell>
        <mxCell id="YuXrgqJmxFG0NAlgd0cn-8" value="USER:&lt;br&gt;PRO" style="html=1;verticalLabelPosition=bottom;align=center;labelBackgroundColor=#ffffff;verticalAlign=top;strokeWidth=2;strokeColor=#0080F0;shadow=0;dashed=0;shape=mxgraph.ios7.icons.user;" vertex="1" parent="1">
          <mxGeometry x="400" y="335" width="30" height="30" as="geometry" />
        </mxCell>
        <mxCell id="YuXrgqJmxFG0NAlgd0cn-15" value="&lt;div&gt;&lt;br&gt;&lt;/div&gt;&lt;div&gt;&lt;br&gt;&lt;/div&gt;&lt;div&gt;&lt;br&gt;&lt;/div&gt;&lt;div&gt;&lt;br&gt;&lt;/div&gt;&lt;div&gt;&lt;br&gt;&lt;/div&gt;&lt;div&gt;&lt;br&gt;&lt;/div&gt;&lt;div&gt;&lt;br&gt;&lt;/div&gt;&lt;div&gt;USER:&lt;br&gt;ADMIN&lt;/div&gt;" style="points=[];aspect=fixed;html=1;align=center;shadow=0;dashed=0;fillColor=#FF6A00;strokeColor=none;shape=mxgraph.alibaba_cloud.user;" vertex="1" parent="1">
          <mxGeometry x="500" y="130" width="60" height="60" as="geometry" />
        </mxCell>
        <mxCell id="YuXrgqJmxFG0NAlgd0cn-17" value="REGION" style="html=1;verticalLabelPosition=bottom;align=center;labelBackgroundColor=#ffffff;verticalAlign=top;strokeWidth=2;strokeColor=#0080F0;shadow=0;dashed=0;shape=mxgraph.ios7.icons.flag;" vertex="1" parent="1">
          <mxGeometry x="600" y="305" width="30" height="30" as="geometry" />
        </mxCell>
        <mxCell id="YuXrgqJmxFG0NAlgd0cn-18" value="" style="shape=image;verticalLabelPosition=bottom;labelBackgroundColor=default;verticalAlign=top;aspect=fixed;imageAspect=0;image=data:image/png,iVBORw0KGgoAAAANSUhEUgAABUcAAAGGCAYAAABYJDD4AAAAAXNSR0IArs4c6QAAAARnQU1BAACxjwv8YQUAAAAJcEhZcwAADsMAAA7DAcdvqGQAAP6pSURBVHhe7N13fI1n/8DxT+Jkko2QQcSICBGRSBCxRwVtqVX6VLUeTX8tOtBBjVBttIoOjw7VotSqUlq79qwdaagIIoQMSRBJTpLfH2fk5M4eCL7v1+u85FzXdV/3vo/zPdcwqu3aJJcnRHPPZpyJPKtMfiS18GqGu1sDbt+5zYGD+0lOTlYWEUIIIYQoFTs7O9oGtqNG9RpEx1zkdMTj8f8lIYQQD9/j8j38cdkPIURBxsoEUfXZ2ljj7tYAQAKjQgghhKiw5ORkDhzcD4C7WwNsbayVRYQQQgjxiGvu2UyZ9Eh6XPajqnmSj6sERx9Bri4uAERF/SOBUSGEEEJUiuTkZKKi/gGD/2sIIYQQQgjxuCtzcNTIyIghA/uzevlizh4/QGx0BL//uoLWvj4ABPi35teVS+gUHKRfxtjYmIVfzmH+nI8NaoLuXTrx68olNPVoDMDIF4ex+fc1xEZHcPLIHhZ/+xUuzk75lhFQq2ZNAC7HXlZmCSGEEEKUm+7/Frr/awghhBBCCPG4K3NwtJmnB/M+m4Vj7Vqs/e13Nm7ajHfzZqxbuQQXZycuX4mlXWAbXh31kn6ZJo0b8ky/EAY/9yz1XPNaIrz26ssE+Lfm+vV4Rr8ygllhH5KVlcWCbxaxZdsOrKxq0Ma/tb58VfDLksVEHDtMxLHD/LJkcbnTK6JG9RoApKSkKLOEEEIIIcpN938L3f81hBBCPPqsatTgg4nv8Mdvazjz9yH999OiXqePHmTTujVMfOdNqltaKqurMtoH+rPix+848Nc2Dvy1jRU/fke7Nn7KYlVa3Tp1eHnEf/jxu4Uc3L2DPds3M3f2x4x88QUaumuG0ntUtPJpybqVy/XX0cplP+Hl2VRZTIgqyaisEzKpVNWws7XjZkKCPq19uwDWrviJLxZ8y4xZn7L59zV4ejTG3bMVanU2L48Yzuuho3Cwt2P8e1P4ZfWvmJmZcSHyGAcOHmbg8y+x/6/NWFvXwNuvAzk5OfnWWVkqYwDliGOH87338m1TrvSKeDokBICVq39RZpVK186daRsYSFMPzYPqn6h/2H/gIDv+2qksKoQQQognzKDnBgPw28aNyiwhhBCPoPFvjmXEC8OUyaXy7aLFzP3ya2VymVTG93Cl/wwdyMTx45XJAHz08ccsW7lWmVxhlbkfNapX5+MZ0+jcMViZpadWq5k6Yxa/rt+gzCq3ytwHpd9WraBRQ/d8aSdOnWbYiJfzpVWG+7kfT7In+biWueWoWp2dLzAKcPLUGQBcXZwB2LJtB2ZmZrT0bgFAQBs/Dhw8wt/HTxKo/SUnwL81JioVm/7cCkDs1avY2tjQN6QX1apV09ctKo+dnR0fz5jJO2++Rfu27XCwt8fB3p72bdsx/q23mDk9DFtbW+Vijx5bL7o+1QWvx2BXhBBCVH2uXV7hnTFvaV8D0Qw0VDJrry70fcoPV2VGJfLpr9uut3inf0tlthBCiCdAz+5dAZg46UNa+AXi5dum2FcLv0AmTQ0D4Kme3RW1PXwBfj5MHD+eGzdu8M7Ed+nQtTsdunbnnYnvcuPGDd5/9138fLyVi1UZ5ubmLP3hO31gdMOmPxj79gQ6dn+KoC49+O//jWHh9z+Qk5PDjKmTefedtzA2LnPo5r4zMzXl3XfeYvE3C3hZ29I1JyeHVoFBBHToDIBnUw+eHzyIxd8s4K0xr1fJ/RCC8gRHATybNmHa5HdZs+JHfl25hC/mfALasUUB/tyyHYCgtgH6fw8ePsqhw0f13eQ7BLUF4I/N2wCYOuMT7mVk8M1XnxNxbD+zwj7EsXYtqpozEXlR9Ir8/TBMfOcdWnp7c/DwId6eOIHnhg7huaFDeHviBA4fPYKvjw8T335HuViZWHj0YcyH4cyd8wVfzZ7DrEmv0ut+fusrjFcX+vZsi4cyXQghhLgPrF0a0MC9DhbKDABaMuLDcD5973m8FDmurbvSq2dwgfQyq9mWYeOm8uknc5j7STiffvgBo7rln1DJom4DGtSrky9NCCHEk6FuHc3zf+Mfm0vVSzMnJ4ffftf0HnB2qnpzgLz0wgsAzJj1MX9s3UFScgpJySn8sXUHM2Zp5jl58YXnFUtVHVM+eJfGjRqSmJjEK6Gvs3jJMvqGPMWGNStZvXwJvXp0Y+269QwYOpyk5GReeH4IE94ap6zmoXtvwtu88PwQ/P1a89bYNzAyMmLHrt1kZmZy+84d9h88hJmpKR9MfAd/v9a8POI/vPnG/ymrqTI8+4UyPSyM8LAwpr/ejwBtHGPS0r1snjtQWbygIZ+zee8SJinTS1Dq+h8p/RijPZbhYeMZHdIeT2WRKqbMwdHgoHb8tWUDHTu05/SZs+w/cJizkVGgfYgCRJz9h6tx12gb2IaG7m44ONhz4NARDh7+m0YNG1DTwYGgtgGcOHma6/E3ADgbGUVL/w6MGPV//LV7Ly8MG8yBXVvo2KF9vvU/bINfGKH/RW3wCyPKnf6g9erRg5YtvDl0+DDTZszgbGQkd+7c4c6dO5yNjGTK9OkcPnoEn5Yt6d5V88tiWZl4vciHoV2wid3O4s8+4eNvfmb/ZTUm5sqS95dHvTqYpMYSdUuZI4QQQtwv1zkyfw6fzl/FCcNkH3+a21tg4ehDuxKblHoxYvoXvNNNma5hYl0H15rKEKwXw15/nna1Ujn+1zp+Xb+bXadisaml+R/9ibVz+HT+HI7EKxYTQgjxxMnNzcXIyIifvv+GlUt/pKaDg7KInu67vZGRkTLrofP21rQK3X/4qDKLI8c0n8LNPJsps6qEJo0a0S+kNwBvv/cBUefP89N339CtS2fuZdwjMTGJ/k/34/v/fUlc3DVeG/sWAC88P6RKjUEa4O/HwP7PkpOTw8Lvf2D9xk18/sVXvD3xfX2Z18e9zYyPw/ltw0a+XaSZf+U/w4ZSz/VBt54qSXumr9zL6snD6NHKA08PDwL6TyD8Pc1QFKaWpthYmCoXKqiaGTaWZpSiZD6lrv+R4k33kJ4Ee3vg6eFP/wmfs3rr14yoaqfeQJmDo2+8Norc3FxCnh3M1BmfMPvzL/j6m+8ByFZn68v9sXkbAf6tCWoXSFJSMuf/vcCRv4+RnZ1N966d8GnZgg2b/jSoGe7cucsfm7fx6htv07f/UExNTXg99JV8ZUT5tG/XDoAVq1Yqs/SW/6IZw7R9W03ZsmoX3BLra3uYt2gzJ67GcuX8UTb89B0bzhsUMrGmjncwfdu3xEH5/c7EmjqN/ejo34Q61iaKTI0CXwy19XX0dtHX18DRGlISOYcFDo398Pd2KKI1jxBCCHF/dWzbDIuYHWy/aoGHf0mTRDhgXcwHVpNn3uDd4YqxyTz9aG4LF3fOYdkfu9m173c2rPuRT5cfyF9OCCGE0KpRvTpezTz56ftvig2QVlU2NjYApKffU2aRmnYbgDra1rJVzcABzwCw+tffOHL0b4LatqV6dUv2HzhEt979GDT8RSIi/8HF2ZnmXs04fSaC5StXAdD/6X6K2h6ep/to5kFZtmIl879awHuTp7Ju/e+ETZnE7q1/snvrn0yd/D5bt+/k/SnTmPvl16xa+ysqlYoBz1Sd/QAYMHcSA+rFsebtIAL7DKLvoEH07BJEx9eWKYvqeQb3JCSkJ938C2tZ7UFwSE9CCrSWdCKgu2a5kOCy9XP98P2JBSZO073eHvuGsngVkcbZldrjOXwVkbZ+DHjRINvVj26FHicMjlVnfQveolTWsSlzcNTUVBPRrmacNy7oKy/9BwBbW81DCmDr9r+wtLRg9CsvcfjoMdAGP8+c/Yc3XvsvxsbG+i71QL5Z7AGuX48HIyNU1VT50h+2omafL2v6g9awgWZg5EuXLimz9K7GxQHQqFEjZVapqExMwNoRj8Ljmlj4PM/kGVN5d2gfuj7zCtMn5nUx1OTNZPIrg+jb/1UmT5/DrP9ock2emshX01+h73+mMnf6B7zWW7MvDsGvMuuTmUx+4Rn6DnuL94b7AV7UsYfUVAtGTZ/J5JHPM2zkVGaN6YK1wbYIIYQQ951JMC3dIerY72yLjMWiSVs6FvEZSbe3+GruQDxMoEGfL/hq7hf6z8Fipd4lC3Co11J+CBRCCFGi3NxcRv3fG8RevUr9eq4sWfRoBkgfVUHtNMMLbtmmGYrw0NGjjPhvKFNnfkR2djbGxsaY6WIu2rlYVv/6GwC+rarO2OH/RkcDMOi5/vho55p5d/xb9AvpjYODPQ4O9vQL6c274zUtX/18W/FM3z4ApN8rGNR+eHrSzcuBtJO/8eFuZV5h/Biz8A9WfzaZsPcmE/71OnZ9PYy8aJYTPXZ8z9z3JhM29XNWb/0cTf/hgSzYupIFUyYwJnQCYZ8t4eDXpZ8k7dLlK8okvZs3888JVJVlpGv/GPYJm1d9zYzQlxnztsFxmrqSiL1/sHnHShZMmUzY1E9YtOhzBuSvJp/KOjZlDo7+smotRkZGfP3Fp4x/8w1WL1/MsCHPce16PB3aB+LgYA/Avv0HSbt9m4bubhw0aO5+6PBRGrq7cf7fC1yIjtGn79r6O+vX/MySRQv47OMw9uzYhKpaNZb9ovmVpKpo7pXXPL8ifz8sKpOivpXlKW/Pid3bD5Bo4cWIj2Yy5hk/6hiuquazvDPCj/StMxn33gTGrY4gy7aOZhIKz+f5cERbLCO+452JE3jnvd+5CKTcPAeAj4sDWDfDhx3MnzGV6asiMPF6kXf6NyHlrzmMG/8W70x8i3e+PQq2TXC1Bmt3V64vnsi4997i22OpmNR0va8TXgghhBBKJh398OAiJw9kkbo3gismDWjZtojP4W1z+L9xms+/i7+/wf+Ne4P3fooAXPB/qg99n+qDTy0TsG5AX+17f1fg6jp+OZSItfcrfDprKu/8pydeRfS+EEIIIQASE5MY/tIoLl+5Qj1XV/73xVxlEXGf1K6lmVcl4mwkAPHxNzhy9G+uxl3D2tqKLz//lEYN3bkSG8vRY8cB+CfqHNnZ2VWqO/pPy5brxxQd9JwmdNU2oA0AL74ymhGjXgUgsI0/AMOHDsbExISdu3bru9hXDTUxM4Wb17StRAOHMUk3VuZ7w9DMomNgVCgj/DPY9nYQvkFB+Ibtg8DhfKBvDJvA7te1ef1XEWnbngFTnYBVhHYPwjeoKz37dCV0RxxWTdszNH/tRVry8wrORJwlNzdXn5abm8uZiLMsWb4iX9mqw4qAN/ZybO9ejq0diPvFVfzwGYAf4YM6Y35kBoF9BtGzyzwOmfrTPVS3XALbdMdw0WkyHJwp7meByjo2ZQ6O/vzLGl5+dQxZmVl4t2jGkaPH6drrGUb/35uMf28KiYlJAGSp1bw3aTqffv4lGzbmdZ9ftmIVn37+JdNmhBvUCq+EjiExMYkaNWrQ/5m+nDv3Lx269Gb12vX5yonyuaD9ZcfF2VmZpafLO//vBWVWqWRF/MyHH3zBn/9m4d7pRSbP+IBBXiaACR0Hd8Dh/DrmbUvExNqPEU95QfQJ9mNN3z5tsb62g09/Okk6gJcrDqRy5d8swBpXewuyzq/j4592E5WQSHp6AwYN8MPi/Do+W3+RLMONaOyIDYnsXziHtdEGOTlZqA3LCSGEEPeVNb1aNSAr5iT7s4Bbu4m4aoJHQM8y9mRwoEHjJng0boKrlQosHPDQvm/gAJBFxPKpvPPZj2yPgTo+fXht+idMHuiFhEiFEEIUJ+32HQByDIIKVd2410YBcPjwYWWW3tGjRwB4ffRIZdZDl52tGcv1XkaGMouPpk2hY4cgtmzbznNDXyA7WzNsobGxMdWqVdO3JK0KjI2NycrSfN9WabfLMDil3Na72iEQ7ty5my+9qjCtpu0e79AATw8PPP06E9KrYHdvl3oOmKXFcVzXynT9US6kOeDiqyuRyT3dPNxXlhEdB7XqdtYs2yuU8IVL2LD0a56vYwbVwEy3WAlycnJ4571J+msCIDs7m3fem5TvuFctaZxYHsbkWWFMXrCe6JoDmTC3H+BBTVswazCcDStXsmHlQJpZmmLtqF0sO42bumOYmkGmQY2FqaxjU+bgKMDvmzbz0n9f54WRoXzy2TzSbt/m0JG/WbFqbb5yq9b+xuzPvyD2qqa7NsA/UeeZ/fkXbN3xV76y23fu5qX/vs6zg16gQVMfej8zmPMXNAG9qqSo2efL+veD9seWzQAMHjhImaX3/OAhAGzY+Lsyq/TSz7Fh4VTGzVhFlLoOHbt3wYS2tHQzIdW8GW9PCmf25EG4Rv/Mxwt2kGrbFR9nuPj37yRqq7Bu6IJ11nVizwP44FITEq+cyAuCOvvhYZ9F9Ind+QOjgKtbHSzSr3NO3yjZGo+61mTFx6KZNkwIIYR4ALSfb2o7P8aOeYt3xryCh1k6OHvR0VZZuDgnWTlfM6nShuh0iD/Kp9r3Kw1mfkq/cpS1C6fyzsSZ/BkDddoP5Nmifw8VQgjxBHNwsGfpD9/i5dmU2KtXCR1T9WZCL0ygXytGvTKKlJQUJnzwoTJbb/z7H3L79m1CR7+Kn49m8qaqIvbqVQDc3dyUWXg3b87tO3cY//5kbt/RBK4Bmnk2BeByMd2HH7TX/vsKHTsEkZGZybIVmrlLDh7WBKV//G4h3//vKwAOHNIEsZctX0FWVhZ9evdi9CtVKWgdRVoauDTSdo3fOINhgwbR91BeDKtSuI5l7tSXaMkpfl9+hJvK/FK4EhvL3C+/1r+f++XXXImNzVemqslI2MzGjZvZuGgGv59Po6Z3L21r2UxiD37P/378nv/9uICwqROZoZnKqFwq49iUKzj6IDg42NOubRsC2/ihUlWdX0iKmn2+rOkP2v4DBzj6998E+PszddJkmjX1pLpldaytrGjW1JNpH36IX+vWpKSkcPFi3nAH5Zawm3M3ATNLLLDA1ARIPcf2Xz7hvfETCPvpANezgLrWWJJKwlVdmNOEVq4OkHKdaIDGLtQ1SeXKhdS8uq0tMSGdVE0j5Xya1HWAhFiDmYI1wdXUhKoXaBdCCPH4atCzJXWyrnPm73NEnde+/o4mERf8u+cfZ71SZV1nw9aTpGKCZdmaqAohhHgCGBkZ8e1XX+Di7Myly1cY/tIoEhOT+PG7hfq5MhZ/s0C52ENX096Oz8I/AWD8e+9zU9tjtTA3EhKZ8J5m1vTPP/0Ee7u8uVEetr0HDgLwXH/NxEyGxo1/l1Ghb6BW5+/zOGhAfwD27NufL/1hMjc3B+CX1Ws4efoMAB/PnsPGPzaTlJxMYmISv/2+iY8/nQNAROQ/bNj0BwBWNaob1PSwHWX2zigyPHoxd1K/Ai1FdUzNNf+pij1ykQSrBgQP1LQ0dXmxPc2sEonVTLMDWGHTS9sKNXgsLV0ziT27DII9cDGN4+SM2SzcuJnjiqEwdfWX5MelP3P8xEn27NvP4iVFTxhV5bj2pFkdK4i/yB52EptoinvTpkRv1AZPN0ah+dmg/Cp6bEodHDUzM2P484MwMyttw9/yaePny5/rV3H2+AF+/WUJv61exuXzp3F1keYPFTVn/jyOnThBQJs2fBYezuoVK/hl2c98Fh5OGz/NWCA2NjaEz5qFvZ1m7NjS8grwo4F+jDMT6rR9lY5ucD1yN6mkk5kFpF7kyPlE0rHANbgtXiaAOguwwLqWCWCBz38+YFBjE9LjL3IFoH4drEklUTP8qEbqXbKwxrWxduBwCxc6tvXCBC9ca0LqTYOu9s6O1DRJ53pM2X41EEIIIcqvAe08HMiK2cOyP35ng/71PftjwMEzmAb6sibkDQeu+fSyrtUEE8BEMU74lb+38+e+iHxp2Hrh7+2Cg242Josm9O/dEuus61z8N39RIYQQAkCdnc3FmEu8+MpobiZoojRGBhNPqA26p1YV3ToHY2ur6XrxzddfFZiVWvn6+ov5ANjbO9AlOEhR28Ozdt1v5Obm8tyzT+PZNP+M5UsWfcPynxblOxctWzRnwDP9yM7J0U/MVBWsWafZlkED+tO391PMCptKl04d+WDqdDp07Ulw915MnfERfXs/xUfTpzJ00HP0f1ozMOeW7TsVtT1csZ9NZPbGRFyensTqY4c5dvAwEf3cyEhM5CawMSIOsxYvcXDhMFg/mx92Z+AzYR3H9u5l8+vepOxeykz9aJCmNH19Ccf27iVibmfMT6xi/jxg2T6OJzoRsmovx/auZILBqc9XfwlycnIYPnIUr74xrkxdxh8OKwLe1t6Tv4XRrdpRFi+YTSxxfDh3PVcbDWP1Qe2YpEe+54P2yuXLpqLHxqi2a5NSLzX8+UG8+UYoi35cxg8/LePuXd1UU5Wnfj1XEhIT9WNRTH5vPK+HvkJAh+7EXLqsLF4mzT2bcSayYl3bf1myWD+x0pmIs/rWoGVNr4inQ0IAWLla03y9rLp06kz7tm3x8PCA3Fwio6I4cPAgx0+e4NOPP8Gpbl2uxsUx/r13SU5OVi5eqL7j5tDLzfBLXBbXj63i658OkAh4DZ7Ka20dyEpPBzMLSD3HhoVfsP1aAwa99xYdHYGsLK4f3sGVFj2pc+AtPv4jC6//zOQ19wjmT/3ZoFu8CV5DP+C1AN2silmkRv3OvO8sGTG7J+r1b/DpDm1Wl7f4qp8Jf47/hA3KPvhCCCFEJfD6z0xe801kw7g5/Ang+SKzRrfk2qq3mL8vf1mT4DeY3b8OJxZ+wGKeZ/qotjgYX9Qua4L/iKmM8NG0Hkg99AXvLTf8dbAQzs8yeVyX/JMgZlznyNr/sfiQbsAa6DXuC/ryO/83VzPMTnEGPTcYgN82blRmCSGEeASd+fsQRkZGtPALJCdHM+ZlSYyNjTl99CC5ubk0b11gWpoyqYzv4U51HPlq7qc0aZI/oFiSs5Fn+b833+HGjdLPWl2UytgPgLApk+j/dD/irl1j1Gtv6OMcEcc0XdCbtw4gNzcXn5befDFnNvZ2diz5eYW+FWZFVNY+AHww8R2eH5x/2L4/tmzlnXc/AOB/X8ylQ/t2+fJ/+nk5n3z6eb608qjM/TDkGdwTd7NETm49SrHNq5q1J6RBDdIubmZ3IZvh4t8Z9zs7FXlOBHRvgdnVwpepCu7XcS2c5njUNL1N9MZ9aKYoe3jKFBwF8GrWlEULv8DW1pbVa3/jj83b2H/wcKkfsiWpW8eRnt270LVzMPO++oYmjRvy/oQ3ae5bwTByJZ1o3QNLx8tXMyNbWdMroqLB0eLY2dnpA6Rx167xzrsTSx0gxcIBV3sLQE3KjeukKoKRFjVdqGkGWWnxXM+XaYGDswMkxZJYhni7iXUd6lipuFvG5YQQQojKpAmOprJ99jKOkE7C1UTNBIMPjAnWdR2xMQZyUrl+LVXfg0L32ev//ES6ZklwVAghnkQ7N2+kdq1aTPhgMn9s3lrid3djY2P69enNzKkfcj0+nq5P9VUWKZPK+B5emD3b/sDe3oFhL45AVU3Fj4u+IykpkQ7dnlIWrRSVtR/m5uas+OkHGjdqSEZmJr+sWs2PS5dzPT4eWxsb3Nzqa1tk9tIEqc9EMHzkqALd7cujsvYBwMzUlDfHvE7TJo05fvIUo0aOIDc3l9btgqlWrRpH9v5FTm4uixb/hI93C86cjWTul19Xuf0QeZ7k41rm4ChAjRrVmffpLPr07glAcvIt1m3YxN/HTnA64izn/43ON1NUSVq28KJb10706tEV7+Ze3EpJZdrMT1j+yxq++PwTYi5d5tPPv1QuVmaVcaKLCnaWNb0i7mdwFMDezp7ZH3+MU926fPH1V2z6809lESGEEEJoaYKjurGidK1Aq4Ze476gr27OhxgJjgohxJPoo2lTeLqv5jtkWa1a+ytTZ8xSJpdJZXwPL8zH0ybTt2/+wO369et5b+qMfGmVpTL3w6pGDT6ZGUbHDkU3AsvNzeWPLVv5cPpM0tMr52fXytwHpd9WraBRQ/d8aWf/+YeBz/8nX1pluJ/78SR7ko9ruYKjOh07tGfs/42mfbv8zewzMzM5GxlFzOUrXIm9SmzsVWIuXcHG2gpXV2dcXVxwcXaifj3NvxYWmoGystRqli1fxUefzCElNRUzMzPWr15Gv+eGkZGRkW8d5VEZJ7qobvJlTa+Ifr17Y2RkxOq1q0r81a+87O3s6RjcgV9/qzrjmgghhBDi/jI2Nua5/gPJzc1l/aZNymwhhBCPIBsbaz79aCbt2pate/zuvfuY8P5k0m7fVmaVSWV8Dy+MvZ0Nb4/5PzoEBZGTk8uu3buZ+9X/SL6VoixaKe7Hfjg71SXkqV4EtWuLR5PGqNVqos6d56/de/lzy1Zu3CzPvOZFux/7oNO7Vw/en/AOdtqxYRMSEwmbFc62HZU/xuj93I8n2ZN8XCsUHNVp7evD84MGENQ+ELf69ZTZJbp8JZZFPy7j5xWrSUnNm5Xco0ljcrKzOX+hcmYaf1xOdJeOwVjVsGLr9i2l7/IuhBBCCFECOzs7unftQdrtNHbs2q3MFkIIIcrscfke/jjsx+OwDzxG+1HVPMnHtVKCo4bqONYmqH0gzZp6UL+eK3XrOFKvngsO9vakpt0mOTmZxMQk/ok6z9/HT3DoyN9ciI5RVnNfPC4nuoVXM9zdGhAV9Q8nT59UZgshhBBClEvLFi3x8GhKdMxFTkc8+v9nEkII8fA9Lt/DH4f9eBz2gcdoP6qaJ/m4VnpwtCp7XE60rY01HYM6AEjrUSGEEEJUCl2rUYBde/dwKyWvN48QQghRXo/L9/DHYT8eh33gMdqPquZJPq7GygRR9d1KSSU65iIAbQPbYWdnpywihBBCCFFqdnZ2tA1sB0B0zEUJjAohhBCPoccl8PW47EdV8yQf1yeq5ejjJtDPD0dHRwCiov7hcuxlUlJS7tskTUIIIYR4fBgbG2NjY0M9l3p4eDQFID4+noNHjyqLCiGEEEII8diS4OgjTjf+qBBCCCFERcg4o0IIIYQQ4kkkwdHHgK2NNa4uLtSqWZMa1WtgZGSkLCKEEEIIkU9ubi6379zmZkICV2JjpSu9EEIIIYR4IklwVAghhBBCCCGEEEII8USSCZmEEEIIIYQQQgghhBBPJAmOCiGEEEIIIYQQQgghnkgSHBVCCCGEEEIIIYQQQjyRJDgqhBBCCCGEEEIIIYR4Ihl16fGMTMgkhBBCCCGEEEIIIYR44shs9UIIIYQQQgghhBBCiCeSdKsXQgghhBBCCCGEEEI8kSQ4KoQQQgghhBBCCCGEeCJJcFQIIYQQQgghhBBCCPFEkuCoEEIIIYQQQgghhBDiiSTBUSGEEEIIIYQQQgghxBOp0mert/bpTo2m7bCo3xzTmq5Uq24DQPadFDITrpB+6Qy3/9lP6omtykWFEEIIIYQQQgghhBDigamU4Gg1ixrU7P4K9h2GUK2GnTK7UNm3k0nas4KErd+RnX5bmS2EEEIIIYQQQgghhBD3VYWDo3btBlDn2fGlDooqZd9O5vqvs0nev0aZJYQQQgghhBBCCCGEeAQ092zGmcizyuQqr0JjjjoNmYLzCx+VOzAKUK2GHc4vfITTkCnKLCGEEEIIIYQQQgghhLhvyh0cdR35GfYdn1cml5t9x+dxHfmZMlkIIYQQQgghhBBCCCHui3IFR52GTMHGv48yucJs/PtIC1IhhBBCCCGEEEIIIcQDUebgqF27AZXaYlTJvuPz2LUboEwWQgghhBBCCCGEEEKISlWmCZmqWdSgyfRtFRpjtDSybydz7sNuMou9EEIIIYQQQgghhBDl1MKrGb179aB1q1Y4O9UF4GrcNf4+fpxNf27hdETlTaB0vyZk6hfyFKGjXgFg/tf/448tW5VFKqRadRuHqcrEotTu/Ro1vDookyudsakF5ORwJ+qgMuuR1dDdnbt375Kdna3MEkIIIYQQQgghhBCiUk18exwT3hqHp4cHNjbWGBsbY2xsjI2NNZ4eHvQL6Y2Dgz37DlRO/K12rVrcSLipTC63Bm71mT0zjOeefQYLC3MsLMzpFBxEgL8fp86cISUlVblIuZSp5ajn7INFthr9e4SzMqlUWi++qkwCbevRyPGByuRHUoP69fFu3pw7d++yd/9+7mVkKIsIIYQQQgghhBBCCFEp5s7+mMA2/gAsW7GSrTt2ciH6IgAN3RvQrUtnhg8ZBMDBw0cYN/7dfMuXR2W1HDU3N+O/I19i8HP9qVatGlfjrjH783kAjH9zLM5OdVGr1axYtYbvFv/IvXsVi7OVuuWotU/3YscCvbZujjKpVJyeeVuZBNrWo/euRpFxPVqZVYJh2E9ZRv0WtUg4vCtfjlHfTTR9dSJmORtIizaMLmuX6R7I7T3rUOcYZAHU+hSXGZ/iYJ/KrTOnFZklS793j7p16lDd0pK6depw9dq1irUgrdWWF4eH0Kl1HdL+Po8+Jq9L9zAl5nQsd/IvJYQQQgghhBBCCCEecxPfHkf3Lp25GhfHmLcnsOnPLSQkJpKTk0NOTg4JiYkcPvo3ew8cxL+1L82aNq2UFqSV0XK0hVczvvlqPgH+fmRlZfHd4p/4cPpMLl+JJfZqHGt/W09mVhYtWzTH16clfXr34vSZCG7cLP96Sz0hU42m7ZRJ+bRefLVcr+KUtM7CmVHN0gyVpZkiPRAb74aoLMywazMOo3x52mUcAnHs2zFfDrhQfWgPbC3MUFko6yydjIwM9uzfz527d6luaUmHdu0wMytfXQBUM8PcwgwzCzPMC0s3M6OaYboQQgghhBBCCCGEeOy18GrGs/36AvDB1DD+iTqnzzu4azsHd23Xv/8n6hwfTA0D4Nl+fWnh1Uyf9zAYGxszK2wqNR0c2LxtOwOef4HFS5ahVqv1ZdRqNYuXLOO55//D5m3bqengwKywqRgblzrEWUCpl7So31yZdN9V6jpdRmLvkkr8n8fJdGmFbSGjA2RnZGAVPI7qJgaJDT7E0RMyKzg3VKUHSEvLxJL6Hr74t/KgvrVifbq85m44GGaZWWNja42ZMWBslvc3YObghncrX7zda+U/TkIIIYQQQgghhBDioerdqwcAS1eszBcYLco/UedYtmIlGCz7sNjZ2lLTwYGk5GSmhH1EQkKiPs/KygorKyv9+5sJCUwJ+4ik5GRqOjhQ08FBn1dWpQ6OmtZ0VSbdd5W5TlVHLywTj5P82y5Sbrtg1/s5ZRHUp3aRkNUMx+d0eYFYD+yI2cUNVKB1rt4DD5A6dWL0q68wuFcQnYN7Mvil0Qz21mRV9+7HWF1e1368/N/RPOdtqVmsXX9GvziCgZ07Mfr/RjP6xf50qG2J79OjGTu8H72Cg+jVdyj/N7xT/vUJIYQQQgghhBBCiIemdatWAGzbsVOZRWDHrgR27KpMZqu2rG7ZqiaoXVuWLvqGJd9/Q9uANsrsCit1cLRadRtlUj5/j3Au16s4Ja2z9EZi512Tu5FbULOAlH8zsPTsgUpZjOPcPBCLZduRWNsBXqE4Nkjg5qoPqMAIoflkZGSwd/9+7ty5Q3VLSwL9NYPj3g/e/t7YGGcQvXM5C39czMI1mzlyBbDw5dmObpjdi+HPH+YT/sNe4nLNcG/dBieD5Z2aecHNGKJjrpFi3QZ/NzNIPsUvPy5m4Y/LWb03yqC0EEIIIYQQQgghhHiYnJ3qAugnXzKk7FavoyurW7aqCZ8ZhmPt2tRxrM1nH89UZldYqYOjjzTfHthZJ5C6fzUA946cJdMhEAdfZUHIXruM+PSGOD47DttnAlFFrieh4PVUYVlZWcqkSpdy9y5ghrt/B/xdqnMvLoroZKCBC07GkHErFbOGvvg3tCQrE7C2p47h8mfWsnDFelb/tpkjV1K5kwPYeNCtnQcORklEn79mUFoIIYQQQgghhBBCiPvH2NiY+Z+F41a/njKr3EodHM2+k6JMykc50VJpX8UpaZ2lZR7QDNMcU6r334Tz25tw7lyL3BwzbPxDlUWBRdz88ywq/1BcXGK5vvwTZYEKMTMzI6hdO2xtbblz9y4HjxxRFqk0l7avZVtMKmpLF3y7DmTsf4fSwQlQadrMmjl50zk4iM7BvtS3ALIzuKesRCf9GL9uOkVchhkOjdvy3H/+j//r7aEsJYQQQgghhBBCCCEekqtxmoZsDd0bKLOKpCurW7aqmfDBZG7cvMmtlBTu3LlLG7/W/Lx4ERPeGoeJNsZVEaUOjmYmXFEm3XeVsk6TD3HwNCPj34OknDvLnXNnuXPuOImXMjD16kF1ZXmAncu4euICSduXkVwJY43qmJmZ0aFdO6pbWnLn7l327N9PRkaGsljJrt8kMQfAGnuDpp7VXeuiG4ggGyAniWO/LWbO/5by+5kk1Ga1aOvvBdpZvtTRmwmfNz/v9eVGzuZVV8CdC3+x9Jv5zPtlL5fSoXrjtsoiQgghhBBCCCGEEOIh+fv4cQC6d+mszCpSN21Z3bJVzd79Bxgw9AVCnh3IgOdf4Nf1v2NkBP2f7ptvkqbyKnVwNP3SGWXSfVcp6wxqhbVJAsnr3uDWhnf0r6SNx8kwaYZtZxflEsBqUhf2Jm71ImVGuVVaYBSACM5ezAas8X1mOM919qdzz6GMCKwFQGLUKeKBJsEhdG7lSzPHatzLMhg19Z8ozmWByq0TL3b3x7+VL/6t/OnWyUsfXC2gli+9Ovvj39wNW1UG2fd/VAAhhBBCCCGEEEIIUQab/twCwLAhg2jq0USZXUBTjyYMHzIIDJZ9WJJv3SIhMRF7Ozumf/gBNWvmzUCflZVFdnY2t27d4pPPPmfqjFn6vITERBKTkvTvy6rUwdHb/+xXJuWjnGiptK/ilLTOkrlg7d+MajcjuKUcNzRiA8mJYFdo1/rKVbmBUY2zm9Zy4HoGmNnj7t0W/6a1qE4G8ac2smK/5oJQWbvhHxxEnwFDea5VLVQZMWzbGgE5Uaxbd4T4LDMcm7XVdq1vi6+LNebKFemZ4dy8LZ279uPFAV1xt4aUk5uVhYQQQgghhBBCCCHEQ3I64iy/rt8AwMypk/MFSJWz1Tf1aMLMqZMB+HX9Bk5HFNef+P7Lycnh/SnTuZmQQI+uXVjz8xJeeH4IKoOu87Vq1mTyuxOYNvl90AZG3/twGtnZ5Z9K3ai2a5NcZWJRPGcfpFoNO2UyaIOj5VHUuKPZt5OJHB+oTH4kNahfH+/mzblz5w57DxzgXgUDo/mYWGJTXXOR3EtNJSOniPycDFJSC67XzNoac2MgPZWUgtkF6Mqr76RyR1qPCiGEEEIIIYQQQlQ5c2d/TGAbfwCWrljJth079bPSN3RvQPcunRmmbTF68PARxo1/N9/y5dHcsxlnIiseYDU3N+OVES/y/OCBGBsbc/VqHLPnzqeNX2sG9n8GExMTcnJyWblmLd8sWszdu3eVVZRJmYKjjv3GUeup+9/SEuDmHwuIXz9XmfzIauTuTuzVq5UbGBVCCCGEEEIIIYQQohAT3x7Hs/36KpPz+XX9Bj75rHLib5UVHNWpX8+VSRPH06K5V77002ci+Gj2Z1yMuZQvvbzKFBytZlGDJtO3Fdl6tLJk307m3IfdyE6/rcwSQgghhBBCCCGEEEKUQguvZvTu1YPWrVrh7FQXtLPS/338OJv+3FKpXekrOziq81SP7ox57VWMjI2Y9+UC/tiyVVmkQsoUHAWwazcA5xc+UiZXqqtL3id5/xplshBCCCGEEEIIIYQQogq6X8HR+63MwVEApyFTsO/4vDK5UiTt+pm4FdOUyaXWfEGUMqlS3Tq8ntgfxiuThRBCCCGEEEIIIYR4Yj1RwVEA15GfYePfR5lcISlHfufKoreVyUIIIYQQQgghhBBCiCrsUQ2OGisTSuvKordJ2vWzMrncknb9LIFRIYQQQgghhBBCCCHEA1PulqM6du0GUOfZ8eWepCn7djLXf50tY4wKIYQQQgghhBBCCCEeqAoHR9HOYl+z+yvYdxhS6iBp9u1kkvasIGHrdzIrvRBCCCGEEEIIIYQQ4oGrlOCoIWuf7tRo2g6L+s0xrelKteo2AGTfSSEz4Qrpl85w+5/9pJ7YqlxUCCGEEEIIIYQQQgghHphKD44KIYQQQgghhBBCCCHEo6DcEzIJIYQQQgghhBBCCCHEo0yCo0IIIYQQQgghhBBCiCeSBEeFEEIIIYQQQgghhBBPJAmOCiGEEEIIIYQQQgghnkhGXXo8IxMyCSGEEEIIIYQQQgghnjgyW70QT7jmjV2USWWnsuZM5FllqhBCCCGEEEIIIUSVJt3qhRBCCCGEEEIIIYQQTyQJjgohhBBCCCGEEEIIIZ5IEhwVQgghhBBCCCGEEEI8kSQ4KoQQQgghhBBCCCGEeCJJcFQIIYQQQgghhBBCCPFEkuCoEEIIIYQQQgghhBDiiSTBUSFEsYKDg5VJQgghhBBCCCGEEI8FCY4KIYqkC4xKgFQIIYQQQgghhBCPIwmOCiEKpQyIKt8LIYQQQgghhBBCPOokOCqEKKCoQGhR6UIIIYQQQgghhBCPIqPark1ylYlCiCdH88YuyqSyU1lzJvKsMlUIIYQQQgghhBCiSpOWo0IIIYQQQgghhBBCiCeSBEeFEEIIIYQQQgghhBBPJAmOCiGEEEIIIYQQQgghnkgSHBVCCCGEEEIIIYQQQjyRJDgqhBBCCCGEEEIIIYR4Isls9UI84XSz1Tdp0kSZVaJz585p/pDZ6oUQQgghhBBCCPEIkpajQgghhBBCCCGEEEKIJ5IER4UQQgghhBBCCCGEEE8kCY4KIYQQQgghhBBCCCGeSBIcFUIIIYQQQgghhBBCPJEkOCqEEEIIIYQQQgghhHgiVaHgaD/GhIURHhZG+Ov9lJkPiBMhoZMInxRKiKsy71FWFY6tKA17OzuGDBygTBZCCCGEEEIIIYQQ94FRbdcmucrEyhLw4ngGNLIGUjm7cTaLDypLGJrEhmP9cAeIWY9X/xnKAvff20uIGOYBQMbZZfgOn6cs8Ygqx7F1Hcj4/3pTC4AEjn8zj+VXlIVEZarp4MDCL+bi7OzErNlz+O33jcoi90Xzxi4ANGnSRJlVonPnzmn+UFlzJvKsMlsIIYQQQgghhBCiSruvLUc92/UiJKQnISG9CG6ozH14QiZ9z4aVK9nw2Uv5M9SQofs7M9Ug4yXmrVzJhpXfMz3EIPkx5vLyQEaE9NSev2EMGOqkLCIqkb2dHQu/nIezsxNX466xZ99+ZREhhBBCCCGEEEIIUcnua3C0qgrwbYF7IzfcGzjnz5g3kdB5q9i4Yh6hU37ISx/mT0AjN9wbueFia7jA48qPMa3c8qV4Bo5E075QVDZ7Ozu+/foLnJ3qcjXuGqNee4Ok5GRlMSGEEEIIIYQQQghRye5rt/oRC7cz3t8KSOPQZ10Zucwg09WPEUOfppkVkPYPa5Y3YNJvRXX9diLgxWHaLvpwL/4Iy79cT6RBXd28HTDjNtEb9xHZrD2j+/Siob7uZRzSdQl3HcaipWMJsAKu7GTCNzuATBJO7eQQunog48Zpth2JA8AzbB2rQ5yANE78GM7P/wJpMZxMd6JlbVMA0i5uZrdBr2LP4J64WwG6bcrLMuBEQPeedA92R7NnkHrxT9YsMizvRED3FtQ01a3Dg+CR/ejTQDtcwfplLNZup16Zjm0hAsPY/HVPXIDYuERcnByAODa+9gwTCh0awYPgIV3o5uWEOalc2Lqehbuj8pXwDB5I92BvXMwK20fw7BfKUH8nzCnknEGBa4C0aH7//QeDY15SftVUFQKj0q1eCCGEEEIIIYQQT6qHExwNHs/qsIF4WhkUzswkw9QUMxQBvGYvsWheKAEOBmUBEo8ye+RrLL4CDPuag2/7YUUikUfScPd1w6yaQdlbR5nd5TUWT1pJRP/8LSI1tNuHrh5IOzKPwNGZLNoxnoDCWovGrMdrsQO7pranJpBx+gd8X1ygzRzGol3aAGziPj7s/iZrFIvDQBZsHU+wcr/QLDO7+5sshnx1JZw9SqqbH+6WhoUrcGyLEPDJOhZ1d4LsKBaHJdBHu4+xf75Gz/eP5ivrMvATvn+7My6aGLFe9No29J2hGbt03pdj6eaqKPDverwGzQDXnoR/NpmQRor8zBjWTBjEh7s1Ae0F34QS7Kgok3aU2R1fY3FJ+flTq4yqEBhFgqNCCCGEEEIIIYR4gj2EbvV+hL+dF7xLi4sh+t8YYu9qg3f5+DF9hjYwmpnIia2b2bj1NAmZgIMfL01QzrzugKe/G5nxmjoTMrXJtt50DwWyM8i4q0sEsjPJuJtJxt00MrLzkg1l3M3Mn5epWyYD1v/J2URNsllDP0bryoT4aVqtAgn/7CwkMApgihmZmv0/sY+NG/cRmajdNof29HlbWR5qNvPDPTOO6H9jiNaVxQqfHqHav8tybIvix/Ne2vFFr0SxfP1RLqRp3rp4PU2AYdHASSwwCIxm3NJsW+ytTO3YrX5M/8wgMJqZRuy/MUTH5R3vEZMmaAOjaUTv28zGjfuITgNM3RgQOh4XIOTt4drAZyYJZ/exceNODp2NIeFWBhmlyK+KjIyMmPvpxzg71eVK7FVGvz72oQRGhRBCCCGEEEIIIZ5kDz44GjKMAFft31GreK7PIPoOGkTPLuuJVhQlZBgd3QAyiVz+MsMmTmbCxJf54aQmWlezaWeU8yPFbnyGQG2dE3bpupubYu0IzHoB36A/89Zz5U98g4LwDXqG0BV5deRZRWifIOYf00YHSePQF0GaZYbPBjbndWm3dCNgmObPgOAG1AQgjhPL1muXVVrGyO5Bmm0d+SYTJr/JcyN3EqvNdWmirczQlc307PIMfQcNou/kffqyZlba5qdlObZFCRmGjzY2GvvPn8SyjEMXtIFY1xY8H2hQdEh73LVxz9iNb+Kr3baeXYJ4bob2/OlahF7ZTGhgV3oOGkTfPl3xHToDGEsfX00kN2Hnh/R9YzITJr9J6G7tMW3kzVCgloW2juwEDn3zJhMmT2Tk8EF0fPpNlpciv6pLu31bmSSEEEIIIYQQQgghHoAHHxz1d9YGDiE6arY+wFcog7K12s/VzDC/ciVDG2ubRpqaUcuwPJCZnTf+5qF0g1ai98mhBfuIzAawoqF/T8CJkMa6lpen+bnQMTrzeAa/xKSwMMLDwpj+dA1ldn7ZGXnH62AaBfauLMe2CAN6NdUHdv9Zr+lCv/BIlLYFphM+Q3rqywY46cYEiOPkN/v06Xqt8rYn9tQCdiuyGeaBi3b4A7NGY/Xnd4GfdqlqZlgBi8/GadZfzYmQuYc5uPZrpr/op58gqqT8qig3N5dx77zL1bhrNGvqwcIv52FvZ6csJoQQQgghhBBCCCHuowc/5ujUlUT004z7Gb2+DX2n6kpPYsMxxaRBBmULFbeTkX0mckg/5qiizkLXVch6dAzq0Yw5qhnIs9D90HNi0vJ1DPXQjBU6YWQir2onP4pe/wx9pyomS9Jrz6Sl0xnazHBw0Dx56zcYvzTf9hayH4XubxFlC9WPBVsn6cdBNRyCwMxS2zozcR8Tur/JRmD62sMMcAOIYY3vID7Ul9Yqcnu0DI53oe6eZmHQy8zHiZD3PmFyfw+sDMaSzfh3PeMGzWB3iflVV1UYd1TGHBVCCCGEEEI8iYzNa2Dt3YXqTdpg7toMUwdnqllqJvnNvptKZuJV7l05y51zh0k9tYOcew+2159KpaKOoyM1HRywsbbG0tISE5UKIyMjZdHHRm5uLllqNXfv3iUlNZWExESux8ejVquVRe+rGmY59Gpym3b102numEE92yxszLMxfnwP/UOXkwsp96px+ZYJZ+LN2H/Jgj/P1eB2xv1v13n/16BkcD2bWvgZ5hSkL5vI7slt8PJVvPpM5FD+JR6COGbsOK1puejQgB4ve2iCkNlRHPq+qMAouEx4VR8Yjf1zNqGjX2Ps5Lxu9eVSlmNbmGG9aGUwQZSZpan+pefQlD66oV716zPFxqC7vV5J22MwlmvkskLOb9DLzAcgjo2zXiDQ/wU+XLRTPzarWaN+jHm7NPlVV1JyMqNee4OrcddwdqrLt19/IS1IhRBCCCGEEOI+MndugvPwGTSbcwSXl2Zj134gFvW8qFbdFoyMwciYatVtsajnhV37gbi8NJtmc47gPHwG5s5lb1RSVtZWVvh4e9O7Rw9a+/hQ39UVWxsbTE1MHuvAKNr5OUxNTLC1saG+qyutfXzo3aMHPt7eWFsV2bSq0njWzmBOn3jOv/MvXz19nWE+KbSsew87CwmM3m/GRmBnkU3LuvcY5pPCV09f5/w7/zKnTzyete/vjDIPvuVo4Cds/rqzpsvzraPMflE743yzMDYv7alJ17VuDAxj89eatLQTC3hp5A9EGtTv2cyDyLNR+VogltxydCyrjwzDsxoQv5PQpybmtSwsouVoyNw/CA920Ix9+uMgnpunDHrmtbjMuJuJmaWpYvb6gvKOTRwbn36GCVcA1zA2/6bd3/K0HC3LsS2E4fk6sSicny8aZLYPJbyXZriAhH0z6PjG+rxZ7YG0Iwt4abTu/Djh4hpHrHP+7Zn/+mss1DYudHF1IvZKT5btDcXHUjMm6YTXJ7Pxin6NuDTzgLNRoP1XHzg2OE7R69sQurL4/AItVqugh9mCVFqOCiGEEEIIIZ4UdQZMpGa3kfr3tyP3cTtiD3djTpIZH4P6zi0AVNVtMXV0w9KtJTW8OlDDs71+mYRti7i+5hP9+8rk5elJI3d3/fubCQnE37hB8q1b3Llzh8ysLHJz71sY56HTBUerV6+Ona0tjrVrU6umbsA++Dc6mohIw8hQ5ZnS7SavBT6Y7+Gi7L4+aMe0bcrBNSvHg285enAe26K03bVt/Ri/di/H9u4lQhe8y1d2gb6slU8oqw9qyh7bu5djRw6zesZA5RKl8A83Nc86cOzMgiN7OXZkO4sKmf9IZ+OVBO1fpni+uI6Ig4eJWDvJoMR6tv2jmbZe08oyk8i9RQdGAbZd005zjxPBX37NgoUr2bWqkGNQFmU5tgW8RHcv7a8wd2M49OVmNm40eK0/rQ8+1vTuxQjg0Jc7idSuzso/lNVHdOdmHQteLrg9Y5Ye1uQfPMzmeSOBH1h7VHscXHsSrt1efZkFY+kGdBv7NZuP7OXYjnVsWLkyL9BLIrHHSs5/FCQlJzP69bHEXr2Ks1NdOnbI++AVQgghhBBCCFEx5s5NaPjeWn1gNGn3cs5PfYqY+SNJ2P4Ddy8cQ307CXJzIDcH9e0k7l44RsL2H4iZP5LzU58iabdmyt+a3UbS8L21ldqK1NrKio5BQfrAaMylS2zftYv9hw5x4eJFkpKTycjMfKwDo2i71WdkZpKUnMyFixfZf+gQ23ftIubSJQAaubvTMSioUluRetbOYMvLlyUwWsW9FpjMlpcv35dWpA8+OEocsyfMY1uMNmhWTdNtO+3fo0TqJoXPVzaM5We1GaZ53bzNqkHazavKBUphMzOX7iNWN5xmNVPMqmWSYdDFu4DP/pe3DQCmgDr/yViz7Ghey8W0U2z9Nl92AbFT57HmX23g19WPYH83rBJOE6mLmZZLWY6twqggPC21f185pe3ObuDgb/yjazBr5U33UcCVeYybuooT2m7suvWZVcskNZm883ciUTuhk7arvilkpGk2aM24cczfF6c5/rrldWUSE7kJ3LyRSAammNk64d7IDRcrIDuN6I2LmLm+5PxHRUJiIq++8SZzv/yaX9f/rswWQgghhBBCCFEOlo38aPDmUizqeZF++QzRs4cSt3wqGfHRyqJFyoiPJm75VKJnDyX98hks6nnR4M2lWDYqZAi5MnKwt6d927bY2thwKyWFPfv3c/LMGW7ffrBjnFZVt2/f5uSZM+zZv59bKSnY2tjQvm1bHOztlUXLLMA1nV9fiKVl3XvKLFEFtax7j19fiCXANV2ZVSH3tVt9SVz8O9OytilpFzezu6Qeua5+dPN2wAyA20Rv3Jevi315eAb3xN0skZNbDQKbxdFuQ2ah2xvKsr0v4WOZ1+28NDyDe+JuBRk3TrPtiLK7fvmV6dhWhmbtCWlQo5hz40FwiJtmyIJCtykvHzJJOLWTQwZd7CueL4oi3eqFEEIIIYQQjytz5yY0eHMp1arbkHJ0E1cWva1pHVoRRsa4jvwMG7/eZN9J4eLnw7l3VfvdqIysraxo37YtpiYmXI2L4+8TJx771qEVYWRkRGsfH5ydnMjMymLfgQOkahtflZVn7Qx+fSEWO4viWsuJqig5vRrPLnEh8oYmSlhRDzU4+uhzIqB7A7jlQPfXxzK0hRWQyLbJTzF2o7KsEFWTBEcfVR4MfncEATaQdnIxYSuiDOdAKyU7ev/fW3RzUaGO2UTYwj2U778VQgghhBBCVE0N31uLRT0vTWD0+zeV2RXi+vLn2Pj1Jv1yBBdm9Vdml0rHoCBsbWy4GhfH0ePHldmiCH6tWuHs5MStlBR27d2rzC6VLS9flhajj7CT18zp8X09ZXK5SHC0QgwmS9LKiFpGv6HzStcSVYgq4JEKjoZMYtmL3lhr36ae+p5hMzYrCgG8xLyVT2kmLCu23KPL/qk3mRRcGzIvsDbsO/aqwTl4OAM8Sx57J3b/Atae1r6p149JoW2x5x6RK2fy7fGyh1iFEEIIIYSoinSTL6VfPsOFjwdWvMWokpExDd9dhUW95uWapEk3+dKtlBR279snLUbLwMjIiOD27bG1sSnXJE0y+dLjobImaXoIY44+ThJISEzTjJeZmUbCiVVMniCBUSHuG1snGjZyw137auiaN2thfs76MsWXe0SpfBjQujYASSe3sFcbz7R2qoebW8kvFweDui5v4q9oNWCOZ4cu2qEphBBCCCGEeLSZOzfRT7507ZeZxQZGLd1b4TRsOg3eWornp4doNvc4jaf+icvITzGr20hfrvmCKJoviMpbMDdHU7d2kqayTNBkbWWln3zpdESEBEbLKDc3l9MREaCdpKksEzR51s6QwOhj4rXA5EqZoEmCoxWymQn9u+Lr3wavwK50HDmbjTLOpRDiPlMFtcWzOkAcx7Zf1qfHntzDth07C32duqkrlUb8Nf0igJq9Ry+QDlDXh96V0ytBCCGEEEKIh8qh839AOyv93ehjymwAjFQm1Ok/Hvd3lmMfNJjqjf2pVt0WYzNLzBwbYOvfl8YfbsR5WBhGKlPl4gDcjT6mn8Vet87ScG/QALSz0iclS6CuPJKSk/Wz2OuOZ2mManNLmSQeYZVxPiU4KoQQjxQrenhrI5jxF9iTkpeTFrmHTVu3FHgdzGpIs1oAaRz7KZxfDH7sBuD4CWLuAdjhHeylyBRCCCGEEOLRYmxeA7t2AwBI3PGTMhsAo2oq3N9ZTs3ur4CREbcOr+fywtf5Z2J7It/yJ3r2EG5s/BJ1yk3sggbRcOJKZRV6unXYtRuAsXkNZXYBKpWKei6a4c0uxMQosx8+i7p4t/LFv1ld7aTYVZfu+NVzcUGlUimzC6hhlsPQlgZfosQjb2jLFGqYFd0yvDQkOCqEeAJ5MOD1MBYtXcmGlSvZsHIJiz6ZxJh+HsqCAHj2C2X6F99ry65k2ReFlXUioHtPQkJ6EhLSmQBXbXKz9oyeEEZ4WCia/54Brn6MmPA5y7T1bVj5PQvCxjPC3ymvuqKo/GhUV/Nn0sUTJU6gZN8plHd71kNFGpGrF7A0srAxRU8QeUWTblGvOZ7KbCGEEEIIIR4h1t5dwMiY25H7yIiPVmYDUDvk/7Co3wJ1agIX575I7A/jST2xFXVqAtnpqdyNPs6N378gevZgspKvY+5S9P+SM+KjuR25D4yMNesuQR1HR4yMjLiZkMDt27eV2RVQiw7Pj2bsf7Wvl4cz+OkQurVywaYs0R8bD9oGB9E5wAPDEbmqotu3b3MzIQEjIyPqODoqswvo1eQ2xkbK1EqUY8zuPbb0m1sHj3DNK3iJJaeU5USlMTbSnNeKKMvtIYQQj77g8azetYTpI3sS0Ew3LqkHAd37MXrqEjZMMijrOpB5v+1l9dSXGNC+hX4MU5/2mrK7vh6G5vdegM6MnhRGeJjmNaaPE0M/WcexpZ8zZogmYNoScHnxc3at+prxQ9rjox8XtQXBIQMZv3AJi4YYrL8wLeqj+ci/R/zlOGVuPirPwYztWQ8VamI2L+Dbv4vurnPyWpLmDysnGtsoc4UQQgghhHh0VG/SBoDbEXuUWQBY1G9BrV6hAFz5/i3uRB1UFgHtGKNNZuzAxK6OMqsA3bp06y5OTQdNyDH+xg1lVgWpMDMzw8xC+6phT323hvgG92f0i51wuo8RIN8BY5gwdgTdSj5UlU53HHXHtTjt6qcrkyrPPTPGz61Dvz8t2X3TmPg7wB1jTv1jxnVl2Uq0ZbUTth/U5stEZc6To6Ln9T7eGuLx1J5JC7Wt3b4Yi48y+yHwGfUJq7Wt/8KHKXOFMNSPBZMHUuyE7vqeGO2ZPm8s3VwNxhbKzCQjM+9tzcBQ5r5dWGtPUzyHrWRSd6f83VBcxzI3tD01Cx+uSKOaMiE/53q1sQAgiau6GecLofIczOT/+GCFmpjNc5j/V9GBUYC068macUexx7noH8WFEEIIIYSo8sxdmwFwN+akMgsA+45DwciIpL2/cOfcIWU2AEbGhf/H/PY/+5VJYLAu3bqLY2NtDUDyrYqPlVi4VI79Mp/wefMJ/2EjZ1MBa2+G9Fb0fjOxpL6HL/7N3XAoVf/5alR38cC/lRfu+RaoS21bABXmVtbY2Frmfa0CzBzc8G7lSzOX/OmVRXccdce1OM0dKz55T1EOb7Pj20TA4Q4r373GrWnXiZoWx62wZHoA5BiRkmZMivY75b27eX8D3EsxYcsZc3bHG3MvL1mTd9eYqGhzNpwx51SKYdNXFae0s4LfumtMfFr+ZYurU0+7XfF38+q9p60rxaDjoa6uLVer5Us3zFOu5949g21SF9y+ylLR83pfg6MBL47Xt6Ka9KKfMlurvUFrq/GMCFTmi6rE5e1X6e/vhnsjJzJiVnEi33ku6vw5MXRsXou68QMLCybBgNcNWt31U+ZquQ5kvLaMrpvyiW/3cdNO0/ovZMTneV2XhVAK6Uwz/Y+JmUT++AJevm00r+FvMuHL9Rw6r8l1mfAqA9y0UczsOLaFv4BXYBC+gc8w+4iuM7spnp3HEqCr0oCZpXbZzEwy7maSkZkBg/zw1AdG49j2/jP69fccPZEZi/7kRAn/P3K00YRGUaeTWlgPeQCHzrw2xEcz8/y9NHDpQu9AL+zNlQUNpKShqU6FtV1x0WMhhBBCCCGqNlMHZwAy4wsfz9OsTkMAUo9vUWbp5eZkcybUo8ArZt5LyqJgsC7duotjaWkJwJ07d5RZlS/1Ar/vv4AaULk1Qhe6re7dj7GvvsLgXkF07tqPl/87mue8NdtVKEtvnnv1//i/AT3pHNyV54aPZuzT3lTHm8FjB+JdA8CSZr1HMPrFXngDGNel24tjGDu8H72Cg+gz4BXeug8tWHXHUXdci1PPNkuZVElMWXXEGMhl1DMp9LDKzcvS7W9ydXp8XIf6v1rx5f+cqDOzDj0OVYMcleZ9eC0GLben3/w61PlfDaK0w2juXqcpG/C9PS8styc4vC4em0wBc0Z9UJsZNwFUfPq/Onh8bMNuKLHOfLTb5fFddTTTW1Xju+/q4PFxHd75F8CYLWvr6Osa9LUj9b+uoSlbwnp2/14Hj49rMmOPLR5TDLavklX0vFbyJZmfZ7te2vH3ejJ0VCijlQUAl9CRjO6vG6evF8GaZ5R4IF5inna8w+khyrzC9OODXh6alnCJR1j+maZLb955LuL8uY7k+Rd157gnI/obdkXO07JLXpnRL4cVGnAKfn0YI7RldN2UYT2Lj2i7Fzu0Z+iEwoOvQmBlZtCS0xSrmm551+LZfWxcNIMZyzRv/+uX96tqwsFFjF2hm8UojsU/HEX74xw4OhGsL2kgfh8fDm+jCagGBeEb+AIfWhj+umpFTde8IGTskZ0s/3I28zcaFCmEfXVthDM9jSJ7TbRoii6ui7kdbl5+dHt6OJMmv09o93qF/1obnaSvz9KmdPeQkfeH2Pb9FMv6ypzCmQ3aTtMFUTRfEEWj/0gzbyGEEEIIcX9Us9S0IFTfKbzlgVltNwDSLxbesrQ8dOvSrbs4JtqJgzKzKhbQKbXLNzT/169mh4MtYOHLsx3dMLsXw58/zCf8h73E5Zrh3roNhX8TMMO/byfcze4SvXUx4V8sZmdcNmZuvrStE8uR3VHa7xIZXDq+l527j3EJqN81BF9bSDy+nDnzvuKXs6lg602H5sr6K0Z3HHXHtTg25tnKpMqRbMohNUAGbQoLeBg6ZcXsnHu84H+X7nYQtcOBSVcguE8812de41A3NVyx5tNzmuK2TVNYP+Y6Ue9eJ+qdW/QA4vdZsoVM3hh6G81ADjkM7JPEkqG3aUnJdZZJsiUz/jaG+qkcevc6Ue/Gs/vZeziWej0qvtxmhof3XV7wzsTWMKuSVPS83tfgaD6WLegzVdl6tD3jQ1pU+dnPHlvD/AnQjnnoUpqrc9TTBGhb3SVE/MkaZX4RAkL9cDdM8PDnv7rJaori2o7RytiJayij2xf+qD60YB+R2nvBs31ooYFVIVhxhAt38966hISxecdKFk0aljeBEgDDcDEcy9vaX9+qOTwsjPCQmugbYVYz07TQVEpPZM1ZRdq2qLygKlb4hC7h2B9LmPd6v8qdBOnfA2zbsZP1K79j8W872XYkiqRMwNiKxl1G8VpwoVtcZqZ+fXHp3Rf7Um38RByCXFBlxBK/aQPxJy4oCwghhBBCCPFA5GZr+kwZmZQ+GqGyqUXzBVE0/WSfMqvqS8/QdmVWYWYCNHDByRgybqVi1tAX/4aWZGUC1vYUPmRoI+rXBjJSuGXWCP+WjaiRowascaidRPTxa2imw8kg8dwxjhyPIZFaNHaxBFJJvONKq1YtqV1Nc9xtHbQzzD5OckDTsTsXm+KGUQNwTGX3a0l88cwtZjSHreeqAVl4Vzdh6xkzzmVoml2euqkZ2sG76R2CdT0gzbJo4whgBOTg3TwTTVuVHFo2uUff5lk4Uq3EOsukerZmHZdq8MYec+LJwdtVjXkZ1jNwaDzrB9/ii8F3tMHcquXBBUcB9/bD8nd5HjWSDoXHujRc/eg2Mq9rfnjYeEYHK8bIcPWjW0hPQkLaa4IL+pmhwwifoAx4lLJO0Mw8bdhd3N8JmrXXtFjs7leg5aNnv1Cm6+ossN68WayDm2m2YcDrkzRlJ4UyQNuu3cW/H2O0QwxMLypY0iyvjH67DHgGa9bTzd9Js97+uu0qOLu2Z1MnfVDHrKa2NWahx0JjTJC21ShpXDiyWZldBD8GeGm3MS6OBADcCAhVBsqVrAjoMz7fcQ4I7YlPUa3kryzj7BXt364teL7Q7v1C/MDEb4+SYPijkq0bAf3HsmjtdjZ89pL2vmtALYP4Yc0Wea2aNa8W1NRl3k3TXtelcHAyM9fHaD80NcwcPeg2chKrD/7Bsvd6Fni2lEvsCTZt3cJfxy9w6uAWNq1dzIywxRxLA1Dh1qYzJXf2KSsXjJz6oqrVDEwCqdZkHJY+HckbtcYaYxPg5lmSj+/ibow2TGwSSDWfD6nu05dq2hEDhBBCCCGEqIjsu6kAqKoX3gro3pVIACxKMT6ojoWrFwDplyOUWWCwLt26i5Ol1gQJTU1MlFn3h1MtzfeXnCRu3AS0LSzNnLzpHBxE52Bf6lsA2bogqlI1qhkDZnXxDQ6ic3AQ/i5mQDYZRQ71qGvFaU2TIM0ynT3sAVBnVO5wArrjqDuuxUm5V47gYGlYaQOImHDqpjKzBGoAE778RdNt/oU9muiqo7mma37UEXttl/Q6eMysxYz4/IsXqoQ6y8Q0nS9fTaWvjTGH99kS/HFdAjaZkUIlr6cCKnpeH0xwVBeIyNfl2Y/wPtpWo4W1fh3yObt++5p5rw80CEgMZMzcJez6wqBJYfBIZmiDf2ELV3LsR93M0D0JGTKWRT9+zYiy1kl7Ji1fwqKxunIDGb9wJbu+/EQb0BxJN11R156Er9TOZq2rc8hYFq1ayXR9X1uDWaxnLGHzqq+ZPrKfpmz/l5i+aB2rV25n88JJ+iEGBoycxLKVkwxaQDoREraSY0vzyui2a8PU9vpSQ8dp1jNv0iSWbV3Hokm67erH6Knfs2GSHzCQRTsOszpEdy6s8HlRu33jBurrym8gPrqJabLjiNR2PS5R4EBaagPFkTsXcVbbb9fF6+miW3fqrgePLnygH3v0JcYEa7e3sOuFOA5d1nUKdsJdf4LEE8nVjKJ+rIv98TU6vjibNUdiSDO8lqpZ4d45lB8WheJCGhmGebpxQwt7JSZQljaQu6cOot/7P7DtbGL+dZg64DMwjO8/yrufC6MubIyY0lBHceicdqxUB+eCP77YWGgnegJK8Z+KgnpQc+ynNH3vW9xn/4jnm6G4j/6GpmMmAjNxWfCcpvuESw+afvAp7s/1AO9vaDD7RzxHD6PB6E/x/HQfjgHyy4YQQgghhKiYzMSrAJg6arrPK6XHaoKjdkGDlFlFcuj8AgD3rhQeHNWtS7fu4ty9q+nOVr16dWXWfWCJb9umVAe4EUsUef/fV0dv1kzapHt9uRFl5zeNbLJzgOwYfv/CoPy8r1inG32sAN13iiSO/GS4zHy+319yALksdMdRd1yLc/nWfQpIm2bQ3RVAxRe7zDWBw9JSAWQye0Ict2bmvdb750CmBZPXmRNvdZst0+K4NTOeGYa9HItSXJ3lYON6myUT4rg+LomBdhC1z5olyZW/nvKq6Hl9MMHRu0fZrb1hPLuP17QeHTaSYFeANA4dK2SQ5GpmkJlG7L8xnNi3mY37okjQzuJVM7AX45XlccDT343M+Bii/43Rl8XWm+6h2r9LWafL26/S30PbbCwthkNb93EiJg0r24LhlhGTJhDSyBRII3rfZjZu3Ed0GmDqxoDQ/C0fAazcPKiVrNnGWP2cLk54NjAjLS6G6H/j9AEbs0Z+eS0gh01icogbZkDav/vYuHEzu/9NA0xxD3mVSYW0kPWxSCT63xii4/Imj3EPHEgAaII6hQZ/ivrZx4Nauh/dbiUU8cAsKOBZD+0xiOHsyvUcitZui2sLBhQVA7myj92JAA4ED9Ucw4CpT2lajWbHcOisbn/y25iQl17Lqaggr3ik7U7M9yFjZe1U4B4DoI8TtQzeptxSfGKfXcWHowcR6P8CHy7aqblntax8OvNf4kg1SIvdNU4zbmhhr6cnUsIwoQXE/rmAscOfwrf/a8xee5pYgxkKXQKHMdSwsEJ8inbDrOzL3Prz+h3NfPSFqmOFrmF2YkJZwr0KFnDr82c589YybmVBNedmmLGMazO3kAYQu4V/Zr5D9Oqb2PbtSHWzVG5++yxnwjaQml2TWs+NyxuyQAghhBBCiHK4d0XzjdXSTTNLhVLynhXkqrOw9ulOjaZtldkFWLfsSo1mQeRk3SNp7yplNhisS7fu4qSkaoKDdraFt2ytuOo07NCP557uz8v/fYVuLtUgJ5Vju45perH9E8W5LFC5deLF7v74t/LFv5U/3Tp5YYNBg6QabrQJ8sCJCM5ezIZqbnQf1JW2rXzxb+VL286d8LYFSEXzVcMaj4Ag/IO8qc9NjkclAfb49+9HZ+0y/kE96VDPYFMrge446o5rcc7El34ohbLJYdRTd7ABUo7bUz/cgVHrbHljnR395jpoZrEvVDYD/TMAU8b/YMu3ZzQz0m84ZMWSa0CGkaY1b3o1LqUZcynaki356sqmvhWAim93VWfDIXNOlVRnUeIt+PK4Oav22PCtYevUZHM+3WPBhnMmxOdAXmisnOu5Dyp6Xh9McBQ4tHyfpuupgz9D327P9AF+mi7dV/azsLCDtuw1OgZ2peegQQx7YzIT3niBYVu1k+5Uc8JTOR4lELvxGQL7DKLvoEFM2KUtiynWuqh6qep04r/tdd3H49g4cRAjJ77JsP5LOVEgJjeWPr6aIGrCzg/p+8ZkJkx+k9Dd2jobeRcMcsSsx/cpzTb2XHRUEywA0o4t0G77M/xP0/cVsMJKO8HR+D7a4xW/kwmD3mTC5MmEvr1fM35hNQ98lD94pR1ldtBT9B00iL59VnNC9wOKlRWerCK0TxDz9etJ49AX2kDP8NkGlRgIcUA/rHRaYimDQT0Z4att7Xklio1XYPFRXZdiJ1o+W1TX+kRmbtUGszy68EG/YYzurPkVLuP0H+wuvJ0/XEzQH0/T6vpOz+JxcmUv0YYfBB69mD5KOdTGMBYNNBzLOJHofUfzFckTxZovJ9L3m7x7ERxwGbKKSIMPA5fAkYxQ/gBRGa4cZfGMl+n5p8EPRLY1C7bqNBAZl6z9yw6HfIP5lkRFSxdNNxbupZOkzK5rrx1mI434y8rMskhBfekspMeSoY/FniU7NlXzf6ysVNSxG8hODaSGC5B6llvHzkLcXG7FATVqYWGXr0IhhBBCCCHK5M65wwDU8OqgzAJt684bG+YB4PLSp9Ro2k5ZRK+GZxBOw8IAuLF+HllJulhDfrp16dZdnIREzZcax9q1lVmVpBo2Tm64u7ngYJbNncQLbPt5Mduua7Nzoli37gjxWWY4Nmur7VrfFl8Xa01DhZunOHY9G4ytadLKg5rA2U1rORCfgZmjFx20Xes7NHfBxgQghgN/XyMjB6q7+dK5lRs2QOL+tfx+/i7UcMNfu0znVo1wKGq4vHLSHUfdcS3O/kv3cSyv+imcejWVvjZAihmrjliy5IgFuxONio2+Ofons769Gm5aMn65tnv6+hqcugNYpfO6fw6oLRj1aR1arjQB3fijAGQxqrdmcqRLf9vwwnpzrpdUp5JDOq+4Apjw7Wp7Rv2dw0Bvw5af1diyxY4XfqxFy/n2fBsPbXon87pdGddzH1X0vBZzeirZ+tlo4l2meIZMp4cbQCYnfp/MIWVZPQ+C9eODTqJ/CXOIZGbnPaQOpRs0xcqnpDo746K70NLiOHtQkW1omAcu2mENzBqNZcPKlWxYuZIFftrAXFETteiUuufqMDx1PeDNPBivXc+Gz/z0rePMil1Rav5WouVhazjLdyn160Uz7bGM/ec3zXn+9iiR2kCti+8wQgzLG4gNX6VvPRowbiQBVgBxbPvmB2XRQplZ5XtaiMfGZhbvM2xpbkVA6BIO/q69J1au4+DasQQY/gAbs4/F67V/D/ucXTvWsXrhJ0zXD6/xEtOf8si7V7PjiFwBs3eczhsb1MqP8UtXsuiTMCaN7MnQ1ycRHvYJi5au4+DSgu3YizRpCQf/WMmyLzT1aIbhCGVBK4OxgxOvFvNMBM5f1QY2rXBpmH82Rs92nfF2tCpkNnpzGoeE0s9dk5N+4QjHFCU862gjkuobXI1WZN4XqeQUMTlntmY0dyGEEEIIIcol9dQOyM2hhmd7zBwLb1GQsG0R6TGnUFnXxG3sD7i89CnWLbuisnLAxK4u1j7dcXnpU9zGfI/KyoH0iydJ3PGjshoAzBzdqeHZHnJzNOsuwfX4eHJzc6lVsyY1atRQZlfANbb9kL8Le/gXX/HV0o0cU8YN4w7w4//mM++HxSz8cTEL/zef8KUH0LQRSeLIL19pl1/PKYCca+xZsZDw/2nL/7CQ8C+Wskc7vmbi36uY98V85v3vq7xluMvZTd8R/vV3mmV+/I45X3zFun8MtqOCatSoQa2aNcnNzeV6fMmDcf55rgY593E4TF3381tTtLPLf3CNW2EJjLIDHG5zaGYct8bc1o5PqpNDcO8b3JqmXebd61yfeY3ZjQBy6fHMda5P1qa/m8T6MXHcmplMD+3Sjt5JRM2M4/qUa9yaqZnNvvg6lbIZ9eo1Lr17najJ17g17haTBl/n1sw4vm0K2N1hS1gc1z/Q1HNpWhxb2usCWsWvp8dzmm723zY1XF/lysnVnNeKeHDBUeKY8bu2dZatlbbV6E7mf6sspxU8ntW7lrBAH8Dox2jdmJPldT/q1LJy1cz67t7IDXdHbRvjskzUUlq2TnnraeSgDVhmklryM6BibmXkm0SmNAZ0b6qftMal41yO7d3Lsb3D8NRFWR2a0qeo6Cjr9UEwM1tN2CrjxG9MKC5YbSAjTfnkF4+LQ1PnsTwqfzNuKyfdPeGEleE4zJkxrJk7wyDYaIaZrROe/p0ZoP+RJJQBzfJ+XUg78iezAb6dzPwjhv3t3Qjo3pOhr4cxaWQ/QkI6E9DMCSvLMvxsoDLDytENn/aaejQTuL1EsG48XzKJ3rWs+JbZ105wXtt41NHVP1+Wc8sejBj3PuEzw5g5ZQITR4cyZtwEwsOmEBrkpAmaJh9l6QrlOElOeLpojoH6cgSlvM0qaBd34wHrZjh0HoYqYCa16wOJF7hbRNBUCCGEEEKI0si5d5vk/WsAcOjyH2U2ALk52UR/9jwJW76D3Bxs2/Sl3qtf0zR8Px4f/UW90V9i26YvuTnZ3Nz8DdFzhpGbU3irI906kvevIedeyb/0q9VqLsdqJiht6Fb4uKgPSkZqKim3Ukkp7Rf+DG351MIXyCisZVbWXc0yt+6Wvo1YKemO3+XYWNSlmDvhdoYxy0/aKJMrn2kOjlY5OFqWIRKr0i5jlVNgqDFz88LTDZmbFrKuYurMLxcbq5xiJ1Iyt9TUY1OwNU4Z1lP5lp+04XZGxcKbFVu6rJYtYou+0VdxrUadmBQ6EE8rTSuujeFvMnL0RCbousCXS2nrTCBD1+i0mlleV/LCGNzzkcva4OWreAW9zHzD8uWWmbeuqGUF1+MbxLAFikUq28ZE9KN3WDkU2eIzzzBCvA1ab5qaYmapfemDVw4066WfcamAQ1N/45A+NlWKVqMNaupb/2XeK3msEfGo2seMoa8xY6NiQiWFtH83M2PkID7cbZB4IYoL8UW1Ks8kdt8CXnpNN9tYHItHv1D8erLTSLha8oDreuejiL6lTNTKTiNyVRihM4oaAkDnMof+1URHVQ28CDLIuRp9maR7gLEKC3M7HN3q4eZop5mMMuce8SfX8MmcNUQq/89Q10/bylvNxYgjlf4flsId5NY3y0hKtcZ+0Ic0HRGIeUYscSunP6D1CyGEEEKIx1nizp8AsA8eiqW7rzIbgFx1Ftd/nU30p8+TtPcX7pw/QvbdVLJvJ3Pn/BGS9qwg+tOhxK/7jFx14b/gW7r7Yh+sGVBPt87SiL54EQC3+vWxt5NxpcrD3s4Ot/qaNpi641ka3x6+X2O9ioehMs7ngw2OcpQP+xsE9IpqNUpn3HUNOuNOM3/FPg4d2cnJomIapVLaOjez7R9tq0PLFjz/43iGhvRk6Ot+OCvHxVhxhAvaLuKewWGEKMYkdGmmm4yoolZxKEa7oY06E95L0drV1QPPcoyHeFM/9IAZ1jVLakEbxU1dUMe2Js0UuQUMa4+uMV7aiR+YMHmywWuzZqxUoGbTzpoJugq1jJEdddfLMyW2Gg2pmdf67+YVXYBLPJ6iWD55EIH+zzBy4mwWrt3Mxo2b2bhxPQvDJzLy6TYEDprMcuVY6AfnMeypILyGv8mEL1dpl9nM8i8nMvLpIHq+8QOaeSt14gpdz5pFs5kw8TV6+nel4xu6oL3h9doGr/4z8tWkKTKZvl3a0HP0RGYsWm+wzW/ynH9XnpuVd28UJ2b7Ca4CqOrTol3ez3aRmxcwY9p7TPjocz5bup5tO3ay7Y9fWDA/nA8+mMYnK44SX0jk0a1tU+wB7kSxb38hBYqQscifM6EexP4JsIibEz04E9pb+0OK9v3EF7Wtzj8gNtSDM+Ef5FVwczpxE7sSEfYO/4S9yJlxXUk6VZojIIQQQgghRPHuXT1HwrZFANQd/AEYFR3+uBt9nLhlH3JxznAi3/YncnwgF+cMJ+7nKaRfPKksnsfIWFO3tpv+vavnlCWKlJqWxr/RmvGsWnh5YWRkpCwiimFkZEQLLy8A/o2OJjWtwCQxRYq8YcbXByUg/Tj4+qAdkTfK0JuzCEU/HR6qncTqekW7tuP7hZ+zaOUfrA8pKYBXnNLXuSZ8KYe0gUCrFgOZFBbGpJHt9eOL5vmBtUe1lbr2JHztXm3X8b0cO3iYzQvG0k25SDktXHdE00W/mhMhH63LW8/evUT89jXjg5VLlGzjFV2nf1M8X1xHxMHDRKydpCils4oTV7TB1CImxDI0uqu3thVnJheOLNAHoTSv3zh5RVvQwZuQEuoqHScC6ulaqsYRvU2RLR5TcRzauor5M3SB9xnMX7GTQ7rrqyhn97Fx0Wx9wH7GopKWyb+eD79cxcatR0sVyCxM7JGdLP9yhsE271MEZUuQsoND59WAisbteqPsiKNOu8HViANs2rqFTbtPcP5aMkXOU69qy1MtNf8xSDq9Wzs20IMUS27cBtRxJfz6IYQQQgghRBldX/MJ6ZcjsKjXHNeRnymzK8x15GdY1GtO+uUIrq/5RJldoojISG6lpGBrY0NrHx9ltihGax8fbG1suJWSQkRkmb5NATBtWy1OXnvQHcBFZTp5zZxp23Qz8VRMFQ2OxvHh3PVEZ6KZdMS/PQENrLh5IqoCY3iWoc4ryxj5+mw2nk0k7W4mGbfiOLFxfSGz1cOaceOYvy9OM+FRNYOu46aQkZiIdmziilv/Jq8u2EestqWqfj2WpnA3kYSiuuoW57P/sfyswU6ZAurCxw0BmL83StsCzIqG/j2V2QZeIriJdgzF7IucKNDl/yhr/tENZ2CFT9eXFPnl4DqMZrrWs1dO87PEWcRjTc3e37SDpTv481RgYYO+lI5bSAcamwJpJ1izsULT1AshhBBCCFHlXP3pXbLvpGDj1xvXlz8vtgVpqRkZ4/ry59j49Sb7TgpXf3pXWaLUjp88SWZWFs5OTvi1aiUtSEtgZGSEX6tWODs5kZmVxfGTxbTsLcHYDY4kpxdoBSceAcnp1Ri7wVGZXG5GtV2bFD3a6kPnQXCIG1ZkknCqpJZdpVXeOkNZtvclfCyBK5vp+fRkRasxXb1AmesuG8/gnrhre5Bn3DjNtiPKcVPLyNWPbt4OZF7czG5lN+R8+rFg6ySCHYDEfXzY/U00Q1w/fC4TlrB5iAcAkSue4bnwCh6TJ0jzxprBH5o0aaLMKtG5c9puIyprzkQWe/GI+8DeqwOBThZw5wI7918ounVokWrj28WHOtUg8fwODsWUvku9EEIIIYQQjwrLRn7Uf/VrqlW3If3yGa79MpO70ceUxUrF0t2XuoM/wKJec7LvpHDpf69x99+S5g0onoO9PW38/DA1MeFWSgqnIyJIStbOwir07O3saOHlha2NDZlZWRw+epTEpCRlsTIJcE3nx0Fx2FkUNdGEqGqS06vx4konDl2xUGaVWxUPjj4kIZNY0CuDE38e5cSpnVyt048Rr4Qy1F/TbTv2z9fo+X7FHn6PKpe3l7B+mAdmZBK5bBDPfVYVgpBVN2j7KJDgqBBCCCGEEOJxZ+7cBOf/fIxFPc04lUm7l5O44ycy4jXjfpbEzNEdhy7/0U++lH45gqs/vVumcUaLY21lRauWLbG10cykHnPpEhdiYrh9+7ay6BOnRo0aNHRz00++dCslheMnT5ZpnNHieNbOYF7feFrWvafMElXMyWvmjN3gWCnjjBqS4Ghhhn3Nwbf99DOfG8qI38n8pyayWJnxxGjPpIVjCbAD4vcx+Y15nFAWecB8Rn3CpO4NMCOD6I0TGftjVQjYPjokOCqEEEIIIYR4UtQZMJGa3Ubq39+O3MftiD3cjTlJZnwM6juaMetU1W0xdXTD0q0lNbw6UMOzvX6ZhG2LyjXGaGl4eXrSyN1d//5mQgLxN26QfOsWd+7cITMri9zcxzeMY2RkhKmJCdWrV8fO1hbH2rWpVbOmPv/f6OhyjTFaGlO63eS1QGmxW1V9fdCu0sYYVZLgaGFcezJm3CBCWnlQy8oUs2qQkZZI9NH1/DB3ARvvU3d5IR4GCY4KIYQQQgghniTmzk1w6Pwf7NoNKP0YpLk5JO9fQ+LOnyqttWhRrK2scG/QgHouLjIGKZCbm8vl2FiiL16stNaiRfGsncGoNrcY2jIFYzn0D11OLiw/acO3h20rvbWoIQmOCvGEk+CoEEIIIYQQ4klkbF4Da+8uVG/SBnPXZpg6OFPN0hqA7LupZCZe5d6Vs9w5d5jUUzvIufdgu7irVCrqODpS08EBG2trLC0tMVGpHuuAaW5uLllqNXfv3iUlNZWExESux8ejVj/Y+RFqmOXQq8lt2tVPp7ljBvVss7Axz5aA6X2Ukwsp96px+ZYJZ+LN2H/Jgj/P1eB2Ril/wKgACY4K8YST4KgQQgghhBBCCCGeVPc//CqEEEIIIYQQQgghhBBVkARHhRBCCCGEEEIIIYQQTyQJjgohhBBCCCGEEEIIIZ5IEhwVQgghhBBCCCGEEEI8kSQ4KoQQQgghhBBCCCGEeCJJcFQIIYQQQgghhBBCCPFEkuCoEEIIIYQQQgghhBDiiSTBUSGEEFWDiw+9u/vgrEx/Qlh5dijT/pe1vKgY51Y96N3KSZn8cNh40Kl7D3xdlBnlUJl1PZKs8AzqQSdPK2WGeFCe+GtQCCGEEA+bBEeFEI8cq+6hzJwyhdBglTKrjBrS/60pzBzRQZmB95AJzJzyJoM9lDkdGDVlCjNDe2CvzAJUrYYzacoURgUpcx6uxv0nMGfWm/Svq8x5cDqNmsWcaSMIUGboNGpLty5t8VSmV5oOhM6cRfgIP2XG/ec+gEmzZjGxb9HBNZeWHcq0/2UtLyrGM7Az3QILPBAqTymuEb06PnTu0pmgRsqMcqjMuopQFZ4/RXOidXBnOrcsxXEvpxKffY+1Ujx3K3ANFvysNqfb6CnMfGtA/mejiw+9CwRgneg3ZgozR3fGAsDBj8GhE5g5LYzwaVOYOeFNRnQq4rooy/0qhBBCiCpPgqNCiEeMFR0862Fhbk5jny5UrK2PCktzcywslEFWL3wb2WFhXhtvfy9FngoLc3Ms6rVlQCvlcvXo19ULe3NzClT5kF2/+A+RUVFE3lTmPDjnz0cQExnFeWXGfeHB8PdnMaaTYdoFzkde5tS5C8WUuU8SL3A2KorIf29oEzozZtb7DL+PsbYH5wEex8dGIceswDVyPxSy3goruc6q8Pwpv4rfq2V/9lV8nRXSKZQ57w+upB9e7udzt7DP6nscupyKRa2GeBoE4xsH9qZbl848HWRwUG188KxrTurlo6TjweBRAwhwSOPU3k2s/+MA+yLisK5ZRPDzgdyvjy/PIe8zJ7SzMlkIIYR4aCQ4KoR4tNTtjG/dNI79FUF6XS862ygLaKmscHT3IahVPazKGqgMbEuz6pf5a3ccFg398VXmA+pMFZ5de+NmkKYK7EGgwz3S7xkkloOFQ0N8A31oXNdO05pFzxz7ul4EBXrh7GCeL0dPZYVjgeUg7fh6vl28iUh1XlrR6zFkjn1dJ7wDO+DrXruIY6nCylFTl1vhBQC4+tdS5q84QJJBmn4bitofczucvdoS5OWEfRFFLByc8A5si3e+OuyxKrBTcWxbuoCl+5O17wsrc5+knGDt4sWs152AulZYK8sYKHyfSiPvXDR2tKLIs6E/rgXPvYVDQ3xbFXONFVD0cVRZ1aZxq7bFXDuafXXMl6ndh1ZeeenFbK+Syqo2znWdith+c+zrGm5LcfeUOfbuPgS1aljktVfy/hV1bxRyzJTXiPbYOHu1pVOrhopjVAiVFY7ae6XosoWs11CRx7m450AJdRb6/Mk7tgWPexkUs8/Fnhv9coXkKRV5r5byXivi2QfFfE5VaJ2G13hx502jsPvF2aZiPzvmV8bnbpHXYCGK+KxOO3GBJOxo0Fy3w1Z4ulihzlRj5eKRNxSJpxMOJHP+RBp4+NDMBmL2LuCXrQfYe3ALmzb+wvzVR3Wl8yvkftUo6p4vqDT3d2k/C1RWtXF296FToc8y7bVW1wnnAp/3mmvEOd9zUZde1LOx9IrafgfLEs+uEEII8UAZ1XZtkqtMFEI8OZo31vQxa9KkiTKrROfOndP8obLmTORZZfZ94dZ/AmMaXWB++D90mjQcl7MLmLH2sja3M2Nm9cA65gImLvWxUAPmKlR3Ilj68VKOKb/D4MHw90fgm7yFtxbs1KapCBo1hX5s4v2VVox9twN3N0xjwX7dwpp1sHcPFkFtSf1tGgsOqvV1NY7ewnn3Htjvf4/5fxmsSqtb6Cx6Y7g+bX2b32P+X1YEjXiL/h4q1PfUZBmrsIjbwlsL94BDW0aN7oenhZp0NZiYq0g9spgZa6PAYzDTRjQk9mQyjVvWQ8VlNr23gG2GK+4UypyeaNOLWU8+HQid2ZvG6nuk54CJqTkq9QXWz/mOv1K0+1L9MudNnWhgpgZjc1Sqe5xaOZPFxwscbDyHvM8o9wt8+9EvRKLC87m3GNXaDnXmPbJQYQKoTOP0227fbgRjQzywUGvyLVRpHPopnF+itHU1SuP87do0sFOThTkWpnD1r3A+yxjCnJ718q077eRipqxAe44WM+V6l0LLhF3vQnhPKw4tCOcX3WUV+ArhT9vzt2EaKrqFhtHbbA9T5m4iDWj83PuEtjYhcuU0vj0O0JbQsH44HF/AjLUN9ed5a533GdUyf/AhRp8O8fEWOCj3abMusJDHc8j7jGqZnHeuVfXoN3oUnVxAfU977Scf5ds5azRBKY/BTBvRlNToVBzr2ZOlBgtzFVzbyYz5W0hSnBOMVaSmpWOv0p2zQnQKLfQ4TllxAc+n3+ClwNpw7x5ZxuZYoLh2jE9wrLoPvnaaZVYwgFGN0onPscdBfz2lEROVjkvDvO1Vx2wibOEe0vKtFcCObqPG0NvdHDLvoVaZE7v1Peb/pbnHTE6ewKKFD/bGaRxb/BFLE4q5p1QeDH5rBAF2atT31KBSQY4K1XXdvasqef+KujdsRhVxzJwMngWartj93NSkZ2qWtzBVc/6PcBbsTtOeSx8StWXx6MfE59viiO5ezeLv7z/il2iDlRR1ro77MG2ED9y8gYVdYddFMc+BVkXUuSIqX1q+549NW0a90Q9PMzXpajUmuvO0O/8iuufa+cUfsVRbXb5nSJH7XPy5waEzY8b0wE2lJj0TTFQAKtIjCm635h4reK/O31vCvaaQ/9lX/OdU+nNFrdOD/q8PJ6gWpGeqMTE1h5hNhH27hzRtnfmv8T1Y/aeI85ZCEffLYpLajcA33+qVnydlffZZlPjcLfkaLExxn9Waz2Pv6+uZsOiAdnt6oD5+CTd/C3ZOXsA2Nfj+ZwrDXf7RnJe6/Zg0pi0mEUv5eGkE6crVFWD42V3CPV/I52Fx93exn2+FfBY07j+BUH+rvM9zUxVJumcZYN/pFd7u3hAL1KSrVVhon2MqzwG8+7wf9io16kxQZZzRHAsHP0a8PABvG809onnubuHjhTtJKnA9Y/D/H809VPz2+zBmVo98PyyTdqLozxghhBDiAalW3cZhqjJRCPHkqO2gaZ/i4OCgzCpRYmKi5g9jM24kPIj+kh70ebYtZud+Y33kv+TUC6JtfROi9kVyC4AGBHRriO2to3z5+SLW7dzJzvQGdG7uRM7lPZzSbm6emnh38KHuvQtsPhqjSVJ15JkBDUjc+zOH/72OnVdHWtndZuexWHJAvw4iv+OvrCA6t6zN5T0RZHQaxKAmCfyxIALb9j5YXNnOIW2Vhtz9u9EYg/Xp6ruwnUMx7XlmsAe3/pjCjJ92suOvnWw/GUdOjjFBw0cRbLSPT2Z/w/qdO/nb1Jue7VzJ2H6UmJrN6exTH/vMYyz/cRW/7zlDdPo98n0dc/OnZyM4v/0o0RS1Hs0e5rlB1JHtbNi8kx27drH1pBk+HXxwuKPZN3f/bjS2S+HQt3NY+PtOtu65i3uwF645l/nrTIGDTa3mHWhtl8yxPREk1HuWV/s1JHXv58z4ZhPb/trDKStvglzVmm1UtWXEK+0xPqDLP4GZdzeCXDLZ/PdlTV2u1bi08lM+W7OdHX+dx7a1P57V77B59So2b8/Bo1tDbm1+j+nfb9duj+Z8OySf4K/f/yy0TE6sCe7BPrgYn2d3ZAoAQT2exUt9jG83nydTvzc53HRoRufm1qTvOkp0jhVBPbrhZqnCPDtWs75W3Xi2RTVOrdlE5O2887zx9z1sjq1JO5/qRCyeyuxfNMezVvMOtK6j5lxh+6S/XvJoyt/TnlNw6zuawc3u8NfccL7cuJ2tJ3Lw6NCBdk7X2XHqJtRsTmcfF4xjlvPRl2vYvGsnUTatCfCozu3tR4lu8Txv9nTixo5Pmf79n2zdeYAMj2Ca10jQnDPlBgDEHC30OFLvWV591pXLq2fyyfLt7NibSL12HWhpE8NfZ5M1105dM67tWMZPG7ax/5/r1GjSntauak4sCGf+7zvZeswMn6DGOCRv56P5P/HHzp1crhWAf1Nr0rX7bMjt6TEMbwHHfv6Y2b9sZ+uOXfwdm0NOjubYO5lcZ/PPy1mz8xBnr6lp83zR9xTPvMyAhmnaY7mTrXsisPJpSz219t4tzf4VdW8Uce3lfxZA/PnDbP7jT7bt2sWOv45h1rIDre3SNeuv2ZzOPnVI15b17D6A4BqnWTBjAat27WLrjgNEpeWQ75Yu6lxp68o6V8R1Udxz4K8i6lQyfP607ctwjxTWTw1n0c5dbN25i7+vKrYVtNtlT9KJvGe34TOkVlH77FLcuUkjaPhLtLU4zy8ff85P23ey9UAajdo1o0biiQLbnnCm8Hu1xHtNId+zr4TPqR27iljnMy8z0DlWu9272JnsSnBQc6wv7iEiubBr/BKnDhVx3mKKul9ucmLXdi7XCqB19Ui+nTqPZQXutbI++0p+7pZ8DRai2M/qRFQNgvCpr+LmrhNc82xP31Y5nPxfFJZdmlMjYRfHrjck+Kk2OFzdxS8nr8PtC9y0a0XblgF0DWqNR11TUi/FkpCpvDB18t+vxd7zhdwTxd3fxX6+FfJZkBp7ir82/ckfu3ax46893HJth38DFZf3RJBQrx9vD/HG6NRSps//hc1/bWf7iVhyjAMY/X+dqXNtJ7M//Y51O3ay+UAUt3KMaTd0NJ1s8+6R7XE1adexPc1UhzlwIVNxPZP/s/VMYgnbv5ND27eT3aQbjVO28NbH37G5qM8XIYQQ4gGSbvVCiEdHC388rZI5f1TTfO/UyQuk2zWnU4v8xdQpccRrI4PqxLRStADJY9W1OW7qS5w+rAbS2BMVh8rdjx4Fuu+rOfbbbmIsmtO9U1sGBNUj9egW9hZsIFIGN0i9Ay5+Q+jmoekyqVarAX9a1FORFHsBVS0nnOs6YZGQTBp2uBgMnxYfuYVT15JJSkwuYZ+LWo/SPdLS1JpujnXtsEhML1hvVhJX9Qc7ibQCBQpn5VUPe+I4vfmGNoirJj7NYDwCPy8aqJKJ+Vel7QpoQXxSGjg4GYyDl8b187plLpNYsClh2akPsC/qHvZNtRMdqdrSooGKq5EFWyqmHYziKk40bqMClR9ujjc49PcNfbdNTw8nLBL/4dA1xYLFKu8+OeHb2A5iI9ikOx+JO9l74R4W9ZrnGzsw9cYF/XmMScpbgbO7ExbEcXKrrmXSPVLvZunzNdeB5vpzruuEc5HdesG5VUPsM69yPs5eU7bWDeJTwaqWQaux9Ev8vf8C8YnJJKXprr97pOq2P0VzvanvJqHLjrxesNWUhm7/j7LitO74qTG8rNNjT7A3+gZJicmkqYu7p6zwrqc4luobpBpc26Xav3LeGzrpaWmotV1e7c2TuVvM8rHJaWDTnKdCfHA2p8C+l0ZR10WpngNlkZhGurETAUM642mlKte2Usw+F39umuPppCLt3wMc0l0m99JIM7jMS1b6e604ZfuccsLX3Q51/AVi7TTXq+P1GyRhhaPhLZXvGi/uvJV8vxTn/jz7irsGCyrps/rY6Uukm9fGrS44N6mPVeJVItUniIk3x6VhQ7DxwM3mHjGnT2hrVBO5OpwPvvqFvy6BY4sejHp/ChOf9ijyOVdAGe75ku/v0n8WqNPSSEeFlaMTjlaQei/vgnZu1RR74ji0Oq81rFqt1nzGmqZx6q8t+usQtRo1/rRokP8eUUdu4u94cG7UtvTHogzbL4QQQlQFEhwVQjwyfFs1xCJHhdtToYwZHcqYdrVQ55jTuKVy0qTysqKzpxOo7fF9WbOOl9wtSMcJz8BCxmBL2cn642m49eyHN1Fs2qjvc11OESz9dhNnjRvSe8T7hE95k+Gt7QBzTFRg32IIr/13lObVuz6qezeI1c1xUSZFrUfJjm6jpjBnyluM/e8YJk1TdIWrABcbC0BNZlFfxs1NUGFH6yHa/f3vKPo1MCH9elwZJjUpn1O7z5Bk1ZDWHqBq40UDLnBoeyHf7FIOEHlNRYOm/uDXEJfEC+w9cIEkh/q0VDnh6WJF0vmjXFUud19YYWkK5GTlazGcnpkFVvZ5Y+wVw7qkWcQCh/D2mDfyXi/3prGyjJa1hQpM69Nbd73+dxQBdveIj49TFq0khe9/0Yq7p5ywtiy+rgexf/adXmHmzCm8++oo3p4YRu/8vZHzSdv8LYv338AhcDBvTwlj2qgeuJVwOkuvkp8Dp1cw/48oTBr2YNT7YcwcN5iAsndcKHKfiz83dliUf/hErcKvtbLca2WnWaeqXo+86/W//tjfu0F8kQHI4s5b4ftQag/92VeKz+rjUcSq7WjsY4enkx1psVFcJY3z19OwcvHAvlV9HNVXiTyev+b02BOsXxzOB1M+Z9tlcAx8mn4GEztVlrLc3yVReQ5gUlgY014bxZi3pvCSwbAMmud6IZ+15iaaQGeBhrGaZ2N+adzNAGzsinzmCyGEEI86CY4KIR4NqrYENDYnLeYEp6Mv8G/0Bf6NjuBs7D0sPNoSpCxfHvV64O2oJj7qhLb+C/z77wliEsG5RedCv/TGrN/C3pjLHNvxWyFjmpadOn4Piz+dxlvTvmDtJQt8nxlAEMmk34OkY9/ywbRpBq/v+Kuc6yx8PQrBQ+jtnspfn05mwrRpfDBlCwU79JVPbEo6YI5lgRa5WinppJPMwW8M93caHyzaU74v82VxeQvHrlnh6e9DoFd9uBhRRItgbWslVw8GN3EmPTaKq9eiiEmrTf0gHxo7JHP2cOUFy4oXR+pdwFj7hVfLwtQE0pJKFaQ4n5gGWOFQ1Jf0vxbw1nvv5b2KGSMuNiUd1JdYn+96ncYn2jHwKp92/80sKORnjEIUd0+VXNf9378ODO/ZkNT94UyYMo0Ppk1mU7G/vdzj1IYFTJk8mSmLj3C3XmeGhxQxy3ZZVfpzQE387qXMmPYeH3y1nhhLHwY83VZZqBQK3+fiz43mvKtMKzIZTMXvtbLTrFN9cZPiev2cX4q65Io9byVf48V7yM++Un1WH+F8HDjWC6FBbTXXYzQHKjLmBmoHJ/q5O0HcBQ4qqtZT32DTX2dIQ4Vl4bNjVUBZ7+/iNGTA035YXFijr+uHk3k/5hX5WZuSTjomWFgq0rX3SH5WWJoBKcn3/cdJIYQQ4mGR4KgQ4pGgaqPpZn128yY2bd2if/2y4x/SVPVp0a5AU4cyc/NriL36EvtW59W/aesWfjh6GRyaElRY0Eh9grULDWfiLZ46B3Coj68KwBzndvXRN5pSWWGvmy72Xhxnb+o6wZ0h8ooa+xa96eSYt58WLk7Y69+VQZHrUcj3CaHCyqN2ETMol11axAWSqE3rp3w0M+SaOxHkZtB69XQUsZl2tO7TgbxdNsfZpbAWroXRRDOtazZEBahUhV0fRZXRfPG3cOtN93pqzh45kG8pQ2kHo7hq3pDWDSE2KgqI4mysGpcgfxyL61aapQYssHc0B1QUunmlosJUBZDGzsg4cPFjSAtN0ziVYw86NzYn/fKZIoOYhtSHTxCTaUfr54bTzcsJ706D6d2oNKGTgscxLeICSaqGdHquYd7MyCornB1LU195pHHqYjI4+jDEv7YmaGV4nRdQ3D2VV9fTLTVDB1i4tKWBwaVX8f0reMzyy/9eZeVBnUKqNtE28bJw0M1ArSbtQhxJhQbzKcV6C1Hic6Bsdaqs7PSzYqfH/kN8gUCMVpYasMLZXXPgVVYeeNbJC2oWtc/FnxvNebdo2JbeLpp7z8rDA+fiYqUF7tWK32slKmSdpy4mo2rcgcGN85q+qqyccFQGvXSKPW/F3y9qNWBhj2b1qkK7Upf72VfG66UwpfusVnMo5ga4eeFpfoNLuknnj14mXtUQ78Yq4mOO5v3YZuOBr5cT9rrDa96Qft2bY6W+QUy5emgUp3T3d+moMDE81+ZOONuY6N/qP2uf9tN+lqqwcrBCdTqK2ExzGnfoje6S0txTJzh04R5Wnl3orX02WrR4mtaOcPXfA6h114eVE40dtPWVdA8VQp0DWNnTWHMRoFJ50G/0G4xoV9rPeCGEEKJySXBUCPEIUNGpZUNUif+wV9m6IuoAZ5NVNG7ZodAvcKXnQVBTO9SFtBJU7z3BebUdzdoZDPBZTntPRqGu7sHwsFnMmfUB//WCVF1woFYHRr0bxpyZYcycNotJQfbEbF/DXtTs/Wkpe2/Xp9+4MOZMC2POrFnMfLlL+bq4Fbkehb0HOHWnNp3eCSM8LIzJT1mRXkjv8nK5vJ6vN19A1WIw08JmMWfyKNqbGYyJpz7AtysOkOrSm4lhswifNos5s6bwWqeG+esp0gH2nk7DvvUrhM+axeRn6isLFFsmbftRzptZYZV2hr9O51soP233UpXpDS5qyx07dxWT6ubFdyuNPsKhWHB7agpzZoXxWjtlgZJFHo8iKceJbmGhdAPSNi9lbRT4Pj+FObNmET6uM46JB1i6IkK5aOFS9vD1Dzu5qGpI5+dG0c9TzcW40pzwQo7j5fV8vSEKk1avMHNWGOFhs5gTNoHhfuWOAJQo5rdvWRsFnv3fJHzWLOaEvc9rXQo770AJ91TMb9+yKdoE3yHvEz5rFjNfDsTirkEUr8L7V8gxy2cPeyPu4Rg0gfBpYYS/0xurOwbnIuoEZ5PBuUsYYzqBd8hbzJw1S1M2bACe6UdZs7GwlnslrbcQJT4HylanY/AIzT0/bQrhMyfQyeYyW34r5AeI6COcvAmOwRM01/NbvbE2OAZF7nOx50Zz3g+lOdHt/zT33uRnaxf/XCvkXq3wvVaSQtapub5VBIycwpywMMJnzSJ8wmACCrT80yrhvBV3v5w/fJSrOfXoN2UWc8JGFexVQAWefWW8Xgoq/Wd12v4o4gESL3FSV1Z9houJADeI3G9wQCwb0n3IG0yaMos5s2YxZ8ordHJI4ti6NQXWU3El3N9lEsXev+Mw8RhA+LQw5kweQYOc1Lxs7f2AxwAmhs1izqwwpr3Umf9v787joiz3/4+/gBn2RURQWVRQIURJM3PLLZcsM81MK/1V2skyzcxMK9NKs9LMyixbTll+tcXTKcvTcixzaVEz06MiibviioiAgDAsvz9mBoZbQFBQkPfz8ZiHeH2u+5575l7mns9cS7jtMzY5oAujba955vjbaQ9s/ewzfk0Jptd423Xx7hjY+Q0L/2vdxl1/bOd4fhDdJ1rX9+RNvqRVcPN//SOOdL9rGT3jJeZOHEB4YBTRTYJpEVnez3gREZHK5RQUFllgLBSR2qNl81AAIiMjjaHzSkhIsP5h8mV7/A5jWErj7k+IvwdZKUc4dU6rKRM+9YPwdc4lLelE4UQ0hVGfIOp7myDnFIeTz1m4Asp+niLu1G1YF/OZExwvvdKFM/lQP9BE2tHSJpGybyelvF9VJYb7nhlO6LY3eeHrkpJM1Zjt+MqthH0WfefTPNBkJwte/vcFdqe0Hj8enO84q0QmH+oH+mAp5/FS1jll8gmivmvaOeVFqvb1eQQEU9eUzvHj6ecfTsK230t6HRevkq8Dtn1kyj/fa7Od/5RSr8zXXPa+8QgIxjfnIl9PJZ5r5WZ/zed97yjffqvg+XJlK/q8Kd/7e3EqdH6fh/U6ZuHU+T5Lc889V0rbDvu1scTPXttxQ1nHVgWZfHwwp59vcjIREZGqoeSoSC2n5KiIA5MJUy4E3Diax7vD6pff5LtUY6UrVRTXdzexL/4gx49b8I25gRFDuuC77SOe/aK0gQ1FRERERERqtkpLjtb19ycsNJR6AQF4eXri5ORkrCIi5VBQUEBGZiYnk5M5lJjIqZTyjWV5oZQcFXEQcTvPP3AtPuSy/79zmbe6as+/6iWKQePvpEN9d+sQFflnORW/grcXr+OUsaqIiIiIiMgVolKSo1e3akWTRiXNVCIiF2v/wYP8b1tZgx5eHCVHRURERERERKS2uujkaMfrriMoMBCA3Xv3cvjIEdLS08nPzzdWFZFycHZ2xtfHh5DgYJpFRABwIimJdX/8YaxaKZQcFREREREREZHa6qJmq7+6VSuCAgPJyMxkza+/Ehcfz+nUVCVGRS5Cfn4+p1NTiYuPZ82vv5KRmUlQYCBXt2plrCoiIiIiIiIiIhfhgpOjdf39C7vS//nXX5xOrTUzVohcMqdTU/nzr78AaNKoEXX9/Y1VRERERERERETkAl1wcjQs1NoVd/fevUqMilSh06mp7N67FxzOOxERERERERERuXgXnBytFxAAwOEjR4whEalk9vPMft6JiIiIiIiIiMjFu+DkqJenJwBp6enGkIhUMvt5Zj/vRERERERERETk4l1wctTJyQlsk8eISNWyn2f2805ERERERERERC7eBSdHL1an9tcxZtQDzH35Rea+/CJjRj1Ax+uuM1YTERERERERERERqRKXPDnq5+vLE+PH8Y/77qVtm9bU8fOjjp8fbdu05oER9/L4uEfw9fUxLlYz+UXRvXcXov2MAREREREREREREbncnILCIguMheUxoF8/AL7+9ltjqEyTHnuUqyIj2bJ1K9+v+JHDR44CEBLckH59byS2ZUt2/L2TOW/MMy5aIR7N+3DfbR0J93PHlJ9LeuoefvnsI35KNNasQh3+wewBPvz68mt8k2oMliDiVib/v6s4vHQ2i+Mdyv26MHrMDYQe+ZkpH/3iEIDYOycxNCqLDe+9yTfWt7JIQB/Gje1IwK6vefaTLYag1DQXes6dT8vmoQBERkYaQ+eVkJBg/cPky/b4HcZwlarr709YaCj1AgLw8vTUkAMiIiIiV5iCggIyMjM5mZzMocRETqWkGKuIiMhl0DK6xSXPAVSlS9pytGvnTrbE6DbmLXiXXXv2kpmVRWZWFrv27OX1txawdft2WlwVReeOHYyLl5speihPjuyC75G1LJ7/Jq8u/DcbEnNxdTXWrFrNQ4MwpR9hV3kSo4CpaWPqu2dxalexUq4ZcAPhHiY8GgTR3DGED00a+OPhHkzsdcHFItCIQSN60MTdncyUPYaYSM12datWdOnUiSaNGuHt5aXEqIiIiMgVyMnJCW8vL5o0akSXTp24ulUrYxUREZGLdklbjj42dgytYlowc/Yc9uzbZwwD0DQ8nCmTJtoSqO8Yw+Vy/cgZDPJdx7Ovf4d1ju8SmHyoH9WStj5prN8Sx6mzhlijpjT3S2fX7gMcT891CNqrBFHfNY3DybYFbetrzgF27DnCqbPQa/RL3Oy8iklvrcU34iqaeBwgPi6FLOPKbK6551mGh/7N+y9+TmHD0Ua38szoluxff4LYDma+e2oBqwuX6MjoGbfSICsdn8wtxV5v9OCneaCVB7muWWxd9GLxlqhSI13IOVceNa3laMfrriMoMBCA3Xv3cvjIEdLS0zU5nIiIiMgVxtnZGV8fH0KCg2kWEQHAiaQk1v3xh7GqiIhcQmo5ehEahVmTMIlHjhhDhY6dOAFAk8aNjKFyM5lN4B1Ec5MxYuXR6nYmT53E44P70L3fcJ4ZfzvRxWJPM/neAdx0631MfnoGz98ZBYCp9yPMfXo4N985idlPP8ao3o0BqNvpPp5//mkm33kzNw0ZzeNDWgNRNPCH9HR3Rjw9hSf/3+3cOXwSzz/YhZJHVPUhtK47JB8pSoziQ69+7fDdu4rPtqWQhT/1rfcEVhHBNDCls2vjHtLrR9HDNrapKXood7bJYvUfRzCRwjElRuUKcXWrVgQFBpKRmcmaX38lLj6e06mpSoyKiIiIXIHy8/M5nZpKXHw8a379lYzMTIICA9WCVEREKtUlTY7amUylZC0dXEwn2V/X/skpjyiGP/s0o/u1pr7j0wXczLi7W5O1ai6Tnn+eSct2kusXRAhA1O08efe1eMYvZsqzzzPl+RXsB9KSrd3SYxvWBZ8oWvELC+bM5uVlOzFFD+XR/k1J+3UBk6ZOZcqzU5myaAv4NSXEB3zCQzj+yfNMen4qC/+XjikgGGuK2KglIQFw6lhRF3hTm9vp0Sid9f9dR+7eUyTjQ33HhRsF4UMKx37czr6MIJq0MYEpijsHtCRt9Ufs8vGH1BMccFhEpKaq6+9Pk0bWH03+/OsvTqeWc7wKEREREanxTqem8udffwHQpFEj6vr7G6uIiIhckEuaHD146BAADeoHGUOF7LH9B611L0Ru/L95YcY/+WlPLuHXD2Xy1McYFG0CTFw/qCMBe7/j7dUpmHxaM7x3FOzfzgZ8uPnGa/E5/gtvfBZn7foeHUwA6STuyS1s2Zm79zte/Wwdu5JTyDrbiNv7t8Zj73e88f1BinW+jwjClxQ2LFzAN/sdIvm5xevZRQTTwJRL8nF7q9pG3NozCuJX8M1BgCOcSoeAoKaFi0Q3sCc/49h68CxNom8gdvDtxKb+zMIfc2newIfcE0coNoSpSA0VFmr9ZWD33r1KjIqIiIjUQqdTU9m9dy843BuKiIhcrEuaHF3z628A3NK3rzFU6NabbwJg5eqikTUvyNk9fPfRbCbN+YZdliCu794FE+1o1chEmmsUj058lhcnDSBk/7959YNfSPfrQquGsH/LCk7ZVuHTJBif3BMc3kthy87kxO1Fyc2GrWnun8u+bevOSXiGNArC4+wJdh20l/iUnaxsFIQPpzhs6wLv070fHQIgt25HHn5wNOMevIEmZvAJsE+8VHx9f207QFajHtwXncKKpas4Zd/eo9sdn0WkxqoXEADA4TKG5RARERGRK5v9XtB+bygiInKxLmly9K8t/2NbXBxXt2rJuNEP0SwiAg8PD7y9vGgWEcH4MaNpFRND+pkzHDpcSQmQ5HXsSgbcPPDAHbMJSN/Dqi/n8ezU55n12Z8czwUa+OBJOqeO2tOcJq4OrQupJ9hH0fieh/c7TPHk64GZLNJTiorsmjfwh5NH2FpYYk1WpiWX3Mk9uoE/FM5sH8WATo2wHPyTDXF72L3X+tifmgv+9hnrm1Lfz2F9mzeyaf9Bfl32Pj8lAw0DCTCd5dSxUqekEqlRvDw9AUhL1zEtIiIiUlvZ7wXt94YiIiIX65ImRwE+XLSYuPi/aR3biqefeJy35s5h3pzZPP3E48S2bAmAj7c3T04Yj5+fbYahCohu25omPvZBRk3Ub3cfXRrB8Z3rSOcsllzgzAH+2ptCFu6EdLqWaBNYAx74BJgAd2LvnMCgCBNZJw5yGHvLznROOTb7TMvCgg8hEbbxbtyDub5dFCaiCA2A9OQDDq1MrcnK4wdLSvpaW4GSmsIuoO5NN3ONx0FWffJvvvtxReFjQ2IW2MdHbdiI+u6O64vjy3cX8OVm2zM2D6Eupzi8zeFpRGowJyfrSMSafElERESk9rLfC9rvDUVEpOaLbdWSJR/9k/VrVrJ+zUo+em8BV0VFGqtVmUueHE1NS+PVeW/y/sKP+WvL/zidmkrK6dNs2ryZ9xd+zGOTn+JEUhL1g4KsCVJfX+MqyhR+3e2Me3oGc196ibkvzWDyoKZk/u/fvP99CrCO1ZtTqNtuNLOffZbZM5/l0a6tqR8A7N3I/5JMNO8/g7kzpnBT1hb+SodTtm7p1vE9j7DLsf/80e/496YU6nedZH2+Z0fTu1UQAabG1PeB5CM7i+qWmay0tgJNP76HXFNHhnYIIj3uZ34yDKu462QK2GesL3N9EB3sD+kn2Gfs7y9SS3Vqfx1jRj3A3JdfZO7LLzJm1AN0vO46YzURERERERGpxdzc3GgaHm4srrGaRkTg5uZmLK5Wnnz8sWLv+VVRkTz+6CPF6lQlp6CwyAJjYXkM6NcPgK+//dYYumh+vr48NXECQYGBnEhK4qU5c0lNSzNWK527PyH+HkAuaUknSDckCD0CgqnrCrlnTnC8WNCdug3rQsoRTp11KD4Pk08Q9b1NZFVwOZGKqKpzrmVz62D2kZEV/1UmISHB+ofJl+3xO4zhSnWhr9/P15dRI+8jOirKGAIgLv5v3v/oI9LSroDu+n5RdL8uiON//EK85qwSERGRK9SF3heKiJyPu5sb13fqhJenJ1u2bePAwcKJZGqk8MaNiW3ZkozMTH79/XfOZmcbq1yQltEtLioH4OrqypgHH6B5s6asW7+Bhx98gIIC6NbnJlxdzaz8bjk5OTm8ueBdenTrStyOeBa8/0GV9SS95C1HyyM1LY2XXn2NE0lJBAUG0ubqWGOVsp1N4fDRIxw+em5iFCAr+QiHjx4xJEYBznLqaMUTnLnpJzh8AcuJSNV78P4RREdFsWXrVl6a8ypjJ0xk7ISJvDTnVbZu305M9FWMGjHCuFiFeTTvw+hJzzJ75kvMnTGD5yfeR69LPYlqdBduvuFa27jEIiIiIiIiUl5uDonRjMxMjh0/bqxSeVoN4oUPviFu6yZ2r36be43xSnLk2DEyMjPx8vTk+k6dqk0L0gnjxjB08CCuaX01Yx4ahZOTE2t/+w2LxUJGRiZ//LkJV1dXHn/0Ea5pfTX/7+47eXjUP4yrqTTVMjkKkJqaykuvvsZnX/yb1b/8agyLiJxX186duCoyki1btzFvwbvs2rOXzKwsMrOy2LVnL6+/tYCt27fT4qooOnfsYFy83EzRQ3lyZBd8j6xl8fw3eXXhv9mQmIurq7Fm1WoeGoSpcGI3ERERERERKQ83Nze6OCRGf/n9d7IrqZWl0SMfrGb3F9O5t1sEvp5uuPm6UVUpy+zsbH75/ffCBGmXapAgvfaaNgzsfwv5+QV89H9L+H7Fj7z93j955rkZhXUmPvUMr7w2j29/WMHHiz8B4M47bic0JMRhTZXngpOjBQXW3vjOzhe8ivNKTU1lxcqfjcUitY79PLOfd1I+bdu0AeDbH/5rDBVa/t0PALRt3doYKrcOHVvic3wdby9exdajRzi8dwvffbaY7/Y6VDL5UD+mIzd3iKGuu0O5PRbRmuvbNKV+4YRyxZl8gggJcFjQtr7rY4IL19c40D6xmzt1I1pzTYw/HkVLiIiIiIiIiMGlTIwCNAqtB2mH2bRlL1X3LEWqW4L0phv7APCvL7/inX9+yPMzX+bb7//LlMkT+W7ZF3y37AueemICq9f+woyXZrHg/Q9Ytvw/mEwmbu13k3F1leKCM5sZmZkA+Pr4GEMiUsns55n9vJPyaRRm7deeeOSIMVTo2IkTADRp3MgYKjeT2QTeQTQvOa+JR6vbmTx1Eo8P7kP3fsN5ZvztRBeLPc3kewdw0633MfnpGTx/p3V8VFPvR5j79HBuvnMSs59+jFG9GwNQt9N9PP/800y+82ZuGjKax4e0BqJo4A/p6e6MeHoKT/6/27lz+CSef7ALukqLiIiIiIic61InRgHmjbqRZu1uZOC3SZckOUo1S5Du278fgNtuvYVWMS0AeOyRMdzUpzd1/f2p6+/PTX1689gjYwBoc3Us/fr2Bai0MVONLjg5ejI5GYCQ4GBjSEQqmf08s593UjEmUylZSwdOxoIK+HXtn5zyiGL4s08zul9r6js+XcDNjLu7NVmr5jLp+eeZtGwnuX5BhABE3c6Td1+LZ/xipjz7PFOeX8F+IC15DwCxDeuCTxSt+IUFc2bz8rKdmKKH8mj/pqT9uoBJU6cy5dmpTFm0BfyaEuIDPuEhHP/keSY9P5WF/0vHFBDMpR76VEREREREpCboeN111sRoRga/XoLEKMChA4eNRZdEdnY2v/7+OxkZGXh5etKhXTtjlUvis3/9u3BM0dsG9Aeg3bXXADB63GOMfnQCANe2tfYEHXL7bZjNJn757ffCLvaV7YKTo4cSEwFoFhFBHT8/Y1hEKkkdPz+aRUSAw3kn5XPw0CEAGtQPMoYK2WP7D1rrXojc+H/zwox/8tOeXMKvH8rkqY8xKNoEmLh+UEcC9n7H26tTMPm0ZnjvKNi/nQ34cPON1+Jz/Bfe+CyOLIDoYAJIJ3FPLuBDaF13cvd+x6ufrWNXcgpZZxtxe//WeOz9jje+P0ixKeUigvAlhQ0LF/DNfodIfm7xeiIiIiIiIlKMxWIxFl2xLvdrdXJyIifHug0uLi5gGELQZCuzyzprnf08MzOrWHlluuDk6KmUFPYfPAjAtddcowSpSBWo4+fHtddYf0HZf/Agp1JSjFWkDGt+/Q2AW2xN8Ety683WMUtWrl5tDFXM2T1899FsJs35hl2WIK7v3gUT7WjVyESaaxSPTnyWFycNIGT/v3n1g19I9+tCq4awf8sKTtlW4dMkGJ/cExzeC9CSkABITtxelNxs2Jrm/rns27bunIRnSKMgPM6eYJf1sgz40LyBD7knjrCreFUREREREREB1v3xBxmZmdSpU6dazeZeFdzc3Li+Uyfq1KlDRmYm6zduNFa5JP5x3z1c36kDOTk5/OvfywD4c9NmABbMe403574CwMY//wJg6b+/wmLJ5cbePRnx/4Y5rKnyXHByFOB/27ZxIikJL09Pul1/PTHR0dTx86vSSZpErnTOzs7U8fMjJjqabtdfj5enJyeSkvjftm3GqnIef235H9vi4ri6VUvGjX6IZhEReHh44O3lRbOICMaPGU2rmBjSz5zh0OHSxyWtkOR17EoG3DzwwB2zCUjfw6ov5/Hs1OeZ9dmfHM8FGvjgSTqnjtrTnCauDq0LqSfYBxARTANTOof3pxet29cDM1mkl5Ajb97AH04eYWthiTW5mpZ8oFg9ERERERERsapOY3FWpcsxtmpp3N2tMwp/+fVytu/YAcBrb77Ff39ayenTpzmVksJ3/13Ba2++BcDfOxP44ccfAfDy8nJYU+VxCgqLvOjpr69u1YomjS58MhMRKd3+gwerNDHasrl1RMrIyEhj6LwSEhKsf5h82R5vvahVlQH9+gHw9bffGkNl8vP15R/33UtM9FXGUDHHT5zg5bmvk5qaagyVKbpta7IStrM/PRcwUb/dcB4eFEXm2tnM+v4qRs+4lYDNC3jhy4OAOyGdWuL7x5/EN7qd5x9ozbHlz7PgdxOxd47jvqv9yYr/3DqGaPfRzL3RxE9T3+Q7e/604a08M64jlrWzmfV9CrgHc30rH9ZvhDufvo/mez/i2c92OtRtw/Glz/O+9Uc4ERERkSvChd4XioiU5rIkD0d8QNyU9vimbWDGNffznjFeSaritbWMbnHBOYCm4eEs+eifZGdn89KcubRvdy1bt23nP9//gMVi/fJrNpu5Y9BAmjWNIG7H3zzx2DgARo19lK3bthvWePFcvPwCnjMWVtTxEydIOnmSgoICTCYTZrMZJ6eLmd5EpPYqKCggIzOTI8eOsS0ujv0HqrblX1CALwABAQHG0Hkl2yeIcnbjxMkkY7hSXWVL3u7cVbFO4tnZ2azb8Acnkk7i5OSEh4cHWWfPsiM+nm9/WMHizz7nmtZXUz8oiDaxrfjzr80V+qC4buAY7rqlFzf26sWNvW7g+ug6nP7fV7y/bC9ZJJLh35br23Wh5/XX07tPLzo0dOPozr/Yn5hB3avb06bNDdzY/XoaHvyDBL9wXHZ+zrq9+UR36ENbj/38d218Ybd7zuwhyb8NXTvanq97W0JNx4jbVo9OfcM5s/lzNtgPl2tuYGDzbP732R/syi/aXhEREZGa7kLvC0VESpOXl8fho0dp2KABXp6eNGzQgMNHj5KXl2esWnnaDGBM11Dcsg+z9t1v2GSMV4KqSIwCBAUGXnAOIOX0afz8/Iht1ZLuXbvQvGlTru/UkUahYfy8Zi0Ar748k8G3DaB5s6Z07tgebBM5ff2fqvlRrFJajopIzXWltxwtDz9fX56aOMF6gU9K4qU5c0lNSzNWK527PyH+HkAuaUknSDcMCOoREExdV8g9c4LjxYLu1G1YF1KOcMo6xnS5mHyCqO9tIquCy4mIiIhcCaryvlBEajd3Nzeu79gRLy8v/rdtW+FcOzVVeOPGxLZsSUZGBr+uW8fZSkiMcpEtRwFcXV0Z8+ADNG/WlK3b47h32F0UFEC3PjdhcnHh5x/+Q0FBAf/3yWe0ahlD/N87WfD+B+TmGmffqBxKjorUckqOWvn5+fHU448RFBjIok8+ZfUvvxqriIiIiEg1UNX3hSJSu7m7uRESHMyeffuMoRqpWUQEiYcPV1pilEpIjhp98tEHRIQ3KVa2M2EX9z7wULGyqqKZk0REgNTUVF569TU+++LfSoyKiIiIiIjUUmezs6+YxCjA7r17KzUxWhU++r8lnHaY/yP51CkW/t+SYnWqkpKjIlIjFBRYG7k7O1fdZSs1NZUVK382FouIiIhINWG/F7TfG4qISM23YuXP9L11EB269aRDt570u+0OVq/9xVitylRdlkFEpBJlZGYC4OvjYwyJiIiISC1hvxe03xuKiIhcLCVHRaRGOJmcDEBIcLAxJCIiIiK1hP1e0H5vKCIicrGUHBWRGuFQYiLYBpOu4+dnDIuIiIjIFa6Onx/NIiLA4d5QRETkYik5KiI1wqmUFPYfPAjAtddcowSpiIiISC1Sx8+Pa6+5BoD9Bw9yKiXFWEVEROSCKDkqIjXG/7Zt40RSEl6ennS7/npioqOp4+dXpZM0iYiIiMjl4ezsTB0/P2Kio+l2/fV4eXpyIimJ/23bZqwqIiJywZyCwiI1zZ9ILdayeSgAkZGRxtB5JSQkWP8w+bI9focxXGWubtWKJo0aGYtFRERE5Aq2/+BBJUZFRKqBltEtLmkOoKqpuZWI1Dj/27aNX37/nf0HD3ImI4OCAv3GIyIiInKlKSgo4ExGBvsPHuSX339XYlRERKqEWo6K1HI1seWoiIiIiIiIiEhlUMtRERERERERERERqZWUHBUREREREREREZFaSclRERERERERERERqZWUHBUREREREREREZFaSclRERERERERERERqZWUHBUREREREREREZFaSclRERERERERERERqZWUHBUREREREREREZFaSclRERERERERERERqZWUHBUREREREREREZFaSclRERERERERERERqZWUHBUREREREREREZFaySkoLLLAWFgeLaNbGItE5DLYHr/DWFQhLZuHAhAZGWkMnVdCQoL1D5PvRW+HiIiIiIiIiMildsHJURG5Mig5KiIiIiIiIiK1lbrVi4iIiIiIiIiISK2k5KiIiIiIiIiIiIjUSkqOioiIiIiIiIiISK2k5KiIiIiIiIiIiIjUSkqOioiIiIiIiIiISK2k5KiIiIiIiIiIiIjUSkqOioiIiIiIiIiISK2k5KiIyEVoGd2CltEtjMUicgVZv2Yl69esNBaLXBQdV9WL9ofUVDp2qxftD6kKOq6qnlNQWGSBsVBEao+WzUMBiIyMNIbOKyEhwfqHyZft8TuM4Wqhd4/uxERH42o2G0MlyrFYiIuP58dVq42hEtkTo9X19YvIxbPfjHbo1tMYErlgOq6qF+0Pqal07FYv2h9SFXRcVT21HBWRK1bvHt1pExtb7sQogKvZTJvYWHr36G4MiYiIiIiIiMgVRslREblixURHA7Dos8+Z/ca8cj0WffZ5sWVFRERERERE5Mql5KiIXLHsLUaPHT9uDJXKXrcirU1FRKoV/xhu7N+fQT1j8DPGREQumAfRXftzY7sGlOcuyRzcjhv7dyPawxgRESldo/b9GdS/PzfG+hpDUuuE0aF/fwb1b0cjY6iSKTkqIlItTeH7rZvYvfW/fHxPSeX/4gXHYhGpgaIY/uwc5s+1P6Yz8/GHGdU3Ck9j1YoIbkffm/tyS592NDbGpPYwN6DD4AeY+ULRMTZ76sOM6hFmrClVyn6eT2V4xYd3r166PsD4u/oydORwbjTGzhHG0IfuY+jNQxh1V4wxKDVC0WfU7JGtjUH8+k+0XVseth0Pxs80+8Px2Pdl0OO28sf76we8CjG+v5V0z1ANxXbryy0396Xvtfq8umTM4dw4ciKzZzneMwyhrbHeJRdDz5v7csvN3Yg1hiqZkqMiItWSG26ebrh5+uLmUlK5G26OxSJSyOTiwqIPFvDhu29icil2AlUzJjw9PfD08MDsDOBLw2YxdBgwjpkjY8rVMouY+3htwVt8OKmvMSKVYNJj4/lwwVtlPkY/cL9xscsvsBtPvDiVUT1b0zDAA09nwNmDesExdGhXcxNVNXN/2M9zTzzLdVKXV1+mLHiLD2fdVzVfGEu6tmxbx/ojyZzcspH1jnVLdIi1v+/kZPI+1v9pm8Czqre5GqvZx64H9Vr34hZ/x1hrhncNx9PDemxbD+2i+sUfDsd+aF86NLOVN2tN32LrvHRq+v644HsGqVI187iy3zNMZGi7cOr5euBpMmE2eVAvuBENjXWvYEqOiojUeCF0HjqOV+bM4pWJd3FDK8dYNDc8NIU350zniaHtKfr9NZobBvZj4A3WsVVb3lD0t6OWN/Rj4MCutATCOgziiZmzeGXiIFo6VmrVlYH3WJ//zWmjij1/WIdeDBzYi86NS1i+cXtuemgKb86ZwqgOIQ4rpIztFjm/R8Y8SI9uXejdswePjHnQGK6G0tj0/kTGThjPgws2kgr4tbuJG2xRz8Awotv3ZFD//tzQOqBYCxFzRANryxuzJ41Cw2joa/x65EG91t0Y1L8bsefE5Hw8PdyNReeoFxBgLLrMzNxw121EewMpcSycMZ6R4ycydvwYRo57ipmfb7TV86BeaBiNAq19nj0Di/4GM37h7bixf39ubB+OX7FDx7ZcaNGx6BkYVuz4s/4/AM/C9XSjbeG6bcy+NG1fsVl3a+b+OL+yzvHi+yKKeva3MbYB9axL4+ewH8/hEUCjSOvyg7q2Llq+kBm/4Cg6dG1HdLBvYYKlxGvLmZ38sPB95i/fTKrZl4aG48C6LuuxUM8DTm76ivnvfM7KXRZruIRtNh47YNvm0DAaOWxPTVfjj11zOF1vDi/8r1/fXsR6F6vhII3188cwcrT98RTvxVkjTbu1pB6QmpIGNKBt38tzh1ez98eF3zOUej0BPANbc4PtOtHQ1wwlnONm3waF57etoIQ64XTo3Z9BvdvRtNh9R3k+c3rSIdwXV4elSmT2pWGobXvPeR5rPLZrfwZ1jcHPbLsuGa4nhdtZ4nXxwtTM48rhnuHMTr58eSIjx43nwXFjGDnuDf7rUO+89wWBHsX3ZePib+w5x5iD0o+b0hRtz7nH+YVxCgqLLDAWikjt0bJ5KACRkRXv65WQYGsJYPJle/wOY/iym/ToOABmvzHPGCpTRZZrGd0CoApe/3R+3j2I5qTz28yO3LnQWL6Xz5rdyhN05ZXvXuPOSId2pGkbmHHN/bx3w3R+fnMQzR1C2QlfMurmafxsX09aPL8di6BzpBvs+ZKwG6cVVQZe+e927myaTVJiDoGhPsXWc+/N0/jtnrf5a1pXAh0XyjvJ91O6M+oLGLV4HVM7+JCWko6vv8PySSfJrlsP38JGfSf5+cnu3PsFUOZ2i5QtJvoqvl32OS62FqN5eXn07jeIXbv3GKuW2/o1KwHo0K1iiZzzi2HUrIfp4JvG+vn2L499mbKgP01J45fXnmJ9u+k8cb3hRvrYGmY+vxSvkS8xvl3x8bhSN77NYxva8drYdvhZskjN98Cv8FxK45f5T7HQ9iVVzq9RaCjTnpoMwLQXXuTI0aNllldE1R1X3Xhi3hCizVls/Wgir28wxu1sx1paHOtPRNKhmRn2LWfka4cY/vQD3NDA4ctJ9jF+/vBlFm+1OByj+/hy9Bz+A9wy6S0GhduOvw/jbP+3kJllxrPwu5GFo6veZ8rSOAjsy5Qp/WnqBiNHjyl6nvMo7X0vrbwiqm5/lHSeF4keVvo5vocAbnl8KoOaOeyLtI28vqoe4wcUJaoA676b/UPxsshhzH6sky0haZN/jJ/nzGDxPiCwE2MeHUZbh6dPXTePhab7yr62pG3k9clb6PLKA7T1djjO/Acx88WeNGQfX46bA49Zj4s9X49hJhP5sIRtfmxna17rGwZHVvLYjC9JBWJt17bMLe8z9t0txZepoUo7Rksrr4iqP3YtWLLNmJ13svjxefxssZdnkZnlgaeH/VpQ9rEO4Yx4YSJdAo7x348O0eG+dvglreG5aUs5aKxaxUp730srr4iq3x8Xds9Q6vVk8hK4ZyrjOzout48vR6+h2dz7iPUoOsdvGPc6w6PNZG79iLELNkLviXw4KNx2/i6n8V1PMqar45jEFo6ufZ/nPo3DUtpnzuyVxI6cfs41B/t150PjgdSTJ94aRHSxZn4Wtn76BK+vtRT7fAEgOwuLmwfmtI28PvkjtmIm1vh685P55d0ZLNxq+yHnApV2/JRWXhFVd1zZ7xksxC99gldWlfAemGPKd19w5hhH8xvQsHBXWtjz5TRm/ph17nteeA9hJrY8x43DPQfmGEY8+zBdHFeX/DuvP7+Ei9mFajkqIlKT3XMvN0e6QdIGZk+czCMTZzLv81+Ioz1vThlEc7dsti+ZTKeek1l2ANwiezNqhMPyvtF0bpDOroS97EpMcwg4csM3ewPzpk9m9orD1pLI1gwESNvLn8ve45mJk3lk4mQ+3pYNLvXofMtdxdbgm7GDj+dM5pkv9pINuAW6cfCLeTwy8T02pQHUI+xaoLzbLVICk4sLb742qzAxCuBiK6ve3evB09/aeip6UGvrgPOWoxxIgIxDW/jPR/N4bubLPDdzKVvPAA3a0DUSDvz5E78cyLKuIDmO/3z3Az/8echhrZkc+OF9nnttKVvTAHyJbRvlEJfzOZiYyPLvf8DZ2ZlRI+/D2dm52N/Lv/v+gr7kVKnIUILNAMfYvQHrfu9pndzC+jBMauAbQ9sGaRzcvY+Dx9JoO3KE9QtQShyLX5vH4q1p4NaAG4YNq2BXaDOWvUt5ZebLvLXyEBbMNOzRn0H+EH1TN5q6wckN7xsXKlON3B/nUdY5TmRfejYzQ/JG3pr5Ms/NnMd7yzdyIH4N/9mabF1B1iF++e4H/rPGmEAAMhPZ9N1HvDLzZZ6b+TKL47LAuQFtu0QBvtwyYghtA8ByzLoNr3z0JSt3Zpbj2gKwhR+2JAMeNGttHY/S3D6ChoAlYSP/NX5BLWWbU79bR7wFCI6xdbEOI7aJL5DG1l+vjMQoNf7YTWT9hmQwR9F3cDjmHj1p6wuZW9aUkojwIHrgRKY8bn0Mv8ZWHN6J6AAgaSfrNsRxIAsIbElPQ878UqjZ++PC7hlKvZ7Qlf4dAyBrH1++Zr1WvPXpGraykfW7sgAPgiPCgBiahVjTV55hkUQDsWHW7NTRuJ9IveY+RnVtgJk0ti6dxytL40jFTMOuwxnhOJqL4TOHa+5jVDtfsBzj53df5rnXPmKT7VJRsmTif19qew0v88qqY4CZ2HZdAegytC9N3cCy7wdemfkyr6w4RrHD9Jr7GNUxAJJ+55UJYxj7/hZSnQPo0rfnRbdUr5HHVeE9QzIHt5R4Qpf/vsDbj8yNH/HKzPf5+YgFMNM0th2UeozZ9kd5jhsHbUeOoEsAnFw3j7GjJ/LWljQI6ET/nhe3B5UcFRGpyfaeJBUgsDUj7u1Nc9MWXpn1Eb/Rj5jGQPZJUr26MumRrvjmZgM+BBXLjezls2u6c8PNt3LD/XMcA8Uc3DyeVxZ9y5sbEymWQl02h1ET/83ubOt/f95jTZ5iKj4ialriLzzzzrd8/OQWW+uAJLZPeY9ly+axK8mxZnm3W+Rc48Y8SPNmTY3FxERfVc271/sSO+xJnpvyJE/0DsOMhT3fLeFn4ODaL/nyr6O2G/vtHLSdL2YzpG5dyaYTthvZtL18uXw5/7VmQa2y9vLzD1s4mLCG3fYvGiZTUVzKxf5lplFoKLfc1Jf+N99EcMOGhV+Cqh2z8ctBGB36WCe3sD6MkxrsY/kT03ju1Tk8tyiZ2MYegIX4H97m54Sd/LzgJ/YA+EbRtoKdTE7uXkN84iE2fbHc9kNYGNHXwpHUVADqtR5kXOS8atz+OI+yznGS0qyf8QGtGTqwHcEuB1n/axypBzby5T7buW45xqbly/lygzF5CSSu4fPlWziSb/3v1kPHrH+YTEA7rg43A8n88sH7fLlhJ/EbVvKfDYfOf22x2fP7Tk4CnhGticVMl+hQwMLuTWuKJyMASttmyxp+jssCGtCsvRlCOxIbCCRvZ2UJ+d6arCYfu0lfrCQ+G+pdczuTekZh5hA/L91rrGZjxi80nKbNrI/GQdbS2B7WLvUn49dxsDDxFkB0p8uQHa3R++PC7hlKvZ6QzOkzgEc4PQf2JNYvla1rN3IQWP/XXjKBeo1bYw6NoZmvhYOJyeAfQay//YeMY2xdlUZ0ywg8AUv8D7y+aifxq97mh93W7Y0u9sOs42fO70XL7V7L4i2HOJiwkQPnXm4cbOE/S9YQb/vucXrfIevrcjEDMUSHma1DD/ywnPjEQ8QfOFnsemR/vpMn0oju1Z++IWZrPKAB5w4wVnE17rgqvGfIIiPFEAMgqgL3Bcf43xcbiU/cwtbDth/YXKyfM6UdY+U/buzs25PMkdRI+vbvRWNn6x6uF1zBmxQDJUdFRGqyXyfzzPsbOJTpRmCrXox7+V/EfTWlcNwh3ELoPLAfAwf24wZb/5LsMm84KuiGKXz/13/57M1ZvDlnFh8PjDDWuDBVvd1yxYmJvopxZSRAHy0lcVo9ZHFw3Q/857sf+M93S3l98hPM/MGazazX42Fee/0lZk55kuemTOeWy/MdslbLz8/nvQ8/Ij8/n4G39GNAv5uLlVU7R9LIBMCXOqEAcbw3eQwjRy+3fpkpkwmzC0AWqYUtd46RZLv+npN3LbdjpFo3Clwg9ev3WbjxGJnmio+9VuP2x3mUeY6nLGf+oo0czTJTL6Yno56cw2tjuxXvJl+WwG6Mn/U6r021JlJm93VcuX1npnE60aG4IvYtZ30i4BtBbGgn2oab4UwcP681Vizbpo07yQSaxvak3nVR1gRa3NpyHK81S40+di1r+HJjMniH0zQAMrf8wJclJlI4Z8zRmT8AtKZLtLWvbb32jzJ/7hyGR1nH3KgXa/zB5tKoufvjAu8ZSr2ebOG9d38gPsWCX3g7Bo19iflThxBrBjbEccACBIfTpU0E9Ugm/vdjZNKAZu1jaBxoawmcAmbbb6+ZZ04WPuXRFNuHRxk/zJa0XJnMMQyf+jrzp1uvazNHtrOOj2yUZyywsj9fvRj7D4Yx1mtqdianDXUvRI07rgrvGQIILvFErIz7gtKPsZL2f9nHjX17Aojta9uHsdZ7CUvWxX1ZVHJURKRaiudECrYWk0WTFYWNb1q8OyTw86z76RR7I3fO+pZdmeDb6hZG3WML5sXzcc+WhDUretz0omEFF+GJhwfR0heSVkymU7OWhH1RWiuCCqri7ZYrzysvTS/Wnd7IxcWFOS9PNxZXExaObFrOl8uX8+XyNWxNs7dxaMfw/jH4OR/j5xnjGTl6DF/uMywql8TBxESWf/d94f+/qY5d4+xSNttaCgfQtk9FZzBOIzMbwJfAMNuS5jACfQEsZFobfF6ACBr64dAyJZlfPpzB2PFPGSuWS43aH2U6/zl+ct1HTJkwnsfm/8CeLPCL6Uv/cjaO6TC4P7G+cHTVDB4cPYaRXzuu3H6dCSC4lK6L55fGyu2HrK3/7riaxmZIjf+dTcZq5/PXT9ZutKGRjGjWADjE+h9KaAl7BajJx+6epcv5efc+9uzeyJdLKzjkwTXtrBO+5FvItOeH8i3Wo9A3ig4XfAxenJq5Py78nqG064ll93JeeXo8Y19eyvokC+bgbvTvDrCGTbstYG5Iz2saWBOhq6wJ04bt2zm0BIbTWdbt8KsXZvvcMdOonjUhXlbSypJr/bdoubL59R/EDcFmMuOXMHb0GEbOt05KZVX0GRbc7NwxTHF4vpO/znGYNGwMIytx7NsadVwV3jP40rZv3xJ+fKuc+4LSjrGKHze5WPKw3kfMdpz4bQyTPr24zw0lR0VEqqVPWbbZ+gta89u+4PfP3ua9xd/w9QNX4wZkx69lHsA9s1i2+HXenHk7zVyyybZ94MO7rIrPBpdo7vx4Ce/NsbbsfG/xB7wy0OFpLpK7m7VVp1vdprQdOIo32xhnna+oS7PdcuU5k5FhLDqHxXJOR89qztP2i7onfmENaNS6P1c3KF7jwGlbc7zgdowZPIihXS/PzL+1wfLvf2Bb3A52793Lf6pj17hC+1i8fAuZgF+7h5n/4lTb2H/taGiseo5DrIu3Ng1p2vNRRvTvz4hxvWgKkLSddcVaGIZy7X39GTTsYboGO5YXaXT9w9Z1PD6UWA/rTLi/bIDo/g8wanB/brzm/FtUmpqzP+yKj8M45fGJjOkdXPY5HtmfMSMHMah3a4LNFnIcL2EpmdbWPr4t6T+sPyP6Wsf9dORpa5Lj6R9Gw9DWDIp1XPla1sVbAF863Pckowb3Z9Dg+xjV23oNKe+1xT5maMPIKDxJZuuqMvrCl7rN+/hy4yEwRxEdDiTGsbLUVok1X807dm0sG1n86hxmvvoRP1dw/3RoH4UnkLl9CWMnTLQ9nmD5PqzdxK8/9/i9VGrs/jjHee4ZSr2edGLE2GEM6t+NaLdMjLdKP2/ZiwVfGjYwk3l0HwfZzMEk8GzQAD+S2fqLNSF1cP12TgKE92LSsP4MGvYo1sbqyWxdX3rSKv4X+3J9ee7BQQwa/AAdS/lMAfBzs6XQPBvQODSKG9pbu2VbHWL57/uwAI36Tue1qVN57cHiLUvjf9nMSaBep1E8Mcw+Fvcwxgyp3GOw5hxX+1i8YicWwBzen9lzp/Pc4xOZ8viTzJ41lRExFbkvKE3px9j5jxt75VCuva8vHUJ3snZbMhBAl4fGMcI+nvqwB4rGN75ASo6KyBUrx3blbVC/vjFUKntd+7KX02ejpvHxtnRw8SHs2q7c1CGCQDdIS/iWGWPnYL3N8KFRu14MHDqKFybaWnH++i5PLDrMjLFv8nNiNm6hV3OTrYv6Te2aElTyD6kXZMaXa0nKA99rR/HmnHHc4JaObQigC3RptluuPEOGjSjW0rikx+C77jMuVs2t4b8bkq2/5t/3JM890AnPM7YxnGxSl/9gHcvRrQFte/akQ5OirwhSufLz83lt/lu8+Mqr1bNrnAPLhvd5btFGjmaB2b+Bbey/BnjmWzi5b2eZrWP2fPoGi+PSwDucLjf3pUszD0iLY/GbS23dnH/nzwSLtXVH+77c0i6AAwdKnj3DYg4rWkf2MX7+v4+srQq9w+jQsy9D7xtnXKTcatL+sCo+DmPTZuE0C9t9nnPcg8Zte3LLoPt44sH+RPvCyXWLWZwAbPienw9YAA+aXt+XLjHnDlHw88qNnMwHv9b38dyUB+jiZktOAmDh5wW2STNs++OWnu1oVs96DSn3tcVia1kGcGTLOS3Viiljm1PXxtmOSwvxv//g0BLsylPzjt2LZO5Eh+bWMQsPxG10CFj4Zbd1HFzPZu1o6xC5lK6c/XG+e4bSrice1IvsxC03D2HMY/fRJdiMZfdy3v3Rtti6/2E/xY/u3midLM0+KGjyzqLk2L6lzF4aR2q+9fy+5fpwPPPT2Lr0DRaXdV3Yt5R3f7RN2te6J7f0iICU4vc6jg7+YB1v1Ny4J09MGcfQEIvDdQ1Sf3iD2d/t5GRWLmZvMwe27Ct+PbFvJ75EX2/vWt+J2AbnXkMvRk06rixr5zHFds+ARwCNmoXTtFkY9bzNWCzluS84nzKOsfMeN2tZuSXLds/RjWhPh+3xjaKLfTz162No6G983opxCgqLLDAWikjt0bJ5KACRkeXso+UgISHB+ofJl+3xO4zhy653j+60iS1x8JTz2rx1Kz+uWm0sPkfL6BYAVfv6G7fnpjb1cAPS9nzLz9uMFULofFNra+K0hHhYh160beAG2SfZ9P0GW1K1Etm2j2Nb+H69bUKmSlDl2y1STuvXrASgQ7eextAlYfZtQENfSD1+jNTSfrfx8MUvN630uFQ7l+y48gigUYAnlrRjHC3sflkOtuXIPsnBJOMXVTN+wQ3wI5WjR9LOmXznlklvMSgc9nw9hplrAmjkbzm3ntmXhvX9OJpYPa7ul2x/lKDsc9z2XjtDZvIhTp6zK3zxM6WRaiy3s73PlLX/PQJoFGAu+fmr4tpS0jabOzF+1jBiTTtZPG4ePzuEpGyX89iVc13u/XGh1xPPwDDquVHxz4pzeFAvtB6eZHIyMblY4rJMZl8a1jeTWq5lbM9R4udTceYe45g/JApz0hqeK9Z13r6d574X1dGlOq6sx48Z8kv4fC/zvuD8yj7GLuC4sW9PRZYpg5KjIrXclZwcxZYgjYmOxrV8o0WTY7EQFx9frsQolyo5KiKX1aW6IZXa5Uo+roolR6tzb0IHV/L+qN5aM/zxXjTzD6VRgJnMLe8z9t0KjmdZy+nYrV60Py6z3uOY38WTo4cPsdvSkLax4dRzs7Dn62nM/KGkMSxrBh1XVU/JUZFa7kpPjlY1JUdFrny6IZWqcCUfVzeOnUP/CNj97URet77Mau9K3h/VW0+mLBhEU8ByZA1vvbyUrcYGRVImHbvVi/bHZRbTnyl39aRpgK1hjCWN+B/f4/Xl1rFIayodV1VPyVGRWk7J0Yuj5KjIlU83pFIVdFxVL9ofUlPp2K1etD+kKui4qnqakElERERERERERERqpRracrQ1A0a0wXvfCpasLnnyj7a3jqCt136++3QV9gnULr0Qet3Vh/pHS99OkctNLUdFREREREREpLaqwpaj1zHhjUUs/dj2eHcOc196hrF9Y/AyVq2wlnTr24ebr2tiDBSK7dyHm3teR4QxcEk1oWPPsrdTRERERERERERELo8qTI6a8fIy45qRwE+rV/HT+sOccQun14hneO+FIUQZq4uIiIiIiIiIiIhcQlWYHLVJ3897Cxfy3sLXmDbhfib/cBhz81sYebtnUR2vEGJjOzNg2G30im2Cv+Py1CGicz/u6NeZ2Ig6xSJgW7ZzP+7odx2hJTVJ9Qohtudt3NEzpoS4J6ExnRlwez+6xoSc26K1zO2yq0NErMO6y3w+ERERERERERERqS6qcMzRzkz951jaJn/LwMmLHcr7Mf3j4Vx1aClDnvkKOjzGwseuw/+shRzA1d0MyX8w9+HXWBt2G7OeH0KUu4UcC2A2k/jtXUxYMpy5n/cjNOkElrpBmC0W63LpcSx89AW+zoARsz5lQEgmGTlmzC7WZV0t+/n6hadYuAvwuo6xz4+lV5iZnLO25ZP/YP4Tr/FTBmVvF9bnd92yBa9WrfF3yWTTW/cz4+hw5j7TjwizdXtdzZCTb8aydT7DZv/m8B6IVB8ac1REREREREREaquqbzl6jlUkJoGrTyChANuWMvXhuxh47z0Mufcehi3ZRU5AS7p1BXpcR5T7fv71gDU25O77mbrMYVXpG5n1wF3W5f69ixyfcGLbOsTzDrPsCduyjyxmZ14Tbrp3CF5A2/uH0SsshZ+m38+Qe+9h4DPfstf3OkaM72NdtqztsgkKgZ/eeoEJT81g4SZPht3bh4i8XSx8xLrMwEe+Yl9eUX0RERERERERERGpPi5DcjQTSx7g4kpdgIzDJCaDV0gMsTEhcDoDi73qsQwyXELoOn44vUI8gUwyMorWZEnZx1bb/zOOOSxXWCGD48m2v5O/5cddmbg2CKcjMXSLDIJDW1gYl2mN71rMmgQLXuFt6MV5tsvGcvBXlvwWx969+0nM6EFUmJmMXav4uvA5T3DGuJCIiIiIiIiIiIhUC5chOdqZ0AAg/TRbAbx6MPntT1nyymSemfQSCx9qXTT254q5zFqWAE37MXbuByyZO5kBzYutrEJy8gCfOoRRBy93IM+CQ66VlLMWW/w821Uif7zdgbwcY0BERERERERERESqoUueHPXqfj1X+UDi7lUAdHxoCB29drHQ3nX+nS0OCctMtn76Ag+OvIsRL31Fom9rht17m8PaKsbf3QynT/A3+0nJAFzMxRKe/u5mSD/NofNuV0lSOHMWzO4lTBolIiIiIiIiIiIi1U7VT8iUtoppH1knIwpqdRt33BRD/YwtzJ8wi58yoOukD5gQc5iFD0/j64w6tL1nMpP7BbHtrfuZu6cJ/qf3k5gB0Jyxb0yna/pShjzjxdzP+1F/k8NER10ns2RMJH+/dT8z1tonZDrB2n/O5t3Vh3HtPJaXR3fG2zY5Uuj9c5jfx4tNHzzFjBWn8YoZwayn+uAfv5BhM1eUuV0z1lonZCr2/HhyxwvvMKzJYb6bM4v3tuQQ2n0kU/9R9Jwi1VFNmZDJ28ubegF18fbyNoZEREREREREpBa7mJxE1SdHfRyK8jI5vutXlsxbyFr7uJxtRzH/sR6EOlvIwYxl1y7OXBVC4lv383XMG0zvHgQWCznOjrPNl5CcLCk56nWYvZ4hRNiah+Yc+433np5vnY2e5gx7/knuuMrTvnXF42VsV8nJUVtX/FdG0THA9v/T+9mb14T6+5UcleqrpiRHRUREREREREQqWxUmRyvAK4TYpnU4cziOvfakqSFG3mn2xB0+T9f2kvlHxBCWvY+th22TLzkKaEJsiBcklxAva7vKUObziVQzSo6KiIiIiIiISG1VPZKjInLZKDkqIiIiIiIiIrXVJZ+QSURERERERERERKQ6UHJUREREREREREREaiUlR0VERERERERERKRWUnJUREREREREREREaiUlR0VERERERERERKRWUnJUREREREREREREaiUlR0VERERERERERKRWUnJUREREREREREREaiUlR0VERERERERERKRWcgoKiywwFopI7dGyeSgAkZGRxtB5JSQkWP8w+bI9focxXC307tGdmOhoXM1mY6hEORYLcfHx/LhqtTEkIiIiclHMES64dTDjGmXCpZ61nUreyXxyduaSvd6CZW+ecRERERGpYmo5KiJXrN49utMmNrbciVEAV7OZNrGx9O7R3RgSERERuWDed7tTZ5IXHl1dcanvDC6AC7jUd8ajqyt1Jnnhfbe7cTERERGpYmo5KlLLXcktR8c/PBpXs5lFn33OsePHjeESNahfn3vuHEqOxcLrby8whkVEREQqzG+cJ64tTABkrsghe5OF3MPWVqKmEBfc2prx7OMKQM6OXFLnZRZbXkTEkVqhi1QutRwVkSuWvcVoeROjONStSGtTERGR6qcOXYc9w/x/LuLdcdcZg3IJed/tjmsLE3lJ+aS8lEHGl2fJPZAHuUAu5B7II+PLs6S8lEFeUj6uLUxltyANdsFjshd13/Ch3hve1JlsxsXTHjThPdebuiU9xlqTsxfLZbgXge944h5mjIjIpaBW6CKVT8lREZErhKn9HOq0H2wsFpGaIuw2Jr80nbE9jQGRigm9fTILP17AhH4xhPqY8XbXD36XiznCBY+u1hahaf/MsiZFjZzBtYWJ3AN5pP0zCwCPrq6YI1yMNQFnPMZ44o6FjC+zSP3VQkGwB3UfM+EEQB5nV50lo9gjh1wXZ5xdKqfDYP6uHLK2W7AcM0YulDMes33x7WssFxEjv3GehdeUzBU5pLyUQdLYNJLGppHyUgaZK3LAdg3xG1f4q8nF83fG3N+EqbExIHJlUHJUROQK4dmtP6Hd2hiLy83nsZ20fP0rKvE2SkQqIPa27nQMg5T1xohIxYT55rBp6SxG3D2fTenGqFxKbh2sienMFTklJ0YB7yHu+I3zxLOPK7kH8gqTG/Zli8vn7OvppMzKIXtNLpZ/ZXNmaz6EmbHWLiB3eS7Zjo80Z8xueWSsLPn5C3k64dzaBVOUky3RCk7Bzpi6ueDsW1StYIOFM/Mt5FmKyuxKqn9+Trh4GMtsfJ1waW+ybpPh7XAKtD6XS1jR9pbEKcwJl24lrwMzONlfszFmY39NLsHGiMilVemt0B21dKXOXG+8S/uBNsSEdz9PPKONAblSdBz3Bks/ns4wY6CWUHJUREQAyIrfTMrWzWQbAyJyCbTmpquCyNm/nWUZxphIxaxb+Brzv91CijEgl5xrlLUre/amokyik1dRKs+9gxmP7q7kny7g7O/WOva69mWNCpKK/9/Z1wnS8igt9el2vSvOh7I5u90YATDh+44v/tM8CZjlTZ17PKnzmA91p7jjPduHgMme+A32ImC2Fx4tbYv09SDwHQ+sbdfAdbIvgTM8DPW98Wpvjbvc70XgbFeK2sFaW4r63+9sW5cXHmZwG+hL4Du2csDlLk8CZvvgP9Qd34d9qDfHHVd/6xrMY72pN8MLvwEe+E30JmBiSe+VCe+3fQmY6IXfAHfqPFp8HQSa8JnjS71Rnvg+6E3AHC/85zq0YDU74faUD/WmeeE3wBP/ab7Um+mKSylJVJGqVPmt0B2YnfEY5o7Z0xlnHd+1ltndG1d3c+G1vbZRclREpNpqgUtof9y7zsQzsk8JLRpa4BI5Hq/2w0pvcQHg2wfX9uNxD+5gK2iBS+hovLqOLrZc7g93cvjD6ed+ufLohqn1NLxadyuzZYaIXIQ+txAbkMnfa5ei3KjIlcM+UYp98iWvW9zwf8oLZ18nTI1c8B7uQUEupL6dSf4Za7d3e137smVq6Yp3lBOWzZZzP78Bwl3xCCsg6/dcyupU75SazalH0jk1IZ3TW/NxDnMm7610Tj56huQJmWTjgnv7MrbHC3JeL6qfZXHGtWUZ9e1+yCLpoUyygexlaSQ9lEbKB/kQ7opPN2eyF6VxcsIZTk3MINPiild/Z8CER0tnzn6ZTvKEM5x6NJ2Tb+Qa1wzkkvFkGicfPcOpCWc4+WwWOW6uuNuStm6jPHHPzubUo9bXfXJWDvkO3WecB3vg2ziX9OnpJE9I5+TUTHK83fG7/zyJJpEqUPmt0Iu43OOBF3mUdBaVyNMJ59YmzK1LaLXtGLuI7mhOgU442Vug+1pbf7uEld7CW6pCHSJiY+h1+3AGdI4h1MsYt/KPiKHX7bfRK6KOMVQ2rxBiYzszYNht9Iptgv13KyP/iBhiQy7iYCqncnxiiYjIpTeNkLe+4qqJM2kysD+NH32TmFe+w8f+qWEeSb0XviL6sdGEDZ1M5KytBDt294r5mOYLthI+dSMxL8wh4q7RNJv6Mc0e/4rw178icsJoGg0dT/RLRet0G7mRlrM+xs1h+caPreSqWW/S7J7BNHnwPVpMmePQ8kNEKsvN7cLxytjH+hXGiIhcKZzM4HadGZd6ztSZ5IXfWE+cTHDm/7LIPVhysqNMttZezvsySf205NSneaAb5rRsslYZI8UVnCkoTJ4WZBcABeQdsBVY8rGkOVQuSW4eeUdsf1vyybM2Wrtgzh1MmLNzyTnkhHOYE84N8slNAVNDZ+u2nQHXTm642luzltDFH6AgzZasCXPCKanoNYIL5gaQu9NheIAjjnEnXFuY4ICFs/bXlZRL5s58XCJMuheSS64qWqEDEOuGb7sCzryXXfIPLAYuHeytzD3we8iHgCn28Y7BqZMbdeb4UHeEOz4jfKg31wefvkXb6DrZl8DJjttibblub63tOtmXwKfc8JjpS70ZPtS5wxmXobYW5APc8XvMm4Dpjq3QpeoMYe4nC5g7aTKjbu3DsDHPMP/tlxhhm4iv66QPWPbhHOa+sYiF0ycz6rYhjH1pAfPvb26rMJkln3/A1K5Fa+w66QOW/XMyXQE6PMbCD+cw/fEHGdbnNsZOeYmFbz9mjQEjZn3KsjmTmfr2pyx86RkmDxvK1H9+ytIXhlCUo41hwnxj2YVTclREpFr6giNP9SRufCx/T4gl/rkVZLg1xc/W2sE05H4aBCRyeEZPa/zxKZw4p/+kG+ycTty4WP4efy+Hj4B7CJyY1pP4CbHEv72ebId1nssNl5QP2TnOug07fz2JU2iLSvnwEREHXkPoFu1Jyrb/8J0xJiI1Wt7JfABMIS4UWOD0qxnkncjHpZ4zzr5OZK3K4eyG4pk9U4j1q7992RKZnXGf4oU3Zzk9t5RWof4mPKKcyP49p1xJj+rEydMJ3Mz4POZFHdvDKyAfy+F8II+MuZmcdTHjO9aXenM98Oh0Tvs1a4LzMW/qzfXG/zEv/N/wtP4AbIuV3X3YCSc3wLALCrILwNdZyRm55KqkFbrZBe/73chbkcXZfcZgyQoOnC1sZX7q1zyc7OMdm13wGuqG844Mkh89w6lH0zi1MR/3ge64ldYksCTBLjj9dIaTU9M5/S9wbWsi7/cz1hbkE9I5Oa3mXc9qphXMfeJ+Bg6/hyH33sOQZ1dx3L0JrXo4VPHy4vjScdY6w2exLhlCI0v9YlnctqVMffguBt5rXf+wJbvICWhJN4dkKg2CYfV8pj31FFOXfM53cadxbdKSgfYvo7E9iAq08Pe6yul1VcpZIiIil9cOCtISrV3aQ7vhlJTm0CiiAz4R9eDAZlKOJFqLLMvJLaGVhiVtue2v9eRlA5Y0ctNsy8QlUsIixeQcW1L4hSs3OdUQFZHK4NWvJeHmE2xbucUYEpEaLmentaOqW1trJi4/tYDTczLIO5ZP7v48zvzrrGGJorr2Zc/lhOsEL3zccjg9N6fEiZEATEPdcbPkkPWtMVL95afkg8VC2gRrl3j74/RiW7bySC4ZU89wckI6qXud8b7LzTYhlYM+7vhF5XNmqr37vbX7vlU+uWng4lva1+F88s+c+23Zyc0J0vJrR3ImoAmxsTFFj5gQ/UBeTVRWK3TXRz1xP5ZJ+pcl/rxSovyj+YXfDfIdf8DpZMbdLZ+za/MK43lf5pCNGbfri6qdV1Yu2avyKUgqoCAtn/xUMMe64d7e1oW/lOudVLbTJB7OtF0HmuC/K7OEBORpTvx22vb3Fk5UZALIjMMkJoNXiPXawumMc3ft2SOsWfobW/fuZ+/hTDZ98QeJ5ua0vd3axb5tzxjqZySwvpI+40r7NBARkcuqG76PbSVm7ns0m/AmUa8PpmgUlxaYvIF8TZ0kUvOFMKxDc1wPb2HpVmNMRGq67PXWr3uefVwxNba2N8xPK+DUc2dIeTnjnJaJpsYuePaxTodhX7Y4J1wne+MXmEvapznkudu6nYc5jM8HYDbhHuNMXpwFS0mruZQsgK8LpkDrf51aumA2jJVeADgH2b6amqFgcy4Wsyte9zgXjWloBudg2wzz9teaWUDu8VISO8bEZktnh6J8srfn4RTljs8dLrhEueA+tniCNWerBRq74dnWVhBswjPamby9ubUjOdrvQaZPeabo8dhw7G+FXHqV3QrdqY8HPhF5ZHybh5PtGgKAjxPOtnO1QjyccKKAAsenSrGemy72c/sCZL92hvQkZ7xH+FDvTS+8+5fUSlwqX3NGvPQBy95+iWcen867i/sRYaxyMbx6MPntT1nyymSemfQSCx9qff4fXw59zrpdFiJiBuFFa3o1r1Opva4u/CgVEZGq03syjSLTOTItir8nxPL3+C+w/y4HO8g9A7j5njsIuojULGH9aBsCe7d8jq1Nt4hcQSx788haa50UxfcfHoUJ0pKYGrvg+w9r1jBrbQ6WvSWl4FxwD3cCbzO+D/sQMKXoUeeOoq92zoNd8TBbyPi8pHVcWnm/5JCTb8Z3hm02+kHO5BcbwzSXrE35mDp5W+N3OcM+C6mf5+DcwZt67/hQ701fAt/0wbuzEzQw4/uyL4Fv+1D3DV/q9XTh7LfZ57Y6WplD5hkTPjOsy9c1PG/eokxOb8zD3NEDv/vdMCVaiq2jYNlZTm93wvMB63YHTvPEnJRF6geX/z29JBY9xcChdxU9/jGLtcY6cslUdit05zBnnJ1NeBdeRzxwA9x6+hAwsowxSkuTkk8eTjg5Zpj8rd9U8k6cm5wtt8x8zs7K4OQjaZz6NR/3fh6428a9lCo0bCQDIs7w0zN3WbvVD/+WvcY6F6HjQ0Po6LWLhQ/Yuu2/s6WElqlGmSxZm0BGk9YM696DqwIqt9eVkqMicsXKsTWVaFC/vjFUKntd+7KXTbHvTqE4xYRibUcCsJ703SchuANB7awz0Ds1noZ3gMMiIlIjtB3chvqWXWz6d6YxJFIJfmPGP+5i2OzfjAG5hM58cpacHbm4BDrj/5QXXoPcrUlSE2CyJkW9Brnj/5QXLoHO5OzI5cwn5yY6rHJJe8g6q7vxkfJBUQIi/9NMkh7KIvuc8ciNrOtzXDbvgwySHsrCmtIFyCdrkkOdH7KKxXNmpZE0yXEcQEP9fRZSH03j5Mx0Tk5K49T0bM5MKf6cue+f4aT9dSyylhesOsuph9M4OfMMp2anc/KRdNL+VQCHLKQ+nMbJF85weo61PP2HElqPWvLImGhdPnlKGsnTz5I2KY20H+wVCrB8kGXtsj8pkzPf2p63cLMKsMy3dt1Ptm178nSHCZxELqHKboVuPc8dryHWYSeyl6WRNOvcZOp5bcgl+4wzHjeZCmeUdxnqihsWsn+11ckDAl0w2eLOPc4/uZmTvRWrBfIOFRhfplwk/xDbcBkBnenYyBOSDrMJ43dRT0K7B5Y6m3yJcnLIwZPQq6wTNHmF9ODakKK2+WaXom+2UIe2TeqcOzRKSVb8wZ6MEDre1RL/Su51peSoiFyx4uLjAbjnzqFMenRcuR733Dm02LKXzcoVJJ2pR8j0nUTPW0nUIF9yHVo75H76NAcT3Kg38mNaLthJi0e74XxG3exFapbO3BxTh5yEDSw5/8/lIlKDpc7LLGxB6tnHFf+nvAic70vgfF/8n/IqTGJkrc0hdd4V+GOJBQoOFVhnj6+ggkMF5B8qoMCQ3yk4UnK5UWnP69zehCnKCSdPwNcJ8wNuuGVbyN5oqJhpe54S1iFyqVR+K/TKlkfGoixygz2tLb3f8aVurBNZn58t/JEmZ2MO+d5u+L/pS+A7Pvi1LiCvzMudC57PWOsGvOFD4D2u5P9+lrOHjPXkQg0cO4cln3/KsrfH0rHuadZ98SFbAf79K1szguj1wqcs/eQD5t7mT0ZFxhRdv4ptSVC/53SWff4pS2b0o0560c3u2pUbSHRpzoj3F7H0kwVMaGrhvL/lAbCCr7edxr+OmZ3rK7fXlVNQWGQJP7NVsgFv8uOEFvgAnNnBnH6P8IWxjkgJOt31NJ0Cz5CwfB7flHMGPamYls1DAYiMjDSGzishIcH6h8mX7fE7jOFqoXeP7sRER+NqLtdvUeRYLMTFx/PjqtXG0GXQApfQppC2mTz7JEpGvn0wuSWSm1Q9338RKUOfZ1hyfzh7PrifaSuMQRG5EpkjXHDrYMY1ylQ4g3TeyXxyduaSvd5yiZIYAuDUzQ2/QW6YbVPYF6RYSP80i+xKbIkkUtn8xnni2sLa7T1zRQ7ZmyyFs9KbQlxwa2su/LElZ0fuZfmxxSnYCScX2w8TxqCnE84BUJBcQEE5N80p0Akn94otI+VVh4jYELyBU3viSCz2Y70tlryPrYcv5I33JDQmnLqcZk/c4XO7zXuFENu0DmcOx7E32RgsXej9c5jfI5Mlw6fxL2PwIpyTHH37jblc0/pqx6JzrFy9hinPTjcWl+ru179nXBt7s9kc/px7E2O/NlQSOccdzP3mITr5neH3mQOYoC+OVeJKT46KiFRPngx74R3uqLuZGQ+/Zu3CJCIiInIe3ne749HVsVvyubLW5pQxPIdIzePl5UmG+/VMnzWCpvsWMmxm5SaIXLz8Ap5zLBg6eBABAXUdi85x9mw2X//nW2NxKUby4Pg2BJtPceSwBz6+LviY8/i/FduMFSGwPTfeche39exEE9cs9h885jDWTQOatBnAwCH96XVVI04e2UayQ/I6oP1IHrj9Jrq0b08TTrDt8KmioHcbug8czuCe3enUpjmuJ46yP/XM+WPFNKBJm/Y0Cw0i+8hhTI1uYvBdQ7ixUxvqHT3AztQz+BSWlbANha+tO53atz/n9fk06kJs8+Z4W/aRnNmMyFuGM6JvT65t7M3uuN1kFa7I4X1o34VOJbwXYFwewq5tQ3iwdduL1tWMTkNGMtT22jmwmUOF62lG5LVtCK9fh/Rjx/CJGsbQYf3p5VAvwF7Wvug9cFT6Pim+brcS3ksAAgcy4p4I6pDD8Z1JnHCNINiUxZES949cqKAA63SfAQEVH7AyOdn2E4+zGydOJhnDIiJSKgvbfv6Kz75dz1FjSERERKQUOdtysezIpSAPnN2dcPZwggLIS8on+y8LGZ+f5eza84w3IVLDDJ++iOeGt6H+mT94b8YS9lbyIX5Oy9HIZs1Y+N7buLiUPIZFXl4ew0c+wL79B4yhkt37LmtHNsM1dTMv/jeAp4c0gqwdzOv7CJ8UVmpA9ydeZfotDRwmHIHkX+bR75mvocVDzJ9+B9faB+MF4CCfdBvBPNoz7r3nuDuq+C8nyb+8w53P/Iv0FhNZNPcmIq1DbticYfWzA3jyRBmxc3rU2lsx5nBk3xmCwx0TyGfYvw+ahHsXK1s9cwBPrgAeWMj64Y0cYlY5O7/nnlFz2A/c+NLXPN/Jm5zDBzlZtxHBDttUVG8AL38xju7F3gcg7xSrX77D+ly0Z9wHz3F3s6L3Iyf1DPh541r4ngElvS95p1j9yiM8+f0xYCKL1txEJKfYv9ubJg7rI+cU+5O8aRLiWHaQT0aNYN4+rNtQ1j5xWHfCTlcio0p435ovZP2Qc9+z9N/fofdTldl4WtRyVERE5Mqx7PNPC/8eOPSuUsvk0ijpvf9s0Ue4u1n7ct95z32czc7m4/fewc/PD4B7Rz1Eamoq7775BvWDggB48JFHOX7iBG/MmU3jMOtUzY9OnMSBQ4eY/cIMIps3A2DSM1NJ2LWb6VOnENuyJQDTZsxk6/btPD1pIte1bQvAi7Pn8MemTTw+7hG6dO4EwKvz3uSX335nzIOj6H1DDwDeevc9fvx5Ffffdw/9b7oJgA8+WsTy779n+J1DGXzbQAAWf/Y5X3y1jMG3DWS4bfz2L75axuLPPqf/TTdx/333ALD8++/54KNF9L6hB2MeHAXAjz+v4q1336NL5048Pu4RAH757Xdenfcm17Vty9OTJgLwx6ZNvDh7DrEtWzJ96hQAtm7fzrQZM4ls3ozZL8wAIGHXbiY9M5XGYWG8MWc2AAcOHeLRiZOoHxTEu2++AcDxEyd48JFH8fPz4+P33gEgNTWVe0c9hLubG58t+giAs9nZ3HnPfVDK/hQRkZrvnOQowD9G3Ms/bB9gRv9c+DH//GiRsbgUDXhowRLuawE5m5fQ9Y0GfPZRT5oA2z7syQMfW2v5DHmTL8dYxyTNSdrN72sPkNawMcFHv2PsvGM8/cmL3BoC5J1h/4bN/HnUlSbXwJ/3PU3CtH8xt2ddOLWbTz5Yys6ggYy7twUBnOK/j9/B77dbk46c2s03y+I44udNcMO6nPn3RHaWEZv3p/G12JOjwJlj/PlnHPuzGtPjpmYEUHJZYSLvgTl8djVsTThFDuAa0Ya+beriyjG+uW8YL+4rSo5CDsnbNrMqIYcmnbtwbQMcEsEDeHrBQIJP7GJ/MoA3sTe2J9Lb9v6O/5AmE5bw2YAGQA77f//F+l51bs+1DVwd1nMTz38+kRsbQPK273n3o10EDx/JfW284dgGxg59mj8LE5iQk3SQP//cxRG/GG7tZE1gl1SWsLQn97wFnc6zT579s2jdpB7k9993ccSjOTd2b4SP/X3bGMOi29rQpJE3rkDywYMkZ8HJvxYz4Z2Vhn0jF0PJ0eqp5YKdxqJqIz87kx3j2xiLRURERERERGqcEpOjLi4uLP7wfcKbNC5WnrB7NyNGPUxeXjkHCvcex/tfDaCVaw5/vnUTY5e24elP5nBrCOTs+Jp+o+eRDty3YCUPtQCSNjBh8NP87riOa1/ky1fbEwxs+3gYD3x4zCE4gJe/Gkf3uo7J1gZM/GgJg8OtybovGn/N0+2tCdBP5r/CvJW7C5e+dXbpsXMVJUeLWi+Wt8zInhwsGkuzMDmauplnb53IfwHG2FtPOrT4NChcbvf3dLh/DuM+WMndzYB9K+l934ukU8J6us/h2+fbEJCzm3d6P8hHAN5P89m3PWlS+FxFCUx70rNou8sqO/8+uect4zKU/L71mcOPU9rg4/A+SeVTclREREREREREaivrFIkGeXl5PDvjxWJJ0JLKzsfn3ja0cgXyjrF/b0+uvbYuCYnW8SJdm8UwzBtgAFc1sNbPSTpYPDEKcG1DggE4xZGtjolRgOYE23q3txq5kvVrVrJ+jTUJZ/fNsg3szwHqNuPuae+y/quFvDy8Jz7niVWuZtw44V2+/OZ71v7wPT9+3p6Gxirl5NPmIV7+6GvW/vA9a3/4mnFXOXZJv4Mmti736Ud3WROjJYkJsLZ2dW3GQ2ts79u31ha9F+/8+0RERERERERERKQ6KDE5iq2V6MJFiwv//+HH/1f+cUYBaMCIa2xjRro0YvCrTzP/1aeZ2N6WzHNtRtshtqyojauLY6LPyBW3UsM57F+9ki/+7fj4mi++A35/kTvvnscnvx/kyBmgbiO6PzCRufc2KDtWiW584VWeH9CMYNczHDl4jKOpxhrlFD6Rt2bfQfdwb7KTjrH/4ClDAvQU6bbZltzqlDG5jj2/nXWQ1cXes5V8sfg7vjFUvzBl7BMREREREREREZFqoNTkKMDC/1vC+g0b2bY9jo8WF02fVC7hI+lkHRecI5sdE2QbSLBNNt6q83B8+Jq/7Q1CQxpztzEB+udRjgDgTWS79obgZvYdA3DFh83Mmfeiw2Me3+yzVUv6mnlPjWBQvwf5ZLe1fpOrupw/Vinu4MZY64va/90j3DlqBPeM2nBhM9PeHEOkK5C6mTf/3wjuGTWChX87zty+km2JOQC4NmvPuBYADbi2juFNtb+nHt7wp+N79iJz3v8X+4vXrqBy7pMKccW1jrFMRERERERERETk4pSZHM3Ly2P8pCd5YMy4CnWnB2hyW4ytm/Yx/nzDMUH2NN/8bU3g0awND4bDR19ttraA9G7BuG++5rP3FrLo/77my+fvgD//xWrbUKDBt7zIj58vZNF7C/ny23cZx0oWbrBmVgO6T+TH/7PGFr23kM+++hcv94FxC77n2/9byPsvPcfEJx+lu60xa/qZU2XGKk9Ra87gdhOZOO455n7UxToZUUWdySEHwK85/Z98monPv8u4a4snPr/4YCUJOYBrI+5eYO3SPr+PrZ+73Z//4veDAHXp/oLt/X5vIYveW8K3n7/IjcVrV9D590m5rThmSyK7cu1DX/PZ/33Nl9MGGGuJiIiIiIiIiIhckDKToxeuDXdbp1mHYwdYYWgt+MWG3dYkHw249rY2sGIOTy3eTXIe4OJNk6hGRDbyxi0vB9jMvCc/ZPVB6xI+DRoRGdWIYA/IAfbPfZY5q4+RA/g0ssYioxrRxC+HtFNw5HQOAY0a0apTFwbf1IJgV0jf9jXPzlxZZqzyrGThdztIzwPXRm0YfHsXrnU9xX7HBp/l9fFPrDqcA3jT6qaeDO7SgOR9hkTujjmMmb6SbcfOkJOVQ/K+DbyzwtY0NyeHNAA2M2fCh6w+nFP0fkc1IjKqAQE5OSQXX2OFnW+flN9ivlhpXQ8u3jRp5I2bi7GOiIiIiIiIiIjIhSlxtvrLKSCqJ+E+OZz8+5dzE4jebbj2qrqQfoA/dxpmlrfH4Ny4Y+xEHH8edJjYqaxYZQpsz7WNvc/dtgprQJM2MdRzKeU9KkHhjPanNvPkbRNZ7RDzadSFqCBXANIOrCQhySF4scraJxXSjMhrG5JTztcrFaPZ6kVERERERESktqp2yVG5SN2f4/27vdm3/SDbfz+Ad9ebGXZLMwJc4MjKOQya/r1xCanllBwVERERERERkdpKydErTfcX+fb59hjnqs/Z9wvTxj7HarW8FIOakhw1mcyYXd0wmczGkIiIiIiIiIjUYulpKcaiclNy9EoU2J5bb+5JpB9ADkc2r2T5L7ZJr0QMakpyVERERERERESksik5KlLLKTkqIiIiIiIiIrVVFc1WLyIiIiIiIiIiIlK9KTkqIiIiIiIiIiIitZKSoyIiIiIiIiIiIlIrKTkqIiIiIiIiIiIitZKSoyIiIiIiIiIiIlIrKTkqIiIiIiIiIiIitZKSoyIiIiIiIiIiIlIrKTkqIiIiIiIiIiIitZKSoyIiIiIiIiIiIlIrOQWFRRYYC0Wk9mjZPBSAyMhIY+i8EhISrH+YfNkev8MYrhZ69+hOTHQ0rmazMVSiHIuFuPh4fly12hgSERERERERkSuMWo6KyBWrd4/utImNLXdiFMDVbKZNbCy9e3Q3hkRERERERETkCqOWoyK13JXccnT8w6NxNZtZ9NnnHDt+3BguUYP69bnnzqHkWCy8/vYCY1hEREREREREriBqOSoiVyx7i9HyJkZxqFuR1qYiIiLVTx26DnuG+f9cxLvjrjMGRURERMSmCpOj1zHhjZJvxoY9v4ilb4ylozEgIiKXnFPsNOr0H4/JGBCRSyvsNia/NJ2xPY0BkYoJvX0yCz9ewIR+MYT6mPF21w9+IiIiIqWpwuSoGS+vkm/GXN3NuHp5cW5EREQuNddr+xN6cx88jQG7yPdotmAn4UP6GyMiUolib+tOxzBIWW+MiFRMmG8Om5bOYsTd89mUboyKiIiIiKMqTI5WRB0iOvfjjn6diY2oUzwU0ITYnrdxR88YIgKKh+z8I2KIDSnla71XCLE9+zGgcwyhXsZgkeLr8CQ0pjMDbu9H15gQylisDEWv6dztLuP1iohUN0k7OBW3g9N/bzZGRKTStOamq4LI2b+dZRnGmEjFrFv4GvO/3UKKMSAiIiIi56jCCZk6M/WfY7kqYT7DZv9WLDJi1qcMCNjC3H/MYm3Ybcx6fghR7hZyLIDZTOK3dzFhCUQNmc60gc3xsljIwYyr+TTr3hnNrLW2dbhsYZNna9oGQMamc5+H5sOZ+0w/IszWdbuSQQp1SFl5FxMWlbKOtyyMfX4svcLM5Jy14OpuhuQ/mP/Ea/yUAV0nfcCEyATrtsM5r7PrpA+YcFUOKS518MICZjOunGbde48za3UmlPF6RS6HK3lCpkmPjgNg9hvzjKEyXehyVcbcAZfwDrj7J5L51xcUWByDLXAJ7YZ7BGTHryE3qeL7wW3kRpq3S+Lg6IlkRPbB3T+Js1uXkJdlrOno4p9XRBz0eYYl94ez54P7mbbCGBS5UKXfj4uIiIiI1eVvOdrjOqLc9/OvB+5hyL33MOTu+5m6DPAawshbm3PmlxcYdu89DLl3Gj8l1aHjTcOLlm0QDKvnM+2pp5i6xNiiKYRRo/sRYdnCfNu6h82OI8fdUM2wjrb3D6NXWAo/Tb+fIffew8BnvmWv73WMGN/HsGAZvHLYNtu6/JAHXrBu95AHaUsZr1dEpJiZhC7YScTj39H81Y9p/tBImtw3k5gXP6NwtJLAaQTP+oroSaMJGziaqOlf0WzYSGAkgbN2ctXo8YVr83l8Jy0XrMTf31YQ+h4RC3YS0sOaHIdQ6s/6jMiHRhI2bBrRc36jXqw9Zt2W0L62/5b6vCJyoW5uF45Xxj7WKzEqIiIiInJJXf7k6LEMMlxC6Dp+OL1CPIFMMjKAvi0JN59gbxw0jY0hNtaV48mZEBhCV/uyZ4+wZulvbN27n72HM4uvl+toGgQZCb/yk617Wkbcac7pqVZsHeF0iwyCQ1tYGGdb367FrEmw4BXehl7GZUuVSYp9+Yw4Fm45DAEhtPUq4/WKiJTAlc3sezyKvyfEErd0B3neTfGJBAjFa/gw6p5Zwd+Px/L3hFj+/jER9+sH48OHpO/NxtSkDW4AjMcrBAryQ/Fqb014Ol3XFE/LDk6vSrQ9UzrJb9xM/IRY/n58IoeP1aPBkGklTNJU1vOKyAXxGkK3aE9Stv2H74wxERERERGpUpc/ObpiLrOWJUDTfoyd+wFL5k5mQHPAy4wrQbS9fzLPPG593NHUTM6xw2wyrqNEXpgrPONTHbzcgTxLsSRqylkL+NQhzKGsIjLyLIA/9duW8XpFREqQl7KHXHs3+hNp5BZGhuEXDpkHNkP9/phC++N0IolsAnGPgbMbd5Dj2wyfcCCmDT5s5vj2bHwihwGh+DQLJW/3eodrXSq5R2yJUstyUrYkQkBTPM+5jpb9vCJScV79rD8Ib1u5xRgSkZouoAmxsTFFjwuez0DkEtOxW71of0hV0HFVqAqTo6fJOAteAeGGN7c1QT5A0mHbmJ2ZbP30BR4ceRcjXvqKRN/WDLv3NkjOIIcTrH/V1v3c/nhm8bmtP0t0mJR0MPtWZOfuJyUDcDEXW8bf3QzppznkUFYRoe6ewAkS11L66xURqRBfnM3gcc14mk2YaX0MaoFLViJnE4C/1pB6ph6+Hfpjim2Gaf9mTsbtgZAWuDEM71BI3TLLuNIilmzAF7dzhqI9z/OKSAWFMKxDc1wPb2HpVmNMRGq8fg8yfcozRY/HhluH2hKp7nTsVi/aH1IVdFwVqsLkaBxrEk5Akx5Mu6c1/lhnju81ejhtAyzsjV+FtahJ4SzyKVs2c8ie+Vwdxz5LEG2HDCG2MFNZh7aty9vMchVr4k/j2vxGZozuR9fO/Rj7fGfsI+iV7DDLth6GsOuY0Mc6i7xXzAh6R5rJ2LeZnwBLXg74BBPbHOus9t3bEGocx5Qgrhpifc1eMbfxyHVB5OyP48eyXq+ISIUkkZsFWRumWLu2Fz5uI90CsIDU3dl4NutPnWb1SE9YAut2kO7bDK++bfBlB6nWX6hK5OTpBiRxNs4YOd/zikiFhPWjbQjs3fI59kEuROQKsugpBg69q+hROKmrSDWnY7d60f6QqqDjqlAVJkdh07z5/OtviOo3mYWff8qyD+cwtnsQKesXM2PRYQCa3voY8z/8lGWLF7H0k+n0qrOf7z/+CjK+Yvo/f+NM2G1M//BTli7+lGWfL2BCv5bGpynV2lfnsnBTCvU7DGXsiD6EHUzghLGSQeIH7/Kvv11pe/8Cln3+KUum9SEo+TcWvm6dIWHd6jiO5wXR64VPWfb5B8y6tQ6n04xrgaDu1te8ZNoQotjF1/9cTGJZr1dEKl2OxZqta1C/vjFUKntd+7LV1xek78/G85qR+AQX/ezj1HgwLra/z27cQU5wBwIDE8nYkAiW5WQcqUe9ni1wKtalHiAQ7x6DcQIInkzD9qHk7dvMmWJ1KNfzikj5tR3chvqWXWz6t3HsdJHK8Bsz/nGXZqoXERERKYNTUFhkgbGw0gU0ITbE2lzy1J44Eo2tJb1CiG1aB/JOsyfusOELuyehMeHUdYEzh+PYm1wsWDFeI5j/YR9yvrmLCUuMQQP7NifvY6txsif79pYQ6zrpAya0PcHXQ59iaUgMTd0Os3Xv6WJ1yn69IpdWy+bWBFdk5Dn9p88rIcHWj9rky/b4HcbwZde7R3faxMYai8tl89at/LhqtbH4EppJ6ILBeGycxa4PP7QWxXxM87EtOD2/HUlxgHkkdZ8cT3CwGwXZ2eDmBlmb2TfhTqxXptHUf2U8gfnr2TX5XrIB012/cVXXepz6NIojtp8F3UZupHl0GqezQqkTaC0rSNvB/jm3kZFUtC18HUXiD+V5XhEpn85M/edYWh1czJDp3xqDIiIiIiJyCVya5OhlEttvCOGn49j2dxzH3a9j4P0juCPyNF8/9RQLL3QA0fNwTI4uNAZFqqErOTmKLUEaEx2NazlnaMuxWIiLj7/MidEK8u2DydcNsveQm3SR+8G3Dya3xPKtpzKfV6Q26vMMS+4PZ88H9zPN2kFFREREREQusSs6ORp6+zPMuC0Gf3tO5PRhfvp0GvNXV13bpo7j3uCxtql8fe80ztc4VaQ6uNKToyIi1ZMnw154hzvqbmbGw6+xyRgWEREREZFL4opOjorI+Sk5KiIiIiIiIiK1VZVOyCQiIiIiIpfOss8/LXyUVSYiIiIiVmo5KlLLqeVo9dRywU5jUbWX9td/Ofj+OGOxiIiIiIiISLWl5KhILafkqIiIiIiIiIjUVupWLyIiIiIiIiIiIrWSkqMiIiIiIiIiIiJSKyk5KiIiIiIiIiIiIrWSkqMiIiIiIiIiIiJSKyk5KiIiIiIiIiIiIrWSkqMiIiIiIiIiIiJSKyk5KiIiIiIiIiIiIrWSU1BYZIGxUERqj5bNQwGIjIw0hs4rISHB+ofJl+3xO4zhSmUymTG7umEymY0hEREREREREanF0tNSjEXlpuSoSC1XU5KjIiIiIiIiIiKVTd3qRUREREREREREpFZSclRERERERERERERqpSpMjk4jeO5Wrpq7krrFeuvay7/Cx7FYRERERERERERE5BKqwuSoG84ebpg8fHEpNn+KvdwNJ8diERERERERERERkUuoCpOjFRGKU/h4fPrPwaf9MFw8HGMtcGk9jTr9Z+IZ3qF4eWh/TIEtAHAKdPx7NF7951Cn62hcfK2TzYiIiIiIiIiIiIg4qsLZ6mcSumAwdUjj+Px2JMUZy/dwcPTNpNEN38ffpFEzt6JF09aza/K9ZAfOJHTKYOo4hHJ3f8GuV6eQZ19P2g6On2hK/WZusO97dh1rR7OO9RxapdqfR0RKotnqRURERERERKS2uvwtRyNHEtTMDZLXs3vmRP6eOZ29y9eQQwfqjBpMHbdsUr6YyPZxE0k8AKZmfagb47C8bwuCGqSTtnsPaceaEtixHk5Zezj42kT+njmR3Z+uINOhuoiIiIiIiIiIiAjVIjmalIQFIKANwQP74OqymcxfP6SA/niHAtlJ5Hh2o07fbpjIBnxxC3NcwR4OPdGZg6/ezMFF32E5A3g0pf7AwXj6JXF27evkOlYXERERERERERERqRbJ0ZSJJC5aT3qWG54xfYh48iuaj52Giz3uFkr9m/sTenN/GjS29q/PL7Up6AKOv7uclBRwC+9Ao7Efc9XU93ArNiGUiIiIiIiIiIiISJUmR3dwNgVbS0+HSZHaN8XT9qd9sNO8dfdyYEJP4uYv53QWuMX0x98+/KFlB/vGRbF9dNHjyFpbrCS7J3L46SjiXl5CUhKYgrsR2N1YSURERERERERERGq7KpyQCUx3/cZVXetBfhrpWzeTZgklILYp7m6QF/8h8fNmQeQc6l/vRvahPWQmBRJ412D8fdM49tptZPX9jvBoN3KPbOb4lkQKAKfAQHJX3Et6onFiJ4DJ1BvblNwDiZzdmYb30NE0CIbTX0aR+KNx60SEWjAhU+8e3YmJjsbVXL4m5DkWC3Hx8fy4arUxJCIiIiIiIiJXmCpsOQq5nz7Nvrg0Cpx98WndjZB21sRodsJy9iyYZavli1fbPoQOGk3kg4Px94Wz6xZwMiGRjAWvc+RINqbgNoTYutaHtG2G2d709BxuuEV2I/TmYTR7zJoYzd39BUeVGBWplXr36E6b2NhyJ0YBXM1m2sTG0ruHmpyLiIiIiIiIXOmqtOVoIXMHXOoH4gQUJC8nL8tYIRSn4Da4OJcS9+2DydcN8pPIPbLeEDyXU2B/XNygIG0zeWmJxrCIOLiSW46Of3g0rmYziz77nGPHjxvDJWpQvz733DmUHIuF199eYAyLiIiIiIiIyBWkSluOFrKsJy9xObmJJSQ+AUik4EgZ8bQV5CYuL1diFKAgybYuJUZFajV7i9HyJkZxqFuR1qYiIiLVTx26DnuG+f9cxLvjrjMGRURERMTm0iRHRURERKRsYbcx+aXpjO1pDIhUTOjtk1n48QIm9Ish1MeMt7t+8BMREREpjZKjIiIiItVA7G3d6RgGKeXrKCNSqjDfHDYtncWIu+ezKd0YFRERERFHSo6KiIiIXHatuemqIHL2b2dZhjEmUjHrFr7G/G+3kGIMiIiIiMg5lBwVEanufPvg3nUa7sEdjJFCToH9cfG1Tq4FLXAJHY1X19GYAlsYaopItdTnFmIDMvl77VKUGxURERERuXSUHBURqZZmErpgJ82m/0bMC3NoMnAwTad+zFWPz8TFVsN30k5aPvkxgS/sJGb6HCIG94HAydR/4SuinxpN2MDRRE3/qtgyIlI93dwuHK+MfaxfYYyIiIiIiEhVUnJURKQaM538hh3jYvl7Qiw7Fu0gv9lgGvSwtxAFgpvhvHI68dNGsfeLrXjdNYxAtx3snWhdJm7BenKbDSZ0QOmtTkXkMvMaQrdoT1K2/YfvjDEREREREalSSo6KiFRjeWeSKLD9XbBuOalp4Bnep6hC1m5Or1pCXtIa8tJ64tfMjez45WRm2eJbF5B8BHyiBxctIyLVile/loSbT7Bt5RZjSERquoAmxMbGFD1iQvAy1hGpjnTsVi/aH1IVdFwVUnJURKQGyQfc6jU1Ftv44mw2lq0nLxvwD8TNGBKRaiCEYR2a43p4C0u3GmMiUuP1e5DpU54pejw2nLbGOiLVkY7d6kX7Q6qCjqtCSo6KiNQYvriY4eyxHcaATRK59hajhTrg4gakJJFtDInI5RfWj7YhsHfL5yQaYyJS8y16ioFD7yp6/GMWa411RKojHbvVi/aHVAUdV4WUHBWRK1aOxQJAg/r1jaFS2eval73cTCFtcPMNBVrgOqQ//h5ppG5aYqxm8zqnd2bjFjsY32DruKRO14ynXjCkx39hrCwi1UDbwW2ob9nFpn9nGkMileA3ZvzjLobN/s0YEBEREREbp6CwSPtwdiJSC7Vsbk2iRUZGGkPnlZCQYP3D5Mv2+NJaM14+vXt0p01srLG4XDZv3cqPq1Ybiy+hmYQuGIx3ykny/erh6gyQTcba19n36Ydgm62+UcB6dk2+t6hVqHkkdZ8cT3BwUSf67Lgl7J0/nbzCEhGpHjoz9Z9jaXVwMUOmf2sMioiIiIjIJaDkqEgtdyUnR7ElSGOio3E1nzMYZ4lyLBbi4uMvc2KUwuSox8ZZ7PpwPS6hoeQfX0FBeRu0+vbB5OtGQfJy8s7pai8i1UKfZ1hyfzh7PrifaSuMQRERERERuRSUHBWp5a705GjN5ZgctbYUFZEriSfDXniHO+puZsbDr7HJGBYRERERkUtCY46KiFRL2eRnZZObpWmURK5MmSx55h4GKjEqIiIiInJZqeWoSC2nlqMiIiJXjmWff1r498Chd5VaJiIiIiJW1To5Gtp9CDeHZ7Bp4bdqVSFSRZQcrZ5aLthpLLpoJ/7zJie+nW8sFhEREREREam1qjA5eh0T3hhLhzq2/1pSOJGUxN9rvmLhD3FkGGqXpOukD5jQ9gRfD32KhcagiFQKJUdFREREREREpLaqwjFHzXh5mSFpMz+tXsVPv8Vx3BxOrxGTmTEsxFhZRERERERERERE5JKqwuSoleXEH7y3cCHvLXyPGROn8dMxMxEdbyO2sIYnoTGdGXB7P7rGhOBVbOmSlFW/DhGd+3FHv87ERtibrIqIiIiIiIiIiIicq8qTo8UdJuMsYDZbk5pe1zF2zjvMnzaWYbcOZcK0OSx5+zF6lZYh9erBhDfeYf6UBxl261DGTpnDwpeGEwoQdhuzPlzA3DFDuWPIgzzzwgLmDjOuQERERERERERERMTqEiZHPQntO5muTSAl4Q/WAW3vH0avsBR+mn4/Q+69h4HPfMte3+sYMb6PcWEA2o4aQlef/Sx85B6G3HsPI5bEYYnozLAOQI/riHLfz78esMaG3H0/U5cZ1yAiIiIiIiIiIiJiVeXJUa+2Y1n2+acs+/wD5o+Iga1f8fKrvwExdIsMgkNbWBiXaa28azFrEix4hbehl3FFxNCtaR1yjiSwLySG2NgYmh46QQp1qB8JHMsgwyWEruOH0yvEE8gkozyzPomIiIiIiIiIiEitVOXJ0YxN8xk49C7GfrOfHCzs/e0/7ASgDl7uQJ6l2Mz1KWct4FOHMIcyK2t914g+PPP4ZNvjeoLOnuD4fmDFXGYtS4Cm/Rg79wOWzJ3MgObGdYiIiIiIiIiIiIhYVXly1C5xyYf8dMhM27sepCsA+0nJAFxs44/a+LubIf00hxzKrKz1c/Z+Ze02X/h4lFlrATLZ+ukLPDjyLka89BWJvq0Zdu9txpWIiIiIiIiIiIiIwKVMjsIu3vv0D47XuY5h41oDh1m29TCEXceEPtaZ5b1iRtA70kzGvs38VLicGbMXwGHW7TmBa/PuTO5cNBO9V0hrYsPAK6QJobYsa8qWzRxSl3oREREREREREREpwyVMjgKb5rPkj9PU7zyCsc0h8YN3+dffrrS9fwHLPv+UJdP6EJT8GwtfXwHA2vXbSckL4eYPX2IEsGnefP71tzcdxy1g2SeLrMu8Mpyu/tD01seY/+GnLFu8iKWfTKdXnf18//FXxi0QERERERERERERAcApKCyywFh4yQU0ITbEC5L3sfWwbXKmstjr551mT9zhojFLvUKIbVrn3HIRKVXL5qEAREZGGkPnlZCQYP3D5Mv2+B3GcKWyb6eIiIiIiIiIiKPtuxKNReVWPZKjInLZKDkqIiIiIiIiIjWZkqMicsFqSnI0OiIYF5eLGwnkQl6jiIhIVSn8HBURERGRC5aXl0/83iPG4nK7uEyDiMglkpObaywSERERERERkVruYvMFSo6KSI1wNttiLBIRERERERGRWu5i8wVKjopIjZCRmW0sOkfXrl2NRSIiIiIiIiJSQ61cudJYdI7y5AvKouSoiNQIaRlZxqJilBgVERERERERufKcL0F6vnzB+Sg5KiI1Qn5+ASlpGcZiUGJURERERERE5IpWWoI0JS2D/PyLm2teyVERqTGSU84Yi5QYFREREREREakFSkqQlpQnqCglR0WkxjibY+FkSnqxsrVr1xb7v4iIiIiIiIhceXr27Fns/ydT0jmbc3GTMaHkqIjUNMdOppKVnVOsTAlSERERERERkSuXMTGalZ3DsZOpxcoulJKjIlLjHD6WQl5efrEyJUhFRERERERErjzGxGheXj6Hj6UUK7sYSo6KSI1zNsfCgaPJSpCKiIiIiIiIXMFKSoweOJpcKd3p7f4/cJZlydGyWhwAAAAASUVORK5CYII=;" vertex="1" parent="1">
          <mxGeometry x="11.629999999999999" y="510" width="796.74" height="230" as="geometry" />
        </mxCell>
        <mxCell id="YuXrgqJmxFG0NAlgd0cn-20" value="" style="shape=image;verticalLabelPosition=bottom;labelBackgroundColor=default;verticalAlign=top;aspect=fixed;imageAspect=0;image=data:image/png,iVBORw0KGgoAAAANSUhEUgAAAJwAAABdCAYAAABQDA9cAAAAAXNSR0IArs4c6QAAAARnQU1BAACxjwv8YQUAAAAJcEhZcwAADsMAAA7DAcdvqGQAACMDSURBVHhe7Z13eBzVuf8/M1u1K2klWbZkWc2SXGRbcu/YYGxwwKH9CAQIEBIICfcCCSQO5cLFSUiAJCSES8gNIZSQhIRA+FEuYEwxuHdbrrJlNavXVVltm3L/mJW0O7uSJVmS8c1+nmceW+ecnZ05851z3vO+78wKqqqqRIkySoj6gihRRpKo4KKMKlHBRRlVooKLMqpEBRdlVIkKLsqoEhVclFElKrgoo0pUcFFGlajgoowqUcFFGVWE0Yilqiq4PW6amluorWvixMkyig4dobSsglM19VTXNeLq8IKigtVIWrKDrPRUJudOJH/aVKZPmczErAmMG5uMyWTU7z4Mj8dDbV1DaKEgEGu3MSYpEVEc/H2mqipt7e04ne0Ed5kgCMTHxZKUlBjSfjC0tbXjbGtHUZSeMkEUSE5KIjbWHtI2El1dbiqrajhcXMLhw0cpOnSUkrJT1NW34HX7EU0Gxo5zkJMxnpyJmUyZlMfkvFyyMsaTMm4siQkO/S5HjBEXXH1DE5u37mD79iJOVJax98BRJFnGbDVhNhgQRQGDTgCKqqIoKpIs4/ZJmFSB+XMLWLJwDtdetYb0CeND2uv5YMOn/PK/nsdiMfWUCYJAoj2etffcTmHh9JD2A+FkWQXP/OEVTpSUoqq9whAFkbSUVB74wXfIzsoM+cxAcLa18cCDj1Hb3IRflnrKFUnlxmuv5NprLsNkjHyT+fx+Nm/dyXvvbmTHoQOUlFdjNRsxGQ0YRBFBFBACbVVAkRX8soxPklElheysNKZMmUThjGlcfemFpE9I033D8DNigmtpdfLyX17nrfWf0dbaQnt7J0azEaNh8KMLgF+SMYgiY2KS+Mmj32XF8qX6Jj386dU3+P4jv2CMI3R08HR5Wb1yCb9/+uch5adDlmVeeOV1Hv3lb7FaTQjdVzGAzydz89e+wrof3hlaMQBefOVvPPyTp4jVHWtnh4d/v+1Gvn/3bZjNvTdON01NzTzx9B/5bNNWmhtbMNvMiPoDOw2KomriEwQKp03hR/fdycyCwd+Mg2FoV/80eDwenvzVczz51PM0NtTh8/uwxpiHLDYAk1EbDVu9rdxw2328t/5jfZMeZhZMRxBFDLrNHhvDq29+jM/v13+kX7xeH8fLyhGNIkZD+H5NRpHjJ8rpdHXpP3pa/vvl14l12MP2aY+1MmXKxIhia+/o5IcPPc6rr72Fq8uF1W4ZtNgARFHAajYSYzKwd99BXnvzAzwej77ZsDJ0BfSD2+PlRGU59gSbvgoAWVHwSTJurx+3x4fbJ2mb14/b59fuun4GXke8hcd/9QcOFB2J2C4jLZVFM6fil2R9FQaLkd179uuL+8Xt8VB89Dhmo0FfBQF7y9nupL6hUV/VLzW1dTQ7O8JNCkVlYnYG+ZNzQ8oBOl0u/vNHv2T9xi04HOH9q6oqXr/Wl35ZRlFVQEBVtdHM7fXj8UvIQfYigMFkpL2zAylCnw0nhnXr1q3TF54pHo+Xd97bQH1Tc4+BLskynR4fLp/E5OwJTJ0ymcIZ05g3eyaFhdMpKMinIH8qmRnpxMfH0tnhwtnuwmQ0IOjuXlEUaAkY2UsXzsVkCh0FBEGgpLyKPQcOY9YtMgwGAYfdxvnLFoeU90d1TT1P/e4lTEYx7FgABMDv9TFvTiE52QO347Zs38X6jZsRCb1pZEUlb/Jkbrrm8rBz+/Wzf+SFF18ncUxcSLkKuLq8JMbHMmd2IYsWzuP8pQtZvng+SxfOZd6cmRTMyCcnK4txqcmYRZG6hhZ8koTRICLJCpNzs1l1/lLMZnPIvoeTEbHhWp1t3H7XfRQdPY6iqLR0usnPyeTKNauYO3c26SnJOOLjsMXEYLGY6TGKVPB6vXS6XFTX1rP+48949vm/44i36r8CVVWRfCpvv/YcU3UjgaqqvPnueh5+9FeBSxFaZ09IYvv7r2IwRB6x9Lz9/gZuu+cRxursrGBcLg8Pr72bb9x09YBXwWsffoK33/8wzNRQEbj721/nO9/8Wkj5ocPHuOq2ezHJvjDh+yWZS1ZdwM3XX0lW+gTi4uMwm0wh7VRVxefz0+V20+ps42RZJdt37uGPf3mD1lYXt11/BT9ZtxabLSZk38PJwHpmkIiigFkwUX2sjiVzZvLpP19k8wev8YO7bmfFkvlMyp3IuLHJxMbaMZlMmIxGbTMZiY21k5oyjrmzCnjw+3fyyu8fp6qqRf8VCIJAp+Rl/YZP9VUIgsC0KXlkZk5AUUIFJwgCTW3tVFRWhZT3x46de7EFrXgjoRhETlZX4fP59FURaWtvp6K6TvMZ6ehSBS5YukBfzD/efh9jBLH5JJnzz1/Kz398P3NnFZKcPAaL2RzWThAELBYziQkOcrIzuWjFeTx833c5tvND/vqHJ/j3O74+omJjpAQXHxfHM08/yqmqbbz0h19TOCNf32TArFi+lF8/thaX26uvwhFj5Y33NgTslFAy0tNIGTsOJciF0Y0Vhd37ivTFEZEkiXc3fE6MznjXuyqsRgMlx0vweMKPMxI1NXW0OJsRIthv6dZ4JuXlhJS3tbVztLgCRQ4/H4xmfnDHLdpsMQSsVitrvrSKnIlZ+qphZ0QEJwgCiQkOEhMcYXfZULhk9UqyMtLCDF1RFNh3pJSWltaQcgC7zcbcgqkRp01VUdi+99CADOSq6lpKaxoRxd7zUAQDC+fNDBG60SBSdLCY9k5XT1l/lJRXUVdTH7JfgHa3h69/44qw427r6MDldYOuPYCoCkwcgg/wbDAightuHHGxLJg7C4+/1zHagyD0OT0uXTwXjxJ+gVRVpbyqFmdbm74qjL37D2C3hI5mik/l8ksvwhEX17NKFgSBlg4Xx0tKQ9pGwu/3c/T4Sdo7u3ocs910tnm4ZPVKXSn4fX5kWQprT+C7I7lPvoicE4KzWi3kZGWh+MNHJKvJwKlTkQVXOGMaFkv4gkMUBNpbW6iprddXhfHRxi047L378EsyUyZnkD85j3Fjk0NMMJvVxI5de3sL+sDj8VJeUYHZHCpkSVZYPG8K6WnhkZT+ZgpJkmhqDrdzv4icE4ITBAFHQiymCIa72Sji9ka2m4xGI9/4ymo6dfafKArU1NZTUloR0Y/XTZfbzWc7D2EMmt7cPj9XXrqScePG4khICIl/WsxGPvhkc8/ffdHp6mLP3kOYdKvT9i4P133lypCybhyOeGxWG6puEQRgMcLfX38Hr3dgC5azyTkjuFirFUsfgXtZijDVBrj8kotpd7r1xXR6vBwvr8Tfz2fLyyvx6MTc2eFl/txZ2G0xTJ8yESFINEaDgf1HSmlpdYZ8Rk9ZRRVl1fUh7hMViLVaWDR/TkjbbhIc8eSOT4040imKwot/fpM/vfrGgBctZ4tzQnAEvPlDCd/k5eUwdVJ6mHvEYjJScqIEt7vvUM6hI8WYg2x3VVURjQJTJuUhCAJzCqchCqHGvT3GxK7d+0LK9OzcvQerbrT2SzIL5xYyPiU5pLwbg8HAmi9fiEcN7wNRFOh0d/Cb/36ZK2+8g/UffdrveZ1NRl1wiqoiSTI+nw+Px4vb7enZPB4vXq8Pv9+PLPcf3hooRoOBa676El266cZoENm8fQ+dfawqVWDD9n0ocq/d6PNLXH/Fqh4DfWbBdLxS6DHaLGY2btoeUhaMqqq888HH2KyhgvN6/cyeWYDN1rdz+YJli5mRm4kUdEzdGAwiqipTXlHB1+98kHkXXMVvfvsHTpZV4PX5Qqb+s8mIRBr0qKpKa6uTk+WVHD5aQlnlKY6fKKGquo6Ozi5ARRREYmIspCSPYXxaCikpKWSmTyBzQipjk5PYV3SYn//m92EidHZ28cRD3+PG668JKQ9m194irrjhOyTqIgWNLR3885VnOG/RvJByAmlDt9+zjgNFRT2RgJaOLn79k/u57urLIJBFsvL/fZ36mtqe6VFRVRzxCXz+3qsRV45V1bXkL76MzPG9+XOqClaLmcfX3cfFK5eHtNdTXnGKq67+Np2yO2zREYyiKDjdXnw+mZWLZ3He4oUUTp9KTnYG41PHhYXMRosRiaUG43Z7ePPtD/ivZ1/h5b+/wdvvf0LR0WIaGptxezzIsoKiKFrum9dLQ3MLx0sr2H3gMB99uoWPPt3Elh27OVJcQlt7h373eHx+Llq+iMJ+0mosZhNbtu+kta09ZFqWgYzUZJYsDBdcWXklb723gfb2jh67qcvj495/v5WUcdq0J4oijfW1bNl9oCdmKwgCHW4/l68+n6TEhJB9Anz06ees37gFu7XXSauoCllZWdz01StIOE0yZEKCg6n5OezYVYSzrR1jXwkFgkCM2URsjJmaukY+37abzzZvZ9ueIvbvO4LH7SIlZSxWa/gqfiQZ0Sm1rKKSq26+i58++Tu27tlDh8tFfFwMdqu5J0lQFAUEQdtEQcBoMGA1m4iLsZAQb0M0iNTWNVJRWa3f/YCx223Mmzsbjy90gWC3mHjtzfdDyropKaukqqoGIeBolRWF/LzMMBtr+dLFtHWFTtdmAxw5WhxS1s3/fLgxxM1CYFTMyphw2sTSbpYtWcCvfvYAmRkZESMwekxGA3F2Kz7Jz5Fjx/n/76/nwceeZs3X7uBvr7+lbz6ijIjgVFWl6OARbrrpXkpOnECS/ZgtxjCjX1V7s3tDNlVFVVVUVcvEEEUhzCM/GGKsVqZNzgM5dDo2iCJHj1TQrItUyLJM5al6Otp7HbNev0zh9GnYYkLFMntWAYIUah8pssTO/YdDygjksX2+82BYBovRYOKCJXMw9pHZq8dgMLBw/mze/ftz3P2tG2iubO9JOdKbHMEIgMkgYjYbUSUfLQ0NfPuBx7joyhspLa8cFTtvRARXXlHFg+uepMbZGJLm3Y0kyUiSQmJiAuMzM8iZmENebh55uXnkTMwhIzubtPQJjE1Owmqx4PL68foGlzSpZ/qUiUzMSQ+Lu9qSbHy2eWtImcfrpexUJQZrrwAUWSEvd2KYI9lsMnHJhQtDcu9UVaWkrIaOzs6QtsdPnESN0OMeBBbNn6svPi12u4177/oORQff47u330z+lKmMHZuMrCi4vf6wUKAeURBIT4qjvKKam7/+fbbv2DviohuRRcMtd6xl48Zt2OPDMw9a21wsnD2DlSuWMacwn/QJqcTHx2EQNVtEVmQ8Hh8ulwuns42a+gbKaxrYvXs/O/fsCxslB7JooHsRcO86DhzoXQQA+CSJ5Yvm8cff/qKnrKm5hZtu/x5lldUYRC1bzSAa+Nkja7nsS+Fhpxf//Br/8djTJMZq5ysrCtkTs3nm8YfIy5nY0+63z73Mb//455DwlCTLFM6Yxt9feHrAaU190dbewcnSMg4cOs7hYyc4cPAQR4rLEc0GYq39p6D7PH6ysrN48dnHyRjg1D4UzuwMI/DJxs28v3ELtghia2nt5I5vXs/vnnqUO269gSWL5pGZkU6Cw0FcXCxxcbEkOBykpowlNyebuXNmctklF3HnN2/giktXYhCGfriO+HgWzJwaEjUAMBuNbNt+kLa29p6ytvZOig6W9GTiqopK2vgUcrPSgz7ZS8G0qUhdvSOwKAg01jVQHmR3drnd7D5wFFmXMOB0efja1WvOWGwAjvg45swq5JavXc26B+7mhWd/wZ+fe5Lbrr8Ki8mCs72rzynXbDVxsqKc51/6q75qWDnzswxCURR++qtnSbDHhAWZvX6Jr1xxEd/7t2+QmjIuLBuiPwRB0NKB9DsdBIIgsHzxfNQIovUboaS0vOfvg4ePIhl7v0xRVeISEklNTekpCyYjfTw5OWk9zmVBEGh0tlFR09BzgZuaW2h2OnsWId1IHb5+HwgaCoIgEGu3kzEhjRXLF/HIA/ewZcM/+OWP1iKrRvx9+DhtFjO//uXLNDaNXFw2vPfPgLLySspPNYZnsKoqjrhYrlyzmrjY2JC6geLz+yM6PAdD/tTJWM3WsM426fLjtmzbiT3IhyYIApkTUklwxPeUBWOzxTB71nS8QaOXKAiUlJT2hJoqKqtpqGsImdY8fomrr7oQRx/7HU7sNhvXX3sleza+wY3XXIHRaArrB4CEdAdvv/uBvnjYGFbBnSwtx2wO36WiqqRnZISlgg8URVFwtrvwes9s4RAXF8tlq5fh1i1AZFlmX1ExXq8PSZZ5d8NmLKbeEVgUDSyaPb3Pac9qsZKbPREpKH3KYjJy/PgJPB4PiqJQXFJBfVNzSCzU1eFmzcXhNuFIEmu3s/bub3P5pRfhidCfVrOJDzeGLqKGk8g9OERq6xvDHgghYAPZrDHExw1tdJMkmfrGJr1XY0hcc9UaWlvDw1l1Tc00t7RQW1tPVW1TiLg8KswsmBbSPhiTyUhudjr2GEvP2RsNIjsPFdPa3onX66O0opLgMKiqqowbk8DsWQW9haNETIyVS1ctZ3zKuLBRzmQ0cPjw6XP6hsqwCs7V1RUxpZvARRlqOMXt7uLQ4aMRs0UEQYj0WECfzJg2lbTUxJDlv0EUaGlu4lRVLdt37sahW/BYBeNpnbK5EzNITx8fcgF9Lg8nS8txdbnZt/8AliA/m88vs2zpPBITR346jUTKuGSSkhIi9p0cKY19mBhWwcVYrYgRjHIEAY/Ph9c7tAyGfQePsmPPAUxB01w3BkGgqWVwRu51V11KV9C0KggCtfWNlJRVsv6TTcQE+Q59fokVS2dht4U/AxrM+NQUYuMTQrJSbDYLO3btoamllT2HToTYtpIsMy0/H1tM+Gp+NJAkCZ8khc1HsqKQnjVWVzp8RFDH0ElOSkCNsJQUBIH2jjbqG5r0VaeltLyCB9Y9iUEUI+wZzCYj+w9FDiP1xUUrL8CtC3MpisrOXfs4cOg4pqD4ZJvby+rTBNQBkhITmDB2TCDPRMNiNvLJpm0cO3Y8JNlSVVXGp4ylcNqkQa3Wh5OSympq6xrCIjgen8SyhZFz8oaDYRVcdnYm7giyMIgCJcVlbN1xYFCe7GPHT3D9dd+jubU5RATBmIxGdu0rHtDzCd3kZmdSMCkrxBNvMZv4ZPN2XF1dIYa92+lm4YLTRwEMBgML5xZgNPROmwZRpKaukd889xJxQfFTWVFJHT+eyXm9TuHT0dTcwnvrP6KsvFJfNWjaOzp4650P6OoKf6bC6XSxeuX5utLhY1gFlzMxi1i3dgfrMZpFXvzr3zhxsqzfp6VkWaa9o4MPPv6Mm25di9PfhsloQFUjPsKJIICCn08+26Kv6pO4WDsL5s3FGzTKCQIoihzyohpJVpiWn0XK2MhJkXpmFuTj03WpQRSpq2sMeZ2DIAhkZ6aTMm7gU9f7733KDd9cy8zZX+bG2+7m8607aWl14vF4B3wT+/1+mlpauf+Rx3l7w+dhNrEkK2RnpLCwj6zj4WBY05PMJhN+xcMnn+/EGpR+Q8Av1d7hYv3Hm/D5ZVRVRpZkPF4vTmcbVTW1FB0+xoZPt/Lcy6/y5H//CQEZo9GAoqqYzVZMJhOS5A8ZgQiItK3Ly6pli7BaLSF1kTAYDNTXNbF5604M/bxgx+Pzc/VlF7Ni+RJ9VUTsNhsv/+WfKIoUcoz641UQuevW68nLyQ4p7wtVVdm7/yjbduxm7IREyqtq+cs//4dPP9vMycoqKk/V0tDQSEdHB50uFx6PltDa0dFJc3MLp6pr2Ft0hDc/+IiHH32SA4eKwzJWVFXFr8Cvf/rggI9rKAx7LLW11cll136LxtbmsDASAZ+c2+Mnffw4ksYkIZrNIMt4ulw0NDTT7GzDbDZp7xQJfKbL5ef+H3ybyqpq/vn2+rBHM1VVxWC28sS6H3LJquVh00Qk9u4v4t6HfkZ9Q1OfMcbm1k5efOYxLrn4An1Vn9xxz4N89Pk2zP1kfnhFMzvf+0vEfLlIqKrKS3/6J4/87FfEBb0gSFYUzRZVFOJjbYxNTsIWY8NosYDBgCwryD4fPo+bxqYWWjpd2M0mDPoODDwcdPXlX2Ldfd/FPoJP3/d9ew+RxMQEnvrFw3h8UlhmBoGRzh5jpqW1leMnSjhy6AjHjhVTUVmNx+sh1mbFHBCbrCjUnGrhqccf4Bs3XM2tN16D3x0+fQiCQFtjE5WllagDnF4mZmUyLjmlz+lIVVViYszkT83TV/XLmotX0NbVd46a1+/nS+fNIXGAYiNwfjFxFoxB2SsEputYq5lYmxVZVqirb+RkWQVHjxVz5NARio8e42RpKdU1dUiSn3irOaLYPH6JwsIC7rnjmyMqNkZCcACzC6bzowfuQRW0t/JEQhC0N1+aAu9b607EJLBilCSFxIQEPnz3Ba748mrMZjM52Vl8/+6baXe5e+w5WVGRZZXFCxZw6SUX9BkN0JOYmED+lIn0FaCVZIU5M6biGKSzurBgGn53uAe/m/o2N9deuaaPb+2bJfNnMW/KdCS/jCQrYfasIGh9KooCxkC/mgwixkDf6lEBWZLxyyrnLZjDS08/SlrqOH2zYWdYbbhuRFFkev4kstJSKa2uo6q6DgUVoxj5dVcEROaVZNwdHrIzJ3DxsmU88egPyZ8yKaTd/LmzOFFykoPFJ/G7fUzISOOW667iofvuHJQRDpDkiOX9T7bQ2uDEpyj4/JK2+fyoksJ1X7mMJQvnDsp14YiP5+ChIxQXl+OXg/bpl/B2eSicOokf3PWtQTvBHY54zls2DxXw+mS6OjtxdrhA0MTWl1kQjBpw6rp9fsyCgak5udz5ra/x8P3fHbVU82G34fSUVVTy4cbt7Nq7l63b99HU5ASTQRtYVEBWEGSVtLRkFsybScGkKSxbNo+pU/KwWCIvAFqcbfz19XfwutysWrGYmYUz9E0GhKKqbNy0jWOHS/HTu3IWgLFJiaxYsZjUQYoY4FRVDes/3Ky9CyQIq8nEivMXMXlS6ItqBktdfQNFB49xuPgkJWWlFB06RnFp4O0DRhGTKGAKjPR+RUFRQfbLiKLAzPxc5s2ZxfzCGcyfP5O08Sl9DgIjwYgLjkDw3eXqosPVRXVNHe2dnTQ1N2MxmYmPj2fsmCTGJidht8Vgs8UMaESRAik2+rcYDQVZUUKfaBc0++hMLoSqqmEhIi1VfmBT/kCQJEl71NLjoa29k1PVNVTV1OJscQYeTJIwGU0kJDoYn5pKZnoayWMSsdlisFqtg57Wh4NREVyUKN0M3+0WJcoAiAouyqgSFVyUUSUquCijSlRwUUaVqOCijCpRt8i/IooEzlJoPwWd9SAHZWKLZogZAwkZ4MgG0+BCe6dj6IJTVVAlEI19xiOjfAHwdYK7EVqOwqnNUPMxOIu0KI8QtAXT7a8WgDGLIPcrkL0KHLmB6z10hig4FZoOQMV6SJwBWavAEDkMFeUs4XFC1adwaiNUbwBXWeDNQBEE1h8q2nvNxsyGFc/BmKGFEbsZmuBUGQ4+B9vuBWsqpJ0PM++FcYX6llHOBqXvw+FnoWUP+Fojj2KDxgzLn4NJX9VXDIqhLRoEA6RfCMkLwV8HFa/BuxfB1gfBP/ifcIwyjHx8J3x8EzR8BFLgNWTdo5QU2Hy6TQrU9zf0yD5tO0OGNsJ103ICPr0VWnZpd5AM2CbAwicgbTHYxp3xnB9lELScgI9vAV+b1u8mI8RkgDEeYvMgLh2MsWAwgimQOezvAl8XtB2Dxs3QUQ6+uvARUUEb4abcpKsYHGcmOID2Ktj+Q6h8s7dMMcDYBZB7HWStBsfI/4ZTlACtJSCawBwHlvjB3fCyF6q3w6a7wH0iVHRiHJz/HORE/h2JgXLmggNwN8G+n8PRF0Ht7M11M8SBIx/SLoT8W6LCO1fY+STsfwiCs8RiJsMFz0HawqDCwTM0G05PTDIs+inM+ymoAb+NACgd0LoTDv0SXp8HW+6L2njnAok5ofacCsSMA3vk15UNhuERHGjD+MzbYfUbEJMbesCCpI18h56GF8fA1h9D/R5wt0R+2DTK8KMq4G6F5iLY+XPY8QtoPKSV63FHeHVGTLLmED5DhmdK1eM8Abt/BJUfgRrhiXgFMCbC+FWQvhzGL4WEXDAM7fc+o5yGlmKo3gQ1m6DqHZADqe9pa2DV82DVPUG2cS2ceCZoODLBtO/C4p+EthsCIyM4AnfJiX/A7v8EpT181UNAeAabtoJKKoS8r0Lm+dpoGeXM8LugegecfFFbvXacBLmzV0QKMPZCWP1niOn9kRIAXskBb23vNROTYOWrkHn6d6ycjpETHIFh3FkC710LncXQ74JJAMUMRiNMXQv510PCufGjs18oPE44+DIU/x66akDwgai7xCpgSIELfgcTvxTqFe6ohj/nQfBkY06Hr+4B85m/WmxkBdeN3wW7fg4lL4GvEYR+vlIN3H0qkHIe5FwHaXMgZoJ2J0ZHv15kH3jboKsWGg/C8b9C3SYQ/JFDWN3dnrAQFvw48oh1+FXY9E3o7mYZKHgIFv+HruHQGB3BEfDxVH4IR16B6ncid4gepdves0LKKhhXAPGTILkQHBN7nZf/SkgeaK+E5kPQegCaiqFxK3gb++9TBbBlQ84amLEW4vpYcb71ZWj8uNe1JTjg2r0Ql6ZvOSRGT3DddNZqwjvwDHQcCvX19EX3EaqAyQG2DG3VlDQbJqzSYri2gb3h6JzE06rZYVUboH47uBvAXQ2+5oHFSSUgZT7M+TGkL+17lnCWwVsXglSn/S0D+d+DZY/pWw6Z0RccaMrpaIAdj8DJv4IYmAIGgwooItpPu4gQnw3Z10H6Mhg7I3zldS6hSNB0BKq3wcm/QMsB7YQFGcQIboy+UAJiW/JbKLjp9KlkRc/D7vtBdfXe5NcegfiBv8fudJwlwQVRvR32/BBay8Df1G9/9Eu33aegdaxjGiTP18SXkKv5kEwOMNrBbNfucoMZIr0idiRRJM328rs121Zq12KfraVaWKpuE7Ru04QiBDylgz1EVQRLKqRdCgvu02Kop8PXDp/cDlVvBaZTMxTcB3O/D8bhSz07+4IjYN+dfBvK3oLq90ByD2yq7Q81aAMwxYE9F2xpEJsGJjtY48GSApZksI7RYo8mGxjjwBgQpCiCcYC2ouzTjl32g98DPidIXuiqB38beOvB6wRPB3Q1aMa+qxw81QF7KWgAGsqNpwCmMZB1pRbznHCeZv8OhLpdsPF26DymfXfSfLjgD5A4Rd/yjPhiCA56PeFtR6DoJagI/ATPmQqvm+CzDP6/wa75Ao12MMRoI59oBtGgjZSCoP0t9HEsasDWITB6KX5Q5MBI5gHVD/5OUNyaH0wJvHUzWFBDEVcwSiC4nnsdTL4WxswES5y+Vd+oMhx6Hnas1Va4ggOW/Q7yrhj2GeCLI7hgVEXLud/0Hajeovnvhve8h0bwiNnN2TwuBfADk26FhfdD3ATtBhksHid8eAvUr9dunpmPwOL7huFOCOeLKbhg6vbD0RegYZuWJi27zu5FPpt0C96cBPZMmHARFPwbxKbqWw6Oxv3w5mItVy7nZrjgSX2LYeOLLzgCI15bOVR/BLU7oX5raI7+/2WCbdGEGZCyBFLPgwnLIbYPX9pg2fUUHHwSpn1LWySY7PoWw8a5IbhgPG3QUQENe6H0XajbAIpPs6+GfwY4e3Q7vQ3AxNsgeyUkTYXYjGEXhNpWgdJVj2FMvpa4OYKce4LT43HC8bfhyO80z7uIFjs810Y+tVtkgpadkb4aZnwHMpf17ag9Bzn3BRdMR4327GXZC+Dp0lwQ3jqQOrT6M3E5DBfdvd39r2U8WMZoLpqkOZB1OaTOGvGR5mzxf0tw3aiqlh7VVg4tRVrWREe1NhW3H4euqlDxjYQQg1e03f83xYI9B+KyIDYd7EmQOFdzTMel/0vEhv9vCk6PqoKvA7zt4GvRPPvtp6CzRvPwd5Ro6VPuhnC3x1AwGsGep+X5xWdDXCYk5WpPsZkcYHaAOVZzyg6zn+uLzr+G4AaDx6klGPgG+cuHogGsdojPGtyTUv9iRAUXZVT51xrPo5x1ooKLMqpEBRdlVIkKLsqoEhVclFHlfwG0YERunFbieQAAAABJRU5ErkJggg==;" vertex="1" parent="1">
          <mxGeometry x="560" y="60" width="150.97" height="90" as="geometry" />
        </mxCell>
      </root>
    </mxGraphModel>
  </diagram>
</mxfile>
